<svg xmlns="http://www.w3.org/2000/svg" xmlns:xlink="http://www.w3.org/1999/xlink" preserveAspectRatio="xMidYMid meet" width="1920" height="1080" viewBox="0 0 1920 1080" style="width:100%;height:100%"><defs><animate repeatCount="indefinite" dur="15s" begin="0s" xlink:href="#_R_G_L_1_G_D_0_P_0" fill="freeze" attributeName="d" attributeType="XML" from="M338.6 105.65 C311.95,66.5 265.26,60.24 236.97,64.31 C208.69,68.37 177.31,66.51 153.11,34.87 C128.91,3.22 85.28,0.25 61.35,25.74 C35.47,53.29 0.25,120.27 47.23,198.15 C77.17,247.77 122.9,280.32 162.58,297.24 C202.26,314.16 235.39,320.42 255.15,303.54 C274.91,286.66 263.41,267.39 259.37,258.74 C255.32,250.09 249.11,224.56 294.53,215.42 C348.62,204.54 368.42,149.42 338.6,105.65z " to="M338.6 105.65 C311.95,66.5 265.26,60.24 236.97,64.31 C208.69,68.37 177.31,66.51 153.11,34.87 C128.91,3.22 85.28,0.25 61.35,25.74 C35.47,53.29 0.25,120.27 47.23,198.15 C77.17,247.77 122.9,280.32 162.58,297.24 C202.26,314.16 235.39,320.42 255.15,303.54 C274.91,286.66 263.41,267.39 259.37,258.74 C255.32,250.09 249.11,224.56 294.53,215.42 C348.62,204.54 368.42,149.42 338.6,105.65z " keyTimes="0;0.4746667;1" values="M338.6 105.65 C311.95,66.5 265.26,60.24 236.97,64.31 C208.69,68.37 177.31,66.51 153.11,34.87 C128.91,3.22 85.28,0.25 61.35,25.74 C35.47,53.29 0.25,120.27 47.23,198.15 C77.17,247.77 122.9,280.32 162.58,297.24 C202.26,314.16 235.39,320.42 255.15,303.54 C274.91,286.66 263.41,267.39 259.37,258.74 C255.32,250.09 249.11,224.56 294.53,215.42 C348.62,204.54 368.42,149.42 338.6,105.65z ;M365.1 85.65 C338.45,46.5 293.72,48.85 259.97,50.31 C231.42,51.53 199.17,36.49 162.11,21.87 C117.72,4.35 65.78,8.75 41.85,34.24 C15.97,61.79 2.72,123.35 63.23,183.15 C104.46,223.88 109.9,299.82 149.58,316.74 C189.26,333.66 224.39,322.92 244.15,306.04 C263.91,289.16 263.65,260.79 263.87,251.24 C264.22,235.36 269.11,218.56 314.53,209.42 C368.62,198.54 394.92,129.42 365.1,85.65z ;M338.6 105.65 C311.95,66.5 265.26,60.24 236.97,64.31 C208.69,68.37 177.31,66.51 153.11,34.87 C128.91,3.22 85.28,0.25 61.35,25.74 C35.47,53.29 0.25,120.27 47.23,198.15 C77.17,247.77 122.9,280.32 162.58,297.24 C202.26,314.16 235.39,320.42 255.15,303.54 C274.91,286.66 263.41,267.39 259.37,258.74 C255.32,250.09 249.11,224.56 294.53,215.42 C348.62,204.54 368.42,149.42 338.6,105.65z " keySplines="0.167 0.167 0.667 1;0.333 0 0.833 0.833" calcMode="spline"/><animateTransform repeatCount="indefinite" dur="15s" begin="0s" xlink:href="#_R_G_L_0_G_D_24_P_0_G_0_T_0" fill="freeze" attributeName="transform" from="0" to="-360" type="rotate" additive="sum" keyTimes="0;1" values="0;-360" keySplines="0.167 0.167 0.833 0.833" calcMode="spline"/><animateTransform repeatCount="indefinite" dur="15s" begin="0s" xlink:href="#_R_G_L_0_G_D_24_P_0_G_0_T_0" fill="freeze" attributeName="transform" from="-106.167 -225.704" to="-106.167 -225.704" type="translate" additive="sum" keyTimes="0;1" values="-106.167 -225.704;-106.167 -225.704" keySplines="0 0 1 1" calcMode="spline"/><animateTransform repeatCount="indefinite" dur="15s" begin="0s" xlink:href="#_R_G_L_0_G_D_25_P_0_G_0_T_0" fill="freeze" attributeName="transform" from="0" to="-360" type="rotate" additive="sum" keyTimes="0;1" values="0;-360" keySplines="0.167 0.167 0.833 0.833" calcMode="spline"/><animateTransform repeatCount="indefinite" dur="15s" begin="0s" xlink:href="#_R_G_L_0_G_D_25_P_0_G_0_T_0" fill="freeze" attributeName="transform" from="-106.167 -225.704" to="-106.167 -225.704" type="translate" additive="sum" keyTimes="0;1" values="-106.167 -225.704;-106.167 -225.704" keySplines="0 0 1 1" calcMode="spline"/><animateTransform repeatCount="indefinite" dur="15s" begin="0s" xlink:href="#_R_G_L_0_G_D_26_P_0_G_0_T_0" fill="freeze" attributeName="transform" from="0" to="-360" type="rotate" additive="sum" keyTimes="0;1" values="0;-360" keySplines="0.167 0.167 0.833 0.833" calcMode="spline"/><animateTransform repeatCount="indefinite" dur="15s" begin="0s" xlink:href="#_R_G_L_0_G_D_26_P_0_G_0_T_0" fill="freeze" attributeName="transform" from="-194.553 -173.797" to="-194.553 -173.797" type="translate" additive="sum" keyTimes="0;1" values="-194.553 -173.797;-194.553 -173.797" keySplines="0 0 1 1" calcMode="spline"/><animateTransform repeatCount="indefinite" dur="15s" begin="0s" xlink:href="#_R_G_L_0_G_D_27_P_0_G_0_T_0" fill="freeze" attributeName="transform" from="0" to="-360" type="rotate" additive="sum" keyTimes="0;1" values="0;-360" keySplines="0.167 0.167 0.833 0.833" calcMode="spline"/><animateTransform repeatCount="indefinite" dur="15s" begin="0s" xlink:href="#_R_G_L_0_G_D_27_P_0_G_0_T_0" fill="freeze" attributeName="transform" from="-194.553 -173.797" to="-194.553 -173.797" type="translate" additive="sum" keyTimes="0;1" values="-194.553 -173.797;-194.553 -173.797" keySplines="0 0 1 1" calcMode="spline"/><animateTransform repeatCount="indefinite" dur="15s" begin="0s" xlink:href="#_R_G_L_0_G_D_28_P_0_G_0_T_0" fill="freeze" attributeName="transform" from="0" to="-360" type="rotate" additive="sum" keyTimes="0;1" values="0;-360" keySplines="0.167 0.167 0.833 0.833" calcMode="spline"/><animateTransform repeatCount="indefinite" dur="15s" begin="0s" xlink:href="#_R_G_L_0_G_D_28_P_0_G_0_T_0" fill="freeze" attributeName="transform" from="-194.51 -70.155" to="-194.51 -70.155" type="translate" additive="sum" keyTimes="0;1" values="-194.51 -70.155;-194.51 -70.155" keySplines="0 0 1 1" calcMode="spline"/><animateTransform repeatCount="indefinite" dur="15s" begin="0s" xlink:href="#_R_G_L_0_G_D_29_P_0_G_0_T_0" fill="freeze" attributeName="transform" from="0" to="-360" type="rotate" additive="sum" keyTimes="0;1" values="0;-360" keySplines="0.167 0.167 0.833 0.833" calcMode="spline"/><animateTransform repeatCount="indefinite" dur="15s" begin="0s" xlink:href="#_R_G_L_0_G_D_29_P_0_G_0_T_0" fill="freeze" attributeName="transform" from="-194.51 -70.155" to="-194.51 -70.155" type="translate" additive="sum" keyTimes="0;1" values="-194.51 -70.155;-194.51 -70.155" keySplines="0 0 1 1" calcMode="spline"/><animateTransform repeatCount="indefinite" dur="15s" begin="0s" xlink:href="#_R_G_L_0_G_D_30_P_0_G_0_T_0" fill="freeze" attributeName="transform" from="0" to="-360" type="rotate" additive="sum" keyTimes="0;1" values="0;-360" keySplines="0.167 0.167 0.833 0.833" calcMode="spline"/><animateTransform repeatCount="indefinite" dur="15s" begin="0s" xlink:href="#_R_G_L_0_G_D_30_P_0_G_0_T_0" fill="freeze" attributeName="transform" from="-18.069 -173.797" to="-18.069 -173.797" type="translate" additive="sum" keyTimes="0;1" values="-18.069 -173.797;-18.069 -173.797" keySplines="0 0 1 1" calcMode="spline"/><animateTransform repeatCount="indefinite" dur="15s" begin="0s" xlink:href="#_R_G_L_0_G_D_31_P_0_G_0_T_0" fill="freeze" attributeName="transform" from="0" to="-360" type="rotate" additive="sum" keyTimes="0;1" values="0;-360" keySplines="0.167 0.167 0.833 0.833" calcMode="spline"/><animateTransform repeatCount="indefinite" dur="15s" begin="0s" xlink:href="#_R_G_L_0_G_D_31_P_0_G_0_T_0" fill="freeze" attributeName="transform" from="-18.069 -173.797" to="-18.069 -173.797" type="translate" additive="sum" keyTimes="0;1" values="-18.069 -173.797;-18.069 -173.797" keySplines="0 0 1 1" calcMode="spline"/><animateTransform repeatCount="indefinite" dur="15s" begin="0s" xlink:href="#_R_G_L_0_G_D_32_P_0_G_0_T_0" fill="freeze" attributeName="transform" from="0" to="-360" type="rotate" additive="sum" keyTimes="0;1" values="0;-360" keySplines="0.167 0.167 0.833 0.833" calcMode="spline"/><animateTransform repeatCount="indefinite" dur="15s" begin="0s" xlink:href="#_R_G_L_0_G_D_32_P_0_G_0_T_0" fill="freeze" attributeName="transform" from="-18.069 -69.984" to="-18.069 -69.984" type="translate" additive="sum" keyTimes="0;1" values="-18.069 -69.984;-18.069 -69.984" keySplines="0 0 1 1" calcMode="spline"/><animateTransform repeatCount="indefinite" dur="15s" begin="0s" xlink:href="#_R_G_L_0_G_D_33_P_0_G_0_T_0" fill="freeze" attributeName="transform" from="0" to="-360" type="rotate" additive="sum" keyTimes="0;1" values="0;-360" keySplines="0.167 0.167 0.833 0.833" calcMode="spline"/><animateTransform repeatCount="indefinite" dur="15s" begin="0s" xlink:href="#_R_G_L_0_G_D_33_P_0_G_0_T_0" fill="freeze" attributeName="transform" from="-18.069 -69.984" to="-18.069 -69.984" type="translate" additive="sum" keyTimes="0;1" values="-18.069 -69.984;-18.069 -69.984" keySplines="0 0 1 1" calcMode="spline"/><animateTransform repeatCount="indefinite" dur="15s" begin="0s" xlink:href="#_R_G_L_0_G_D_34_P_0_G_0_T_0" fill="freeze" attributeName="transform" from="0" to="-360" type="rotate" additive="sum" keyTimes="0;1" values="0;-360" keySplines="0.167 0.167 0.833 0.833" calcMode="spline"/><animateTransform repeatCount="indefinite" dur="15s" begin="0s" xlink:href="#_R_G_L_0_G_D_34_P_0_G_0_T_0" fill="freeze" attributeName="transform" from="-106.314 -121.891" to="-106.314 -121.891" type="translate" additive="sum" keyTimes="0;1" values="-106.314 -121.891;-106.314 -121.891" keySplines="0 0 1 1" calcMode="spline"/><animateTransform repeatCount="indefinite" dur="15s" begin="0s" xlink:href="#_R_G_L_0_G_D_35_P_0_G_0_T_0" fill="freeze" attributeName="transform" from="0" to="-360" type="rotate" additive="sum" keyTimes="0;1" values="0;-360" keySplines="0.167 0.167 0.833 0.833" calcMode="spline"/><animateTransform repeatCount="indefinite" dur="15s" begin="0s" xlink:href="#_R_G_L_0_G_D_35_P_0_G_0_T_0" fill="freeze" attributeName="transform" from="-106.314 -121.891" to="-106.314 -121.891" type="translate" additive="sum" keyTimes="0;1" values="-106.314 -121.891;-106.314 -121.891" keySplines="0 0 1 1" calcMode="spline"/><animateTransform repeatCount="indefinite" dur="15s" begin="0s" xlink:href="#_R_G_L_0_G_D_36_P_0_G_0_T_0" fill="freeze" attributeName="transform" from="0" to="-360" type="rotate" additive="sum" keyTimes="0;1" values="0;-360" keySplines="0.167 0.167 0.833 0.833" calcMode="spline"/><animateTransform repeatCount="indefinite" dur="15s" begin="0s" xlink:href="#_R_G_L_0_G_D_36_P_0_G_0_T_0" fill="freeze" attributeName="transform" from="-106.314 -18.077" to="-106.314 -18.077" type="translate" additive="sum" keyTimes="0;1" values="-106.314 -18.077;-106.314 -18.077" keySplines="0 0 1 1" calcMode="spline"/><animateTransform repeatCount="indefinite" dur="15s" begin="0s" xlink:href="#_R_G_L_0_G_D_37_P_0_G_0_T_0" fill="freeze" attributeName="transform" from="0" to="-360" type="rotate" additive="sum" keyTimes="0;1" values="0;-360" keySplines="0.167 0.167 0.833 0.833" calcMode="spline"/><animateTransform repeatCount="indefinite" dur="15s" begin="0s" xlink:href="#_R_G_L_0_G_D_37_P_0_G_0_T_0" fill="freeze" attributeName="transform" from="-106.314 -18.077" to="-106.314 -18.077" type="translate" additive="sum" keyTimes="0;1" values="-106.314 -18.077;-106.314 -18.077" keySplines="0 0 1 1" calcMode="spline"/><animateTransform repeatCount="indefinite" dur="15s" begin="0s" xlink:href="#_R_G_L_0_G" fill="freeze" attributeName="transform" from="0" to="360" type="rotate" additive="sum" keyTimes="0;1" values="0;360" keySplines="0.167 0.167 0.833 0.833" calcMode="spline"/><animateTransform repeatCount="indefinite" dur="15s" begin="0s" xlink:href="#_R_G_L_0_G" fill="freeze" attributeName="transform" from="-106.314 -121.891" to="-106.314 -121.891" type="translate" additive="sum" keyTimes="0;1" values="-106.314 -121.891;-106.314 -121.891" keySplines="0 0 1 1" calcMode="spline"/><animate attributeType="XML" attributeName="opacity" dur="15s" from="0" to="1" xlink:href="#time_group"/></defs><g id="_R_G"><g id="_R_G_L_1_G" transform=" translate(735.111, 496.48) translate(-184.334, -160.335)"><path id="_R_G_L_1_G_D_0_P_0" fill="#8269ff" fill-opacity="1" fill-rule="nonzero" d=" M338.6 105.65 C311.95,66.5 265.26,60.24 236.97,64.31 C208.69,68.37 177.31,66.51 153.11,34.87 C128.91,3.22 85.28,0.25 61.35,25.74 C35.47,53.29 0.25,120.27 47.23,198.15 C77.17,247.77 122.9,280.32 162.58,297.24 C202.26,314.16 235.39,320.42 255.15,303.54 C274.91,286.66 263.41,267.39 259.37,258.74 C255.32,250.09 249.11,224.56 294.53,215.42 C348.62,204.54 368.42,149.42 338.6,105.65z "/><path id="_R_G_L_1_G_D_1_P_0" fill="#8269ff" fill-opacity="1" fill-rule="nonzero" d=" M305.23 251.59 C305.23,259.44 298.86,265.82 291,265.82 C283.14,265.82 276.77,259.44 276.77,251.59 C276.77,243.72 283.14,237.35 291,237.35 C298.86,237.35 305.23,243.72 305.23,251.59z "/><path id="_R_G_L_1_G_D_2_P_0" fill="#8269ff" fill-opacity="1" fill-rule="nonzero" d=" M230.6 38.03 C230.6,43.13 226.47,47.26 221.37,47.26 C216.27,47.26 212.14,43.13 212.14,38.03 C212.14,32.94 216.27,28.8 221.37,28.8 C226.47,28.8 230.6,32.94 230.6,38.03z "/></g><g id="_R_G_L_0_G" transform=" translate(731.285, 500.075)"><path id="_R_G_L_0_G_D_0_P_0" fill="#000000" fill-opacity="1" fill-rule="nonzero" d=" M32.69 70.06 C32.69,70.06 179.16,70.06 179.16,70.06 "/><path id="_R_G_L_0_G_D_1_P_0" stroke="#ffffff" stroke-linecap="round" stroke-linejoin="round" fill="none" stroke-width="1" stroke-opacity="1" d=" M32.69 70.06 C32.69,70.06 179.16,70.06 179.16,70.06 "/><path id="_R_G_L_0_G_D_2_P_0" fill="#000000" fill-opacity="1" fill-rule="nonzero" d=" M106.23 33 C106.23,33 106.23,106.13 106.23,106.13 "/><path id="_R_G_L_0_G_D_3_P_0" stroke="#ffffff" stroke-linecap="round" stroke-linejoin="round" fill="none" stroke-width="1" stroke-opacity="1" d=" M106.23 33 C106.23,33 106.23,106.13 106.23,106.13 "/><path id="_R_G_L_0_G_D_4_P_0" fill="#000000" fill-opacity="1" fill-rule="nonzero" d=" M119.65 129.97 C119.65,129.97 180.96,166.04 180.96,166.04 "/><path id="_R_G_L_0_G_D_5_P_0" stroke="#ffffff" stroke-linecap="round" stroke-linejoin="round" fill="none" stroke-width="1" stroke-opacity="1" d=" M119.65 129.97 C119.65,129.97 180.96,166.04 180.96,166.04 "/><path id="_R_G_L_0_G_D_6_P_0" fill="#000000" fill-opacity="1" fill-rule="nonzero" d=" M92.9 129.67 C92.9,129.67 31.99,165.83 31.99,165.83 "/><path id="_R_G_L_0_G_D_7_P_0" stroke="#ffffff" stroke-linecap="round" stroke-linejoin="round" fill="none" stroke-width="1" stroke-opacity="1" d=" M92.9 129.67 C92.9,129.67 31.99,165.83 31.99,165.83 "/><path id="_R_G_L_0_G_D_8_P_0" fill="#000000" fill-opacity="1" fill-rule="nonzero" d=" M25.58 83.29 C25.58,83.29 98.71,212.42 98.71,212.42 "/><path id="_R_G_L_0_G_D_9_P_0" stroke="#ffffff" stroke-linecap="round" stroke-linejoin="round" fill="none" stroke-width="1" stroke-opacity="1" d=" M25.58 83.29 C25.58,83.29 98.71,212.42 98.71,212.42 "/><path id="_R_G_L_0_G_D_10_P_0" fill="#000000" fill-opacity="1" fill-rule="nonzero" d=" M17.77 85.19 C17.77,85.19 17.77,157.92 17.77,157.92 "/><path id="_R_G_L_0_G_D_11_P_0" stroke="#ffffff" stroke-linecap="round" stroke-linejoin="round" fill="none" stroke-width="1" stroke-opacity="1" d=" M17.77 85.19 C17.77,85.19 17.77,157.92 17.77,157.92 "/><path id="_R_G_L_0_G_D_12_P_0" fill="#000000" fill-opacity="1" fill-rule="nonzero" d=" M31.19 181.76 C31.19,181.76 92.8,218.13 92.8,218.13 "/><path id="_R_G_L_0_G_D_13_P_0" stroke="#ffffff" stroke-linecap="round" stroke-linejoin="round" fill="none" stroke-width="1" stroke-opacity="1" d=" M31.19 181.76 C31.19,181.76 92.8,218.13 92.8,218.13 "/><path id="_R_G_L_0_G_D_14_P_0" fill="#000000" fill-opacity="1" fill-rule="nonzero" d=" M119.75 217.93 C119.75,217.93 181.26,181.76 181.26,181.76 "/><path id="_R_G_L_0_G_D_15_P_0" stroke="#ffffff" stroke-linecap="round" stroke-linejoin="round" fill="none" stroke-width="1" stroke-opacity="1" d=" M119.75 217.93 C119.75,217.93 181.26,181.76 181.26,181.76 "/><path id="_R_G_L_0_G_D_16_P_0" fill="#000000" fill-opacity="1" fill-rule="nonzero" d=" M194.39 85.39 C194.39,85.39 194.39,158.12 194.39,158.12 "/><path id="_R_G_L_0_G_D_17_P_0" stroke="#ffffff" stroke-linecap="round" stroke-linejoin="round" fill="none" stroke-width="1" stroke-opacity="1" d=" M194.39 85.39 C194.39,85.39 194.39,158.12 194.39,158.12 "/><path id="_R_G_L_0_G_D_18_P_0" fill="#000000" fill-opacity="1" fill-rule="nonzero" d=" M114.14 212.12 C114.14,212.12 187.17,83.29 187.17,83.29 "/><path id="_R_G_L_0_G_D_19_P_0" stroke="#ffffff" stroke-linecap="round" stroke-linejoin="round" fill="none" stroke-width="1" stroke-opacity="1" d=" M114.14 212.12 C114.14,212.12 187.17,83.29 187.17,83.29 "/><path id="_R_G_L_0_G_D_20_P_0" fill="#000000" fill-opacity="1" fill-rule="nonzero" d=" M119.55 25.98 C119.55,25.98 180.86,62.05 180.86,62.05 "/><path id="_R_G_L_0_G_D_21_P_0" stroke="#ffffff" stroke-linecap="round" stroke-linejoin="round" fill="none" stroke-width="1" stroke-opacity="1" d=" M119.55 25.98 C119.55,25.98 180.86,62.05 180.86,62.05 "/><path id="_R_G_L_0_G_D_22_P_0" fill="#000000" fill-opacity="1" fill-rule="nonzero" d=" M92.8 26.38 C92.8,26.38 31.69,61.95 31.69,61.95 "/><path id="_R_G_L_0_G_D_23_P_0" stroke="#ffffff" stroke-linecap="round" stroke-linejoin="round" fill="none" stroke-width="1" stroke-opacity="1" d=" M92.8 26.38 C92.8,26.38 31.69,61.95 31.69,61.95 "/><g id="_R_G_L_0_G_D_24_P_0_G_0_T_0" transform=" translate(106.167, 225.704)"><g id="_R_G_L_0_G_D_24_P_0_G_1_T_0" transform=" translate(106.314, 225.704) translate(0, 0)"><path id="_R_G_L_0_G_D_24_P_0" fill="#ffffff" fill-opacity="1" fill-rule="nonzero" d=" M15.57 0 C15.57,8.6 8.6,15.58 0,15.58 C-8.6,15.58 -15.57,8.6 -15.57,0 C-15.57,-8.6 -8.6,-15.57 0,-15.57 C8.6,-15.57 15.57,-8.6 15.57,0z "/></g></g><g id="_R_G_L_0_G_D_25_P_0_G_0_T_0" transform=" translate(106.167, 225.704)"><g id="_R_G_L_0_G_D_25_P_0_G_1_T_0" transform=" translate(105.094, 226.666) translate(0, 0)"><path id="_R_G_L_0_G_D_25_P_0" fill="#000000" fill-opacity="1" fill-rule="nonzero" d=" M4.35 10.41 C-3.94,10.41 -10.66,3.69 -10.66,-4.6 C-10.66,-8.4 -9.23,-11.87 -6.9,-14.51 C-11.53,-11.81 -14.64,-6.8 -14.64,-1.06 C-14.64,7.54 -7.68,14.51 0.93,14.51 C6.86,14.51 12.02,11.19 14.64,6.3 C11.96,8.84 8.34,10.41 4.35,10.41z "/></g></g><g id="_R_G_L_0_G_D_26_P_0_G_0_T_0" transform=" translate(194.553, 173.797)"><g id="_R_G_L_0_G_D_26_P_0_G_1_T_0" transform=" translate(194.553, 173.797) translate(0, 0)"><path id="_R_G_L_0_G_D_26_P_0" fill="#ffffff" fill-opacity="1" fill-rule="nonzero" d=" M15.58 0 C15.58,8.6 8.61,15.57 0.01,15.57 C-8.61,15.57 -15.58,8.6 -15.58,0 C-15.58,-8.6 -8.61,-15.57 0.01,-15.57 C8.61,-15.57 15.58,-8.6 15.58,0z "/></g></g><g id="_R_G_L_0_G_D_27_P_0_G_0_T_0" transform=" translate(194.553, 173.797)"><g id="_R_G_L_0_G_D_27_P_0_G_1_T_0" transform=" translate(193.726, 174.717) translate(0, 0)"><path id="_R_G_L_0_G_D_27_P_0" fill="#000000" fill-opacity="1" fill-rule="nonzero" d=" M4.35 10.41 C-3.94,10.41 -10.66,3.69 -10.66,-4.6 C-10.66,-8.4 -9.23,-11.87 -6.9,-14.51 C-11.53,-11.81 -14.64,-6.8 -14.64,-1.06 C-14.64,7.54 -7.68,14.51 0.93,14.51 C6.86,14.51 12.02,11.19 14.64,6.3 C11.96,8.84 8.34,10.41 4.35,10.41z "/></g></g><g id="_R_G_L_0_G_D_28_P_0_G_0_T_0" transform=" translate(194.51, 70.155)"><g id="_R_G_L_0_G_D_28_P_0_G_1_T_0" transform=" translate(194.553, 69.984) translate(0, 0)"><path id="_R_G_L_0_G_D_28_P_0" fill="#ffffff" fill-opacity="1" fill-rule="nonzero" d=" M15.58 0 C15.58,8.6 8.61,15.58 0.01,15.58 C-8.61,15.58 -15.58,8.6 -15.58,0 C-15.58,-8.6 -8.61,-15.57 0.01,-15.57 C8.61,-15.57 15.58,-8.6 15.58,0z "/></g></g><g id="_R_G_L_0_G_D_29_P_0_G_0_T_0" transform=" translate(194.51, 70.155)"><g id="_R_G_L_0_G_D_29_P_0_G_1_T_0" transform=" translate(193.536, 71.388) translate(0, 0)"><path id="_R_G_L_0_G_D_29_P_0" fill="#000000" fill-opacity="1" fill-rule="nonzero" d=" M4.35 10.41 C-3.94,10.41 -10.66,3.69 -10.66,-4.6 C-10.66,-8.4 -9.23,-11.87 -6.9,-14.51 C-11.53,-11.81 -14.64,-6.81 -14.64,-1.06 C-14.64,7.54 -7.68,14.51 0.93,14.51 C6.86,14.51 12.02,11.19 14.64,6.3 C11.96,8.84 8.34,10.41 4.35,10.41z "/></g></g><g id="_R_G_L_0_G_D_30_P_0_G_0_T_0" transform=" translate(18.069, 173.797)"><g id="_R_G_L_0_G_D_30_P_0_G_1_T_0" transform=" translate(18.069, 173.797) translate(0, 0)"><path id="_R_G_L_0_G_D_30_P_0" fill="#ffffff" fill-opacity="1" fill-rule="nonzero" d=" M15.57 0 C15.57,8.6 8.6,15.57 0,15.57 C-8.6,15.57 -15.57,8.6 -15.57,0 C-15.57,-8.6 -8.6,-15.57 0,-15.57 C8.6,-15.57 15.57,-8.6 15.57,0z "/></g></g><g id="_R_G_L_0_G_D_31_P_0_G_0_T_0" transform=" translate(18.069, 173.797)"><g id="_R_G_L_0_G_D_31_P_0_G_1_T_0" transform=" translate(17.827, 174.717) translate(0, 0)"><path id="_R_G_L_0_G_D_31_P_0" fill="#000000" fill-opacity="1" fill-rule="nonzero" d=" M4.35 10.41 C-3.94,10.41 -10.66,3.69 -10.66,-4.6 C-10.66,-8.4 -9.23,-11.87 -6.9,-14.51 C-11.52,-11.81 -14.64,-6.8 -14.64,-1.06 C-14.64,7.54 -7.68,14.51 0.93,14.51 C6.86,14.51 12.02,11.19 14.65,6.3 C11.96,8.84 8.34,10.41 4.35,10.41z "/></g></g><g id="_R_G_L_0_G_D_32_P_0_G_0_T_0" transform=" translate(18.069, 69.984)"><g id="_R_G_L_0_G_D_32_P_0_G_1_T_0" transform=" translate(18.069, 69.984) translate(0, 0)"><path id="_R_G_L_0_G_D_32_P_0" fill="#ffffff" fill-opacity="1" fill-rule="nonzero" d=" M15.57 0 C15.57,8.6 8.6,15.58 0,15.58 C-8.6,15.58 -15.57,8.6 -15.57,0 C-15.57,-8.6 -8.6,-15.57 0,-15.57 C8.6,-15.57 15.57,-8.6 15.57,0z "/></g></g><g id="_R_G_L_0_G_D_33_P_0_G_0_T_0" transform=" translate(18.069, 69.984)"><g id="_R_G_L_0_G_D_33_P_0_G_1_T_0" transform=" translate(17.144, 71.046) translate(0, 0)"><path id="_R_G_L_0_G_D_33_P_0" fill="#000000" fill-opacity="1" fill-rule="nonzero" d=" M4.35 10.41 C-3.94,10.41 -10.66,3.69 -10.66,-4.6 C-10.66,-8.4 -9.23,-11.87 -6.9,-14.51 C-11.53,-11.81 -14.64,-6.81 -14.64,-1.06 C-14.64,7.54 -7.68,14.51 0.93,14.51 C6.86,14.51 12.02,11.19 14.64,6.3 C11.96,8.84 8.34,10.41 4.35,10.41z "/></g></g><g id="_R_G_L_0_G_D_34_P_0_G_0_T_0" transform=" translate(106.314, 121.891)"><g id="_R_G_L_0_G_D_34_P_0_G_1_T_0" transform=" translate(106.314, 121.891) translate(0, 0)"><path id="_R_G_L_0_G_D_34_P_0" fill="#ffffff" fill-opacity="1" fill-rule="nonzero" d=" M15.57 0 C15.57,8.6 8.6,15.57 0,15.57 C-8.6,15.57 -15.57,8.6 -15.57,0 C-15.57,-8.6 -8.6,-15.57 0,-15.57 C8.6,-15.57 15.57,-8.6 15.57,0z "/></g></g><g id="_R_G_L_0_G_D_35_P_0_G_0_T_0" transform=" translate(106.314, 121.891)"><g id="_R_G_L_0_G_D_35_P_0_G_1_T_0" transform=" translate(105.435, 122.881) translate(0, 0)"><path id="_R_G_L_0_G_D_35_P_0" fill="#000000" fill-opacity="1" fill-rule="nonzero" d=" M4.35 10.41 C-3.94,10.41 -10.66,3.69 -10.66,-4.6 C-10.66,-8.4 -9.23,-11.87 -6.9,-14.51 C-11.53,-11.81 -14.64,-6.8 -14.64,-1.06 C-14.64,7.54 -7.68,14.51 0.93,14.51 C6.86,14.51 12.02,11.19 14.64,6.3 C11.96,8.84 8.34,10.41 4.35,10.41z "/></g></g><g id="_R_G_L_0_G_D_36_P_0_G_0_T_0" transform=" translate(106.314, 18.077)"><g id="_R_G_L_0_G_D_36_P_0_G_1_T_0" transform=" translate(106.314, 18.077) translate(0, 0)"><path id="_R_G_L_0_G_D_36_P_0" fill="#ffffff" fill-opacity="1" fill-rule="nonzero" d=" M15.57 0 C15.57,8.6 8.6,15.58 0,15.58 C-8.6,15.58 -15.57,8.6 -15.57,0 C-15.57,-8.6 -8.6,-15.58 0,-15.58 C8.6,-15.58 15.57,-8.6 15.57,0z "/></g></g><g id="_R_G_L_0_G_D_37_P_0_G_0_T_0" transform=" translate(106.314, 18.077)"><g id="_R_G_L_0_G_D_37_P_0_G_1_T_0" transform=" translate(105.739, 19.135) translate(0, 0)"><path id="_R_G_L_0_G_D_37_P_0" fill="#000000" fill-opacity="1" fill-rule="nonzero" d=" M4.35 10.41 C-3.94,10.41 -10.66,3.69 -10.66,-4.6 C-10.66,-8.4 -9.23,-11.87 -6.9,-14.51 C-11.53,-11.81 -14.64,-6.8 -14.64,-1.06 C-14.64,7.54 -7.68,14.51 0.93,14.51 C6.86,14.51 12.02,11.19 14.64,6.3 C11.96,8.84 8.34,10.41 4.35,10.41z "/></g></g><path id="_R_G_L_0_G_D_38_P_0" stroke="#000000" stroke-linecap="round" stroke-linejoin="round" fill="none" stroke-width="2" stroke-opacity="1" d=" M121.88 225.7 C121.88,234.31 114.92,241.28 106.31,241.28 C97.71,241.28 90.74,234.31 90.74,225.7 C90.74,217.11 97.71,210.13 106.31,210.13 C114.92,210.13 121.88,217.11 121.88,225.7z  M210.13 173.8 C210.13,182.4 203.16,189.37 194.56,189.37 C185.95,189.37 178.98,182.4 178.98,173.8 C178.98,165.2 185.95,158.22 194.56,158.22 C203.16,158.22 210.13,165.2 210.13,173.8z  M33.64 173.8 C33.64,182.4 26.67,189.37 18.07,189.37 C9.47,189.37 2.5,182.4 2.5,173.8 C2.5,165.2 9.47,158.22 18.07,158.22 C26.67,158.22 33.64,165.2 33.64,173.8z  M210.13 69.99 C210.13,78.58 203.16,85.56 194.56,85.56 C185.95,85.56 178.98,78.58 178.98,69.99 C178.98,61.39 185.95,54.41 194.56,54.41 C203.16,54.41 210.13,61.39 210.13,69.99z  M33.64 69.99 C33.64,78.58 26.67,85.56 18.07,85.56 C9.47,85.56 2.5,78.58 2.5,69.99 C2.5,61.39 9.47,54.41 18.07,54.41 C26.67,54.41 33.64,61.39 33.64,69.99z  M121.88 18.08 C121.88,26.68 114.92,33.65 106.31,33.65 C97.71,33.65 90.74,26.68 90.74,18.08 C90.74,9.48 97.71,2.5 106.31,2.5 C114.92,2.5 121.88,9.48 121.88,18.08z  M121.88 121.89 C121.88,130.49 114.92,137.47 106.31,137.47 C97.71,137.47 90.74,130.49 90.74,121.89 C90.74,113.29 97.71,106.32 106.31,106.32 C114.92,106.32 121.88,113.29 121.88,121.89z "/></g></g><g id="time_group"/></svg>