<svg version="1.2" baseProfile="tiny-ps" xmlns="http://www.w3.org/2000/svg" viewBox="0 0 512 512" width="512" height="512">
	<title>menu-svg</title>
	<style>
		tspan { white-space:pre }
		.shp0 { fill: #001824 } 
		.shp1 { fill: #00dfe6 } 
	</style>
	<g id="Layer">
		<path id="Layer" class="shp0" d="M479.18 91.9L32.82 91.9C14.69 91.9 0 77.21 0 59.08C0 40.95 14.69 26.26 32.82 26.26L479.18 26.26C497.31 26.26 512 40.95 512 59.08C512 77.21 497.31 91.9 479.18 91.9Z" />
		<path id="Layer" class="shp0" d="M295.38 288.82L32.82 288.82C14.69 288.82 0 274.13 0 256C0 237.87 14.69 223.18 32.82 223.18L295.38 223.18C313.51 223.18 328.21 237.87 328.21 256C328.21 274.13 313.51 288.82 295.38 288.82Z" />
	</g>
	<path id="Layer" class="shp1" d="M479.18 288.82L426.67 288.82C408.54 288.82 393.85 274.13 393.85 256C393.85 237.87 408.54 223.18 426.67 223.18L479.18 223.18C497.31 223.18 512 237.87 512 256C512 274.13 497.31 288.82 479.18 288.82Z" />
	<path id="Layer" class="shp0" d="M479.18 485.74L32.82 485.74C14.69 485.74 0 471.05 0 452.92C0 434.79 14.69 420.1 32.82 420.1L479.18 420.1C497.31 420.1 512 434.79 512 452.92C512 471.05 497.31 485.74 479.18 485.74Z" />
	<g id="Layer">
	</g>
	<g id="Layer">
	</g>
	<g id="Layer">
	</g>
	<g id="Layer">
	</g>
	<g id="Layer">
	</g>
	<g id="Layer">
	</g>
	<g id="Layer">
	</g>
	<g id="Layer">
	</g>
	<g id="Layer">
	</g>
	<g id="Layer">
	</g>
	<g id="Layer">
	</g>
	<g id="Layer">
	</g>
	<g id="Layer">
	</g>
	<g id="Layer">
	</g>
	<g id="Layer">
	</g>
</svg>