<svg xmlns="http://www.w3.org/2000/svg" xmlns:xlink="http://www.w3.org/1999/xlink" preserveAspectRatio="xMidYMid meet" width="1920" height="1080" viewBox="0 0 1920 1080" style="width:100%;height:100%"><defs><animate repeatCount="indefinite" dur="15s" begin="0s" xlink:href="#_R_G_L_4_G_D_0_P_0" fill="freeze" attributeName="d" attributeType="XML" from="M563.4 73.04 C466.06,45.04 404.2,125.12 216.13,111.77 C0.25,96.45 52.45,315.33 236.77,411.21 C435.02,514.34 629.89,518.01 662.37,290.9 C662.19,290.84 692.73,110.23 563.4,73.04z " to="M563.4 73.04 C466.06,45.04 404.2,125.12 216.13,111.77 C0.25,96.45 52.45,315.33 236.77,411.21 C435.02,514.34 629.89,518.01 662.37,290.9 C662.19,290.84 692.73,110.23 563.4,73.04z " keyTimes="0;0.5013333;1" values="M563.4 73.04 C466.06,45.04 404.2,125.12 216.13,111.77 C0.25,96.45 52.45,315.33 236.77,411.21 C435.02,514.34 629.89,518.01 662.37,290.9 C662.19,290.84 692.73,110.23 563.4,73.04z ;M551.4 96.04 C460.2,28.71 396.06,96.42 293.13,84.77 C78.08,60.43 48.06,329.42 180.77,456.21 C342.34,610.59 604.06,512.42 623.37,357.9 C623.19,357.84 667.06,181.42 551.4,96.04z ;M563.4 73.04 C466.06,45.04 404.2,125.12 216.13,111.77 C0.25,96.45 52.45,315.33 236.77,411.21 C435.02,514.34 629.89,518.01 662.37,290.9 C662.19,290.84 692.73,110.23 563.4,73.04z " keySplines="0.167 0.167 0.667 1;0.333 0 0.833 0.833" calcMode="spline"/><animateMotion repeatCount="indefinite" dur="15s" begin="0s" xlink:href="#_R_G_L_2_G" fill="freeze" keyTimes="0;0.0627547;0.1255093;0.1882667;0.248512;0.3112667;0.3765307;0.439288;0.5020453;0.5648027;0.6275547;0.6903093;0.7530667;0.815824;0.8785787;0.9413333;1" path="M951.99 528.86 C951.99,527.19 951.99,518.86 951.99,518.86 C951.99,518.86 951.99,528.86 951.99,528.86 C951.99,528.86 951.99,518.86 951.99,518.86 C951.99,518.86 951.99,528.86 951.99,528.86 C951.99,528.86 951.99,518.86 951.99,518.86 C951.99,518.86 951.99,528.86 951.99,528.86 C951.99,528.86 951.99,518.86 951.99,518.86 C951.99,518.86 951.99,528.86 951.99,528.86 C951.99,528.86 951.99,518.86 951.99,518.86 C951.99,518.86 951.99,528.86 951.99,528.86 C951.99,528.86 951.99,518.86 951.99,518.86 C951.99,518.86 951.99,528.86 951.99,528.86 C951.99,528.86 951.99,518.86 951.99,518.86 C951.99,518.86 951.99,528.86 951.99,528.86 C951.99,528.86 951.99,518.86 951.99,518.86 C951.99,518.86 951.99,527.19 951.99,528.86 " keyPoints="0;0.06;0.13;0.19;0.25;0.31;0.38;0.44;0.5;0.56;0.63;0.69;0.75;0.81;0.88;0.94;1" keySplines="0.167 0.167 0.667 1;0.333 0 0.833 0.833;0.167 0.167 0.667 1;0.333 0 0.833 0.837;0.167 0.17 0.667 1;0.333 0 0.833 0.83;0.167 0.163 0.667 1;0.333 0 0.833 0.833;0.167 0.167 0.667 1;0.333 0 0.833 0.833;0.167 0.167 0.667 1;0.333 0 0.833 0.833;0.167 0.167 0.667 1;0.333 0 0.833 0.833;0.167 0.167 0.667 1;0.167 0 0.833 0.833" calcMode="spline"/><animateTransform repeatCount="indefinite" dur="15s" begin="0s" xlink:href="#_R_G_L_2_G" fill="freeze" attributeName="transform" from="-48.744 -49.159" to="-48.744 -49.159" type="translate" additive="sum" keyTimes="0;1" values="-48.744 -49.159;-48.744 -49.159" keySplines="0 0 1 1" calcMode="spline"/><animateTransform repeatCount="indefinite" dur="15s" begin="0s" xlink:href="#_R_G_L_1_G_D_5_P_0_G_0_T_0" fill="freeze" attributeName="transform" from="0" to="360" type="rotate" additive="sum" keyTimes="0;1" values="0;360" keySplines="0.167 0.167 0.833 0.833" calcMode="spline"/><animateTransform repeatCount="indefinite" dur="15s" begin="0s" xlink:href="#_R_G_L_1_G_D_5_P_0_G_0_T_0" fill="freeze" attributeName="transform" from="-48.596 -50.648" to="-48.596 -50.648" type="translate" additive="sum" keyTimes="0;1" values="-48.596 -50.648;-48.596 -50.648" keySplines="0 0 1 1" calcMode="spline"/><animateTransform repeatCount="indefinite" dur="15s" begin="0s" xlink:href="#_R_G_L_1_G_D_6_P_0_G_0_T_0" fill="freeze" attributeName="transform" from="0" to="360" type="rotate" additive="sum" keyTimes="0;1" values="0;360" keySplines="0.167 0.167 0.833 0.833" calcMode="spline"/><animateTransform repeatCount="indefinite" dur="15s" begin="0s" xlink:href="#_R_G_L_1_G_D_6_P_0_G_0_T_0" fill="freeze" attributeName="transform" from="-48.596 -50.648" to="-48.596 -50.648" type="translate" additive="sum" keyTimes="0;1" values="-48.596 -50.648;-48.596 -50.648" keySplines="0 0 1 1" calcMode="spline"/><animateTransform repeatCount="indefinite" dur="15s" begin="0s" xlink:href="#_R_G_L_1_G_D_7_P_0_G_0_T_0" fill="freeze" attributeName="transform" from="0" to="360" type="rotate" additive="sum" keyTimes="0;1" values="0;360" keySplines="0.167 0.167 0.833 0.833" calcMode="spline"/><animateTransform repeatCount="indefinite" dur="15s" begin="0s" xlink:href="#_R_G_L_1_G_D_7_P_0_G_0_T_0" fill="freeze" attributeName="transform" from="-48.596 -50.648" to="-48.596 -50.648" type="translate" additive="sum" keyTimes="0;1" values="-48.596 -50.648;-48.596 -50.648" keySplines="0 0 1 1" calcMode="spline"/><animateTransform repeatCount="indefinite" dur="15s" begin="0s" xlink:href="#_R_G_L_1_G_D_8_P_0_G_0_T_0" fill="freeze" attributeName="transform" from="0" to="360" type="rotate" additive="sum" keyTimes="0;1" values="0;360" keySplines="0.167 0.167 0.833 0.833" calcMode="spline"/><animateTransform repeatCount="indefinite" dur="15s" begin="0s" xlink:href="#_R_G_L_1_G_D_8_P_0_G_0_T_0" fill="freeze" attributeName="transform" from="-48.596 -50.648" to="-48.596 -50.648" type="translate" additive="sum" keyTimes="0;1" values="-48.596 -50.648;-48.596 -50.648" keySplines="0 0 1 1" calcMode="spline"/><animateTransform repeatCount="indefinite" dur="15s" begin="0s" xlink:href="#_R_G_L_1_G_D_9_P_0_G_0_T_0" fill="freeze" attributeName="transform" from="0" to="360" type="rotate" additive="sum" keyTimes="0;1" values="0;360" keySplines="0.167 0.167 0.833 0.833" calcMode="spline"/><animateTransform repeatCount="indefinite" dur="15s" begin="0s" xlink:href="#_R_G_L_1_G_D_9_P_0_G_0_T_0" fill="freeze" attributeName="transform" from="-48.596 -50.648" to="-48.596 -50.648" type="translate" additive="sum" keyTimes="0;1" values="-48.596 -50.648;-48.596 -50.648" keySplines="0 0 1 1" calcMode="spline"/><animateTransform repeatCount="indefinite" dur="15s" begin="0s" xlink:href="#_R_G_L_1_G_D_10_P_0_G_0_T_0" fill="freeze" attributeName="transform" from="0" to="360" type="rotate" additive="sum" keyTimes="0;1" values="0;360" keySplines="0.167 0.167 0.833 0.833" calcMode="spline"/><animateTransform repeatCount="indefinite" dur="15s" begin="0s" xlink:href="#_R_G_L_1_G_D_10_P_0_G_0_T_0" fill="freeze" attributeName="transform" from="-48.596 -50.648" to="-48.596 -50.648" type="translate" additive="sum" keyTimes="0;1" values="-48.596 -50.648;-48.596 -50.648" keySplines="0 0 1 1" calcMode="spline"/><animateTransform repeatCount="indefinite" dur="15s" begin="0s" xlink:href="#_R_G_L_1_G_D_11_P_0_G_0_T_0" fill="freeze" attributeName="transform" from="0" to="360" type="rotate" additive="sum" keyTimes="0;1" values="0;360" keySplines="0.167 0.167 0.833 0.833" calcMode="spline"/><animateTransform repeatCount="indefinite" dur="15s" begin="0s" xlink:href="#_R_G_L_1_G_D_11_P_0_G_0_T_0" fill="freeze" attributeName="transform" from="-48.596 -50.648" to="-48.596 -50.648" type="translate" additive="sum" keyTimes="0;1" values="-48.596 -50.648;-48.596 -50.648" keySplines="0 0 1 1" calcMode="spline"/><animateTransform repeatCount="indefinite" dur="15s" begin="0s" xlink:href="#_R_G_L_1_G_D_12_P_0_G_0_T_0" fill="freeze" attributeName="transform" from="0" to="360" type="rotate" additive="sum" keyTimes="0;1" values="0;360" keySplines="0.167 0.167 0.833 0.833" calcMode="spline"/><animateTransform repeatCount="indefinite" dur="15s" begin="0s" xlink:href="#_R_G_L_1_G_D_12_P_0_G_0_T_0" fill="freeze" attributeName="transform" from="-48.596 -50.648" to="-48.596 -50.648" type="translate" additive="sum" keyTimes="0;1" values="-48.596 -50.648;-48.596 -50.648" keySplines="0 0 1 1" calcMode="spline"/><animateTransform repeatCount="indefinite" dur="15s" begin="0s" xlink:href="#_R_G_L_0_G" fill="freeze" attributeName="transform" from="0.9500000000000001 0.9500000000000001" to="0.9500000000000001 0.9500000000000001" type="scale" additive="sum" keyTimes="0;0.0622853;0.1255787;0.187864;0.2511573;0.3134427;0.3767333;0.4390213;0.502312;0.5646;0.6278907;0.690176;0.7534693;0.8157547;0.88;0.9413333;1" values="0.9500000000000001 0.9500000000000001;1.05 1.05;0.9500000000000001 0.9500000000000001;1.05 1.05;0.9500000000000001 0.9500000000000001;1.05 1.05;0.9500000000000001 0.9500000000000001;1.05 1.05;0.9500000000000001 0.9500000000000001;1.05 1.05;0.9500000000000001 0.9500000000000001;1.05 1.05;0.9500000000000001 0.9500000000000001;1.05 1.05;0.9500000000000001 0.9500000000000001;1.05 1.05;0.9500000000000001 0.9500000000000001" keySplines="0.333 0 0.667 1;0.333 0 0.667 1;0.333 0 0.667 1;0.333 0 0.667 1;0.333 0 0.667 1;0.333 0 0.667 1;0.333 0 0.667 1;0.333 0 0.667 1;0.333 0 0.667 1;0.333 0 0.667 1;0.333 0 0.667 1;0.333 0 0.667 1;0.333 0 0.667 1;0.333 0 0.667 1;0.333 0 0.667 1;0.167 0 0.667 1" calcMode="spline"/><animateTransform repeatCount="indefinite" dur="15s" begin="0s" xlink:href="#_R_G_L_0_G" fill="freeze" attributeName="transform" from="-41.366 -22.189" to="-41.366 -22.189" type="translate" additive="sum" keyTimes="0;1" values="-41.366 -22.189;-41.366 -22.189" keySplines="0 0 1 1" calcMode="spline"/><animate attributeType="XML" attributeName="opacity" dur="15s" from="0" to="1" xlink:href="#time_group"/></defs><g id="_R_G"><g id="_R_G_L_4_G" transform=" translate(913.426, 513.709) translate(-346.488, -259.13)"><path id="_R_G_L_4_G_D_0_P_0" fill="#8269ff" fill-opacity="1" fill-rule="nonzero" d=" M563.4 73.04 C466.06,45.04 404.2,125.12 216.13,111.77 C0.25,96.45 52.45,315.33 236.77,411.21 C435.02,514.34 629.89,518.01 662.37,290.9 C662.19,290.84 692.73,110.23 563.4,73.04z "/><path id="_R_G_L_4_G_D_1_P_0" fill="#8269ff" fill-opacity="1" fill-rule="nonzero" d=" M278.32 28.43 C278.32,43.99 265.7,56.61 250.14,56.61 C234.57,56.61 221.96,43.99 221.96,28.43 C221.96,12.87 234.57,0.25 250.14,0.25 C265.7,0.25 278.32,12.87 278.32,28.43z "/></g><g id="_R_G_L_3_G" transform=" translate(951.505, 545.71) translate(-203.248, -134.23)"><path id="_R_G_L_3_G_D_0_P_0" fill="#f8f8ff" fill-opacity="1" fill-rule="nonzero" d=" M36.97 205.05 C36.97,205.05 374.39,205.05 374.39,205.05 C374.39,205.05 374.39,4.21 374.39,4.21 C374.39,4.21 36.69,4.15 36.69,4.15 C36.69,4.15 36.6,191.06 36.6,191.06 C36.6,191.06 36.97,205.05 36.97,205.05z "/><path id="_R_G_L_3_G_D_1_P_0" stroke="#000000" stroke-linecap="round" stroke-linejoin="round" fill="none" stroke-width="1.661" stroke-opacity="1" d=" M36.97 205.05 C36.97,205.05 374.39,205.05 374.39,205.05 C374.39,205.05 374.39,4.21 374.39,4.21 C374.39,4.21 36.69,4.15 36.69,4.15 C36.69,4.15 36.6,191.06 36.6,191.06 C36.6,191.06 36.97,205.05 36.97,205.05z "/><path id="_R_G_L_3_G_D_2_P_0" fill="#ffffff" fill-opacity="1" fill-rule="nonzero" d=" M350.87 185.08 C350.87,185.08 60.23,185.08 60.23,185.08 C60.23,185.08 60.23,28.7 60.23,28.7 C60.23,28.7 350.87,28.7 350.87,28.7 C350.87,28.7 350.87,185.08 350.87,185.08z "/><path id="_R_G_L_3_G_D_3_P_0" stroke="#2e2b2c" stroke-linecap="round" stroke-linejoin="round" fill="none" stroke-width="1.661" stroke-opacity="1" d=" M350.87 185.08 C350.87,185.08 60.23,185.08 60.23,185.08 C60.23,185.08 60.23,28.7 60.23,28.7 C60.23,28.7 350.87,28.7 350.87,28.7 C350.87,28.7 350.87,185.08 350.87,185.08z "/><path id="_R_G_L_3_G_D_4_P_0" fill="#fe675e" fill-opacity="1" fill-rule="nonzero" d=" M86.39 185.08 C86.39,185.08 60.23,185.08 60.23,185.08 C60.23,185.08 60.23,28.7 60.23,28.7 C60.23,28.7 86.39,28.7 86.39,28.7 C86.39,28.7 86.39,185.08 86.39,185.08z "/><path id="_R_G_L_3_G_D_5_P_0" stroke="#2e2b2c" stroke-linecap="round" stroke-linejoin="round" fill="none" stroke-width="1.661" stroke-opacity="1" d=" M86.39 185.08 C86.39,185.08 60.23,185.08 60.23,185.08 C60.23,185.08 60.23,28.7 60.23,28.7 C60.23,28.7 86.39,28.7 86.39,28.7 C86.39,28.7 86.39,185.08 86.39,185.08z "/><path id="_R_G_L_3_G_D_6_P_0" fill="#ffffff" fill-opacity="1" fill-rule="nonzero" d=" M36.97 205.05 C36.97,205.05 4.15,238.28 4.15,238.28 C4.15,238.28 402.34,238.28 402.34,238.28 C402.34,238.28 374.39,205.05 374.39,205.05 "/><path id="_R_G_L_3_G_D_7_P_0" stroke="#2e2b2c" stroke-linecap="round" stroke-linejoin="round" fill="none" stroke-width="1.661" stroke-opacity="1" d=" M36.97 205.05 C36.97,205.05 4.15,238.28 4.15,238.28 C4.15,238.28 402.34,238.28 402.34,238.28 C402.34,238.28 374.39,205.05 374.39,205.05 "/><path id="_R_G_L_3_G_D_8_P_0" fill="#000000" fill-opacity="1" fill-rule="nonzero" d=" M4.15 238.28 C4.15,238.28 4.34,268.21 4.34,268.21 C4.34,268.21 401.83,268.21 401.83,268.21 C401.83,268.21 401.28,263.73 402.34,238.28 "/><path id="_R_G_L_3_G_D_9_P_0" stroke="#2e2b2c" stroke-linecap="round" stroke-linejoin="round" fill="none" stroke-width="1.661" stroke-opacity="1" d=" M149.75 237.98 C149.75,237.98 157.14,224.2 157.14,224.2 C157.14,224.2 248.38,224.2 248.38,224.2 C248.38,224.2 255.59,238.29 255.59,238.29 "/><path id="_R_G_L_3_G_D_10_P_0" stroke="#2e2b2c" stroke-linecap="round" stroke-linejoin="round" fill="none" stroke-width="1.661" stroke-opacity="1" d=" M78.34 70.85 C78.34,70.85 78.34,123.38 78.34,123.38 "/><path id="_R_G_L_3_G_D_11_P_0" stroke="#2e2b2c" stroke-linecap="round" stroke-linejoin="round" fill="none" stroke-width="1.661" stroke-opacity="1" d=" M78.34 58.07 C78.34,58.07 78.34,50.02 78.34,50.02 "/><path id="_R_G_L_3_G_D_12_P_0" stroke="#2e2b2c" stroke-linecap="round" stroke-linejoin="round" fill="none" stroke-width="1.661" stroke-opacity="1" d=" M38.22 215 C38.22,215 76.09,215 76.09,215 "/><path id="_R_G_L_3_G_D_13_P_0" stroke="#2e2b2c" stroke-linecap="round" stroke-linejoin="round" fill="none" stroke-width="1.661" stroke-opacity="1" d=" M94.07 215 C94.07,215 102.79,215 102.79,215 "/><path id="_R_G_L_3_G_D_14_P_0" stroke="#2e2b2c" stroke-linecap="round" stroke-linejoin="round" fill="none" stroke-width="1.661" stroke-opacity="1" d=" M120.09 215 C120.09,215 142.84,215 142.84,215 "/><path id="_R_G_L_3_G_D_15_P_0" stroke="#2e2b2c" stroke-linecap="round" stroke-linejoin="round" fill="none" stroke-width="1.661" stroke-opacity="1" d=" M158.53 215 C158.53,215 166.96,215 166.96,215 "/><path id="_R_G_L_3_G_D_16_P_0" stroke="#2e2b2c" stroke-linecap="round" stroke-linejoin="round" fill="none" stroke-width="1.661" stroke-opacity="1" d=" M236.21 215 C236.21,215 274.08,215 274.08,215 "/><path id="_R_G_L_3_G_D_17_P_0" stroke="#2e2b2c" stroke-linecap="round" stroke-linejoin="round" fill="none" stroke-width="1.661" stroke-opacity="1" d=" M292.07 215 C292.07,215 300.78,215 300.78,215 "/><path id="_R_G_L_3_G_D_18_P_0" stroke="#2e2b2c" stroke-linecap="round" stroke-linejoin="round" fill="none" stroke-width="1.661" stroke-opacity="1" d=" M318.07 215 C318.07,215 340.83,215 340.83,215 "/><path id="_R_G_L_3_G_D_19_P_0" stroke="#2e2b2c" stroke-linecap="round" stroke-linejoin="round" fill="none" stroke-width="1.661" stroke-opacity="1" d=" M356.51 215 C356.51,215 364.95,215 364.95,215 "/><path id="_R_G_L_3_G_D_20_P_0" stroke="#2e2b2c" stroke-linecap="round" stroke-linejoin="round" fill="none" stroke-width="1.661" stroke-opacity="1" d=" M279.12 226.32 C279.12,226.32 287.84,226.32 287.84,226.32 "/><path id="_R_G_L_3_G_D_21_P_0" stroke="#2e2b2c" stroke-linecap="round" stroke-linejoin="round" fill="none" stroke-width="1.661" stroke-opacity="1" d=" M305.13 226.32 C305.13,226.32 327.89,226.32 327.89,226.32 "/><path id="_R_G_L_3_G_D_22_P_0" stroke="#2e2b2c" stroke-linecap="round" stroke-linejoin="round" fill="none" stroke-width="1.661" stroke-opacity="1" d=" M343.57 226.32 C343.57,226.32 352.01,226.32 352.01,226.32 "/><path id="_R_G_L_3_G_D_23_P_0" stroke="#2e2b2c" stroke-linecap="round" stroke-linejoin="round" fill="none" stroke-width="1.661" stroke-opacity="1" d=" M52.23 226.32 C52.23,226.32 60.94,226.32 60.94,226.32 "/><path id="_R_G_L_3_G_D_24_P_0" stroke="#2e2b2c" stroke-linecap="round" stroke-linejoin="round" fill="none" stroke-width="1.661" stroke-opacity="1" d=" M78.24 226.32 C78.24,226.32 101,226.32 101,226.32 "/><path id="_R_G_L_3_G_D_25_P_0" stroke="#2e2b2c" stroke-linecap="round" stroke-linejoin="round" fill="none" stroke-width="1.661" stroke-opacity="1" d=" M116.69 226.32 C116.69,226.32 125.12,226.32 125.12,226.32 "/></g><g id="_R_G_L_2_G"><path id="_R_G_L_2_G_D_0_P_0" fill="#000000" fill-opacity="1" fill-rule="nonzero" d=" M0.25 65.49 C0.25,65.49 0.25,32.41 0.25,32.41 C2.11,30.89 3.87,29.2 5.85,27.87 C19.58,18.62 33.36,9.45 47.12,0.25 C47.12,0.25 50.79,0.25 50.79,0.25 C64.59,9.54 78.33,18.93 92.23,28.07 C95.64,30.32 97.24,32.82 97.19,37.03 C97,54.48 97.22,71.93 96.98,89.37 C96.94,91.77 95.75,95.32 94.01,96.2 C92.2,97.12 88.65,96.12 86.6,94.8 C74.87,87.31 63.32,79.54 51.82,71.7 C49.57,70.18 48.05,70.14 45.77,71.69 C34.4,79.46 22.9,87.03 11.44,94.64 C6.27,98.07 4.86,97.96 0.25,93.98 C0.25,93.98 0.25,89.39 0.25,89.39 C1.77,88.16 3.21,86.82 4.83,85.73 C17.78,77.06 30.82,68.53 43.68,59.74 C47.42,57.18 50.45,57.36 54.07,59.87 C62.47,65.71 71.07,71.28 79.59,76.94 C81.54,78.24 83.53,79.5 86.26,81.27 C86.26,76.89 86.04,73.55 86.32,70.25 C86.6,67.04 85.22,65.29 82.66,63.63 C72.29,56.89 61.99,50.03 51.79,43.04 C49.51,41.47 47.96,41.58 45.73,43.1 C34.36,50.83 22.89,58.4 11.44,66.01 C6.28,69.44 4.84,69.35 0.25,65.49z  M11.38 52.69 C22.68,45.17 33.08,38.46 43.21,31.38 C47.24,28.56 50.47,28.7 54.41,31.44 C63.31,37.66 72.42,43.56 81.47,49.56 C82.77,50.43 84.16,51.17 86.26,52.42 C86.26,47.79 86.53,44.12 86.13,40.53 C85.95,38.86 84.85,36.75 83.5,35.82 C72.93,28.53 62.24,21.39 51.43,14.45 C50.16,13.63 47.52,13.49 46.3,14.28 C35.37,21.3 24.58,28.56 13.84,35.87 C12.74,36.61 11.58,38.11 11.49,39.32 C11.2,43.39 11.38,47.49 11.38,52.69z "/></g><g id="_R_G_L_1_G" transform=" translate(944.262, 376.046) scale(1.64, 1.64) translate(-48.116, -49.119)"><path id="_R_G_L_1_G_D_0_P_0" fill="#ffffff" fill-opacity="1" fill-rule="nonzero" d=" M94.08 50.68 C94.08,75.76 73.75,96.08 48.68,96.08 C23.6,96.08 3.28,75.76 3.28,50.68 C3.28,25.61 23.6,5.29 48.68,5.29 C73.75,5.29 94.08,25.61 94.08,50.68z "/><path id="_R_G_L_1_G_D_1_P_0" fill="#fe675e" fill-opacity="1" fill-rule="nonzero" d=" M74.07 88.8 C52.07,100.99 24.36,93.05 12.16,71.05 C-0.03,49.05 7.92,21.33 29.92,9.14 C29.92,9.14 -6.49,23.65 6.45,67.14 C6.45,67.14 17.77,94.01 43.01,95.83 C43.01,95.83 53.24,97.01 59.62,94.95 C65.99,92.9 74.07,88.8 74.07,88.8z "/><path id="_R_G_L_1_G_D_2_P_0" fill="#fe675e" fill-opacity="1" fill-rule="nonzero" d=" M67.81 74.61 C79.95,62.8 80.21,43.31 68.39,31.18 C56.58,19.04 37.09,18.78 24.96,30.6 C24.96,30.6 42.12,11.88 62.66,23.57 C62.66,23.57 82.58,34.38 78.96,54.3 C78.96,54.3 77.74,60.85 76.5,63.32 C75.27,65.78 72.27,70.42 72.27,70.42 C72.27,70.42 67.81,74.61 67.81,74.61z "/><path id="_R_G_L_1_G_D_3_P_0" stroke="#2e2b2c" stroke-linecap="round" stroke-linejoin="round" fill="none" stroke-width="0.862" stroke-opacity="1" d=" M94.08 50.68 C94.08,75.76 73.75,96.08 48.68,96.08 C23.6,96.08 3.28,75.76 3.28,50.68 C3.28,25.61 23.6,5.29 48.68,5.29 C73.75,5.29 94.08,25.61 94.08,50.68z "/><path id="_R_G_L_1_G_D_4_P_0" stroke="#2e2b2c" stroke-linecap="round" stroke-linejoin="round" fill="none" stroke-width="0.862" stroke-opacity="1" d=" M32.45 24.72 C46.77,15.77 65.7,20.14 74.65,34.46 C83.59,48.78 79.22,67.71 64.9,76.66 C50.58,85.6 31.65,81.23 22.71,66.91 C13.76,52.59 18.13,33.66 32.45,24.72z "/><g id="_R_G_L_1_G_D_5_P_0_G_0_T_0" transform=" translate(48.596, 50.648)"><g id="_R_G_L_1_G_D_5_P_0_G_1_T_0"><path id="_R_G_L_1_G_D_5_P_0" stroke="#2e2b2c" stroke-linecap="round" stroke-linejoin="round" fill="none" stroke-width="0.862" stroke-opacity="1" d=" M48.67 4.98 C48.67,4.98 48.67,12.98 48.67,12.98 "/></g></g><g id="_R_G_L_1_G_D_6_P_0_G_0_T_0" transform=" translate(48.596, 50.648)"><g id="_R_G_L_1_G_D_6_P_0_G_1_T_0"><path id="_R_G_L_1_G_D_6_P_0" stroke="#2e2b2c" stroke-linecap="round" stroke-linejoin="round" fill="none" stroke-width="0.862" stroke-opacity="1" d=" M48.77 96.32 C48.77,96.32 48.77,88.25 48.77,88.25 "/></g></g><g id="_R_G_L_1_G_D_7_P_0_G_0_T_0" transform=" translate(48.596, 50.648)"><g id="_R_G_L_1_G_D_7_P_0_G_1_T_0" transform=" translate(78.187, 79.997) translate(0, 0)"><path id="_R_G_L_1_G_D_7_P_0" stroke="#2e2b2c" stroke-linecap="round" stroke-linejoin="round" fill="none" stroke-width="0.862" stroke-opacity="1" d=" M2.82 2.82 C2.82,2.82 -2.82,-2.82 -2.82,-2.82 "/></g></g><g id="_R_G_L_1_G_D_8_P_0_G_0_T_0" transform=" translate(48.596, 50.648)"><g id="_R_G_L_1_G_D_8_P_0_G_1_T_0"><path id="_R_G_L_1_G_D_8_P_0" stroke="#2e2b2c" stroke-linecap="round" stroke-linejoin="round" fill="none" stroke-width="0.862" stroke-opacity="1" d=" M94.01 50.5 C94.01,50.5 86.27,50.5 86.27,50.5 "/></g></g><g id="_R_G_L_1_G_D_9_P_0_G_0_T_0" transform=" translate(48.596, 50.648)"><g id="_R_G_L_1_G_D_9_P_0_G_1_T_0" transform=" translate(77.95, 21.209) translate(0, 0)"><path id="_R_G_L_1_G_D_9_P_0" stroke="#2e2b2c" stroke-linecap="round" stroke-linejoin="round" fill="none" stroke-width="0.862" stroke-opacity="1" d=" M2.74 -2.74 C2.74,-2.74 -2.74,2.74 -2.74,2.74 "/></g></g><g id="_R_G_L_1_G_D_10_P_0_G_0_T_0" transform=" translate(48.596, 50.648)"><g id="_R_G_L_1_G_D_10_P_0_G_1_T_0"><path id="_R_G_L_1_G_D_10_P_0" stroke="#2e2b2c" stroke-linecap="round" stroke-linejoin="round" fill="none" stroke-width="0.862" stroke-opacity="1" d=" M3.18 50.51 C3.18,50.51 11.03,50.51 11.03,50.51 "/></g></g><g id="_R_G_L_1_G_D_11_P_0_G_0_T_0" transform=" translate(48.596, 50.648)"><g id="_R_G_L_1_G_D_11_P_0_G_1_T_0" transform=" translate(19.296, 80.001) translate(0, 0)"><path id="_R_G_L_1_G_D_11_P_0" stroke="#2e2b2c" stroke-linecap="round" stroke-linejoin="round" fill="none" stroke-width="0.862" stroke-opacity="1" d=" M-2.77 2.77 C-2.77,2.77 2.77,-2.77 2.77,-2.77 "/></g></g><g id="_R_G_L_1_G_D_12_P_0_G_0_T_0" transform=" translate(48.596, 50.648)"><g id="_R_G_L_1_G_D_12_P_0_G_1_T_0" transform=" translate(19.128, 21.277) translate(0, 0)"><path id="_R_G_L_1_G_D_12_P_0" stroke="#2e2b2c" stroke-linecap="round" stroke-linejoin="round" fill="none" stroke-width="0.862" stroke-opacity="1" d=" M-2.72 -2.72 C-2.72,-2.72 2.72,2.72 2.72,2.72 "/></g></g></g><g id="_R_G_L_0_G" transform=" translate(944.823, 377.444)"><path id="_R_G_L_0_G_D_0_P_0" fill="#000000" fill-opacity="1" fill-rule="nonzero" d=" M15.35 1.72 C24.51,1.72 30.45,8.34 30.45,21.68 C30.45,31.69 27.28,42.66 15.35,42.66 C3.42,42.66 0.25,31.69 0.25,21.68 C0.25,8.34 6.19,1.72 15.35,1.72z  M15.35 35.88 C19.71,35.88 22.19,32.31 22.19,22.19 C22.19,13.71 20.33,8.5 15.35,8.5 C10.37,8.5 8.51,13.71 8.51,22.19 C8.51,32.31 10.99,35.88 15.35,35.88z "/><path id="_R_G_L_0_G_D_1_P_0" fill="#000000" fill-opacity="1" fill-rule="nonzero" d=" M44.37 1.72 C51.21,1.72 53.87,6.41 53.87,12.52 C53.87,18.63 51.21,23.32 44.37,23.32 C37.53,23.32 34.87,18.63 34.87,12.52 C34.87,6.41 37.53,1.72 44.37,1.72z  M44.37 18.91 C46.97,18.91 47.76,16.14 47.76,12.52 C47.76,9.13 46.97,6.13 44.37,6.13 C41.77,6.13 40.97,9.13 40.97,12.52 C40.97,16.14 41.77,18.91 44.37,18.91z  M66.99 1.83 C67.38,1.1 68.06,0.25 69.19,0.25 C70.44,0.25 71.4,1.21 71.4,2.17 C71.4,2.74 71.17,3.36 70.78,4.09 C70.78,4.09 50.42,42.55 50.42,42.55 C50.02,43.28 49.35,44.13 48.21,44.13 C46.97,44.13 46.01,43.17 46.01,42.21 C46.01,41.64 46.23,41.02 46.63,40.28 C46.63,40.28 66.99,1.83 66.99,1.83z  M72.98 21.06 C79.82,21.06 82.48,25.75 82.48,31.86 C82.48,37.97 79.82,42.66 72.98,42.66 C66.14,42.66 63.48,37.97 63.48,31.86 C63.48,25.75 66.14,21.06 72.98,21.06z  M72.98 38.25 C75.58,38.25 76.37,35.48 76.37,31.86 C76.37,28.47 75.58,25.47 72.98,25.47 C70.38,25.47 69.59,28.47 69.59,31.86 C69.59,35.48 70.38,38.25 72.98,38.25z "/></g></g><g id="time_group"/></svg>