<svg xmlns="http://www.w3.org/2000/svg" xmlns:xlink="http://www.w3.org/1999/xlink" preserveAspectRatio="xMidYMid meet" width="1920" height="1080" viewBox="0 0 1920 1080" style="width:100%;height:100%"><defs><animate repeatCount="indefinite" dur="16.48s" begin="0s" xlink:href="#_R_G_L_11_G_D_0_P_0" fill="freeze" attributeName="d" attributeType="XML" from="M77.74 278.15 C29.02,268.38 0.25,154.55 55.94,77.4 C111.63,0.25 211.33,18.83 293.27,78.03 C353.96,121.87 405.41,178.86 260.04,197.85 C153.31,211.81 136.92,290.01 77.74,278.15z " to="M77.74 278.15 C29.02,268.38 0.25,154.55 55.94,77.4 C111.63,0.25 211.33,18.83 293.27,78.03 C353.96,121.87 405.41,178.86 260.04,197.85 C153.31,211.81 136.92,290.01 77.74,278.15z " keyTimes="0;0.4878641;1" values="M77.74 278.15 C29.02,268.38 0.25,154.55 55.94,77.4 C111.63,0.25 211.33,18.83 293.27,78.03 C353.96,121.87 405.41,178.86 260.04,197.85 C153.31,211.81 136.92,290.01 77.74,278.15z ;M115.24 270.15 C61.82,278.83 28.75,156.55 84.44,79.4 C140.14,2.25 214.83,-7.17 292.27,46.03 C353.98,88.42 413.79,231.27 268.54,211.35 C180.83,199.33 174.82,260.46 115.24,270.15z ;M77.74 278.15 C29.02,268.38 0.25,154.55 55.94,77.4 C111.63,0.25 211.33,18.83 293.27,78.03 C353.96,121.87 405.41,178.86 260.04,197.85 C153.31,211.81 136.92,290.01 77.74,278.15z " keySplines="0.333 0 0.667 1;0.333 0 0.667 1" calcMode="spline"/><animateMotion repeatCount="indefinite" dur="16.48s" begin="0s" xlink:href="#_R_G_L_9_G" fill="freeze" keyTimes="0;0.0571189;0.1142379;0.1713592;0.2261942;0.2833131;0.342716;0.3998374;0.4569587;0.5140801;0.5711966;0.6283155;0.6854369;0.7425583;0.7996772;0.8567961;0.9101942;1" path="M173 77.82 C173,76.15 173,67.82 173,67.82 C173,67.82 173,77.82 173,77.82 C173,77.82 173,67.82 173,67.82 C173,67.82 173,77.82 173,77.82 C173,77.82 173,67.82 173,67.82 C173,67.82 173,77.82 173,77.82 C173,77.82 173,67.82 173,67.82 C173,67.82 173,77.82 173,77.82 C173,77.82 173,67.82 173,67.82 C173,67.82 173,77.82 173,77.82 C173,77.82 173,67.82 173,67.82 C173,67.82 173,77.82 173,77.82 C173,77.82 173,67.82 173,67.82 C173,67.82 173,77.82 173,77.82 C173,77.82 173,67.82 173,67.82 C173,67.82 173,76.15 173,77.82 C173,77.82 173,77.82 173,77.82 " keyPoints="0;0.06;0.13;0.19;0.25;0.31;0.38;0.44;0.5;0.56;0.63;0.69;0.75;0.81;0.88;0.94;1;1" keySplines="0.167 0.167 0.667 1;0.333 0 0.833 0.833;0.167 0.167 0.667 1;0.333 0 0.833 0.837;0.27 0.276 0.684 1;0.333 0 0.833 0.83;0.167 0.163 0.667 1;0.333 0 0.833 0.833;0.167 0.167 0.667 1;0.333 0 0.833 0.833;0.167 0.167 0.667 1;0.333 0 0.833 0.833;0.167 0.167 0.667 1;0.333 0 0.833 0.833;0.167 0.167 0.667 1;0.167 0 0.833 0.833;0 0 0 0" calcMode="spline"/><animateTransform repeatCount="indefinite" dur="16.48s" begin="0s" xlink:href="#_R_G_L_9_G" fill="freeze" attributeName="transform" from="0.34 0.34" to="0.34 0.34" type="scale" additive="sum" keyTimes="0;1" values="0.34 0.34;0.34 0.34" keySplines="0 0 1 1" calcMode="spline"/><animateTransform repeatCount="indefinite" dur="16.48s" begin="0s" xlink:href="#_R_G_L_9_G" fill="freeze" attributeName="transform" from="-48.744 -49.159" to="-48.744 -49.159" type="translate" additive="sum" keyTimes="0;1" values="-48.744 -49.159;-48.744 -49.159" keySplines="0 0 1 1" calcMode="spline"/><animateMotion repeatCount="indefinite" dur="16.48s" begin="0s" xlink:href="#_R_G_L_7_G" fill="freeze" keyTimes="0;0.0571189;0.1142379;0.1713592;0.2261942;0.2833131;0.342716;0.3998374;0.4569587;0.5140801;0.5711966;0.6283155;0.6854369;0.7425583;0.7996772;0.8567961;0.9101942;1" path="M173 77.82 C173,76.15 173,67.82 173,67.82 C173,67.82 173,77.82 173,77.82 C173,77.82 173,67.82 173,67.82 C173,67.82 173,77.82 173,77.82 C173,77.82 173,67.82 173,67.82 C173,67.82 173,77.82 173,77.82 C173,77.82 173,67.82 173,67.82 C173,67.82 173,77.82 173,77.82 C173,77.82 173,67.82 173,67.82 C173,67.82 173,77.82 173,77.82 C173,77.82 173,67.82 173,67.82 C173,67.82 173,77.82 173,77.82 C173,77.82 173,67.82 173,67.82 C173,67.82 173,77.82 173,77.82 C173,77.82 173,67.82 173,67.82 C173,67.82 173,76.15 173,77.82 C173,77.82 173,77.82 173,77.82 " keyPoints="0;0.06;0.13;0.19;0.25;0.31;0.38;0.44;0.5;0.56;0.63;0.69;0.75;0.81;0.88;0.94;1;1" keySplines="0.167 0.167 0.667 1;0.333 0 0.833 0.833;0.167 0.167 0.667 1;0.333 0 0.833 0.837;0.27 0.276 0.684 1;0.333 0 0.833 0.83;0.167 0.163 0.667 1;0.333 0 0.833 0.833;0.167 0.167 0.667 1;0.333 0 0.833 0.833;0.167 0.167 0.667 1;0.333 0 0.833 0.833;0.167 0.167 0.667 1;0.333 0 0.833 0.833;0.167 0.167 0.667 1;0.167 0 0.833 0.833;0 0 0 0" calcMode="spline"/><animateTransform repeatCount="indefinite" dur="16.48s" begin="0s" xlink:href="#_R_G_L_7_G" fill="freeze" attributeName="transform" from="0.34 0.34" to="0.34 0.34" type="scale" additive="sum" keyTimes="0;1" values="0.34 0.34;0.34 0.34" keySplines="0 0 1 1" calcMode="spline"/><animateTransform repeatCount="indefinite" dur="16.48s" begin="0s" xlink:href="#_R_G_L_7_G" fill="freeze" attributeName="transform" from="-48.744 -49.159" to="-48.744 -49.159" type="translate" additive="sum" keyTimes="0;1" values="-48.744 -49.159;-48.744 -49.159" keySplines="0 0 1 1" calcMode="spline"/><animateMotion repeatCount="indefinite" dur="16.48s" begin="0s" xlink:href="#_R_G_L_5_G" fill="freeze" keyTimes="0;0.0571189;0.1142379;0.1713592;0.2261942;0.2833131;0.342716;0.3998374;0.4569587;0.5140801;0.5711966;0.6283155;0.6854369;0.7425583;0.7996772;0.8567961;0.9101942;1" path="M173 77.82 C173,76.15 173,67.82 173,67.82 C173,67.82 173,77.82 173,77.82 C173,77.82 173,67.82 173,67.82 C173,67.82 173,77.82 173,77.82 C173,77.82 173,67.82 173,67.82 C173,67.82 173,77.82 173,77.82 C173,77.82 173,67.82 173,67.82 C173,67.82 173,77.82 173,77.82 C173,77.82 173,67.82 173,67.82 C173,67.82 173,77.82 173,77.82 C173,77.82 173,67.82 173,67.82 C173,67.82 173,77.82 173,77.82 C173,77.82 173,67.82 173,67.82 C173,67.82 173,77.82 173,77.82 C173,77.82 173,67.82 173,67.82 C173,67.82 173,76.15 173,77.82 C173,77.82 173,77.82 173,77.82 " keyPoints="0;0.06;0.13;0.19;0.25;0.31;0.38;0.44;0.5;0.56;0.63;0.69;0.75;0.81;0.88;0.94;1;1" keySplines="0.167 0.167 0.667 1;0.333 0 0.833 0.833;0.167 0.167 0.667 1;0.333 0 0.833 0.837;0.27 0.276 0.684 1;0.333 0 0.833 0.83;0.167 0.163 0.667 1;0.333 0 0.833 0.833;0.167 0.167 0.667 1;0.333 0 0.833 0.833;0.167 0.167 0.667 1;0.333 0 0.833 0.833;0.167 0.167 0.667 1;0.333 0 0.833 0.833;0.167 0.167 0.667 1;0.167 0 0.833 0.833;0 0 0 0" calcMode="spline"/><animateTransform repeatCount="indefinite" dur="16.48s" begin="0s" xlink:href="#_R_G_L_5_G" fill="freeze" attributeName="transform" from="0.34 0.34" to="0.34 0.34" type="scale" additive="sum" keyTimes="0;1" values="0.34 0.34;0.34 0.34" keySplines="0 0 1 1" calcMode="spline"/><animateTransform repeatCount="indefinite" dur="16.48s" begin="0s" xlink:href="#_R_G_L_5_G" fill="freeze" attributeName="transform" from="-48.744 -49.159" to="-48.744 -49.159" type="translate" additive="sum" keyTimes="0;1" values="-48.744 -49.159;-48.744 -49.159" keySplines="0 0 1 1" calcMode="spline"/><animateTransform repeatCount="indefinite" dur="16.48s" begin="0s" xlink:href="#_R_G_L_3_G" fill="freeze" attributeName="transform" from="1.229" to="1.229" type="rotate" additive="sum" keyTimes="0;0.118932;0.2427184;0.3616505;0.4854369;0.6043689;0.7281553;0.8470874;1" values="1.229;-2.639;1.229;-2.639;1.229;-2.639;1.229;-2.639;1.229" keySplines="0.333 0 0.667 1;0.333 0 0.667 1;0.333 0 0.667 1;0.333 0 0.667 1;0.333 0 0.667 1;0.333 0 0.667 1;0.333 0 0.667 1;0.333 0 0.667 1" calcMode="spline"/><animateTransform repeatCount="indefinite" dur="16.48s" begin="0s" xlink:href="#_R_G_L_3_G" fill="freeze" attributeName="transform" from="-12.25 -106.75" to="-12.25 -106.75" type="translate" additive="sum" keyTimes="0;1" values="-12.25 -106.75;-12.25 -106.75" keySplines="0 0 1 1" calcMode="spline"/><animateTransform repeatCount="indefinite" dur="16.48s" begin="0s" xlink:href="#_R_G_L_2_G" fill="freeze" attributeName="transform" from="0" to="0" type="rotate" additive="sum" keyTimes="0;0.1383495;0.2669903;0.3907767;0.5145631;0.6383495;0.7621359;0.8859223;1" values="0;-6.392;0;-6.392;0;-6.392;0;-6.392;0" keySplines="0.167 0.167 0.833 0.833;0.167 0.167 0.833 0.833;0.167 0.167 0.833 0.833;0.167 0.167 0.833 0.833;0.167 0.167 0.833 0.833;0.167 0.167 0.833 0.833;0.167 0.167 0.833 0.833;0.167 0.167 0.833 0.833" calcMode="spline"/><animateTransform repeatCount="indefinite" dur="16.48s" begin="0s" xlink:href="#_R_G_L_2_G" fill="freeze" attributeName="transform" from="-2.257 -34.607" to="-2.257 -34.607" type="translate" additive="sum" keyTimes="0;1" values="-2.257 -34.607;-2.257 -34.607" keySplines="0 0 1 1" calcMode="spline"/><animateTransform repeatCount="indefinite" dur="16.48s" begin="0s" xlink:href="#_R_G_L_2_G_N_4_T_0" fill="freeze" attributeName="transform" from="1.229" to="1.229" type="rotate" additive="sum" keyTimes="0;0.118932;0.2427184;0.3616505;0.4854369;0.6043689;0.7281553;0.8470874;1" values="1.229;-2.639;1.229;-2.639;1.229;-2.639;1.229;-2.639;1.229" keySplines="0.333 0 0.667 1;0.333 0 0.667 1;0.333 0 0.667 1;0.333 0 0.667 1;0.333 0 0.667 1;0.333 0 0.667 1;0.333 0 0.667 1;0.333 0 0.667 1" calcMode="spline"/><animateTransform repeatCount="indefinite" dur="16.48s" begin="0s" xlink:href="#_R_G_L_2_G_N_4_T_0" fill="freeze" attributeName="transform" from="-12.25 -106.75" to="-12.25 -106.75" type="translate" additive="sum" keyTimes="0;1" values="-12.25 -106.75;-12.25 -106.75" keySplines="0 0 1 1" calcMode="spline"/><animateTransform repeatCount="indefinite" dur="16.48s" begin="0s" xlink:href="#_R_G_L_1_G" fill="freeze" attributeName="transform" from="0" to="0" type="rotate" additive="sum" keyTimes="0;0.1383495;0.2669903;0.3907767;0.5145631;0.6383495;0.7621359;0.8859223;1" values="0;-6.392;0;-6.392;0;-6.392;0;-6.392;0" keySplines="0.167 0.167 0.833 0.833;0.167 0.167 0.833 0.833;0.167 0.167 0.833 0.833;0.167 0.167 0.833 0.833;0.167 0.167 0.833 0.833;0.167 0.167 0.833 0.833;0.167 0.167 0.833 0.833;0.167 0.167 0.833 0.833" calcMode="spline"/><animateTransform repeatCount="indefinite" dur="16.48s" begin="0s" xlink:href="#_R_G_L_1_G" fill="freeze" attributeName="transform" from="-49.846 -24.444" to="-49.846 -24.444" type="translate" additive="sum" keyTimes="0;1" values="-49.846 -24.444;-49.846 -24.444" keySplines="0 0 1 1" calcMode="spline"/><animateTransform repeatCount="indefinite" dur="16.48s" begin="0s" xlink:href="#_R_G_L_1_G_N_4_T_0" fill="freeze" attributeName="transform" from="1.229" to="1.229" type="rotate" additive="sum" keyTimes="0;0.118932;0.2427184;0.3616505;0.4854369;0.6043689;0.7281553;0.8470874;1" values="1.229;-2.639;1.229;-2.639;1.229;-2.639;1.229;-2.639;1.229" keySplines="0.333 0 0.667 1;0.333 0 0.667 1;0.333 0 0.667 1;0.333 0 0.667 1;0.333 0 0.667 1;0.333 0 0.667 1;0.333 0 0.667 1;0.333 0 0.667 1" calcMode="spline"/><animateTransform repeatCount="indefinite" dur="16.48s" begin="0s" xlink:href="#_R_G_L_1_G_N_4_T_0" fill="freeze" attributeName="transform" from="-12.25 -106.75" to="-12.25 -106.75" type="translate" additive="sum" keyTimes="0;1" values="-12.25 -106.75;-12.25 -106.75" keySplines="0 0 1 1" calcMode="spline"/><animateTransform repeatCount="indefinite" dur="16.48s" begin="0s" xlink:href="#_R_G_L_0_G" fill="freeze" attributeName="transform" from="0" to="0" type="rotate" additive="sum" keyTimes="0;0.1383495;0.2669903;0.3907767;0.5145631;0.6383495;0.7621359;0.8859223;1" values="0;-6.392;0;-6.392;0;-6.392;0;-6.392;0" keySplines="0.167 0.167 0.833 0.833;0.167 0.167 0.833 0.833;0.167 0.167 0.833 0.833;0.167 0.167 0.833 0.833;0.167 0.167 0.833 0.833;0.167 0.167 0.833 0.833;0.167 0.167 0.833 0.833;0.167 0.167 0.833 0.833" calcMode="spline"/><animateTransform repeatCount="indefinite" dur="16.48s" begin="0s" xlink:href="#_R_G_L_0_G" fill="freeze" attributeName="transform" from="-14.529 -45.329" to="-14.529 -45.329" type="translate" additive="sum" keyTimes="0;1" values="-14.529 -45.329;-14.529 -45.329" keySplines="0 0 1 1" calcMode="spline"/><animateTransform repeatCount="indefinite" dur="16.48s" begin="0s" xlink:href="#_R_G_L_0_G_N_4_T_0" fill="freeze" attributeName="transform" from="1.229" to="1.229" type="rotate" additive="sum" keyTimes="0;0.118932;0.2427184;0.3616505;0.4854369;0.6043689;0.7281553;0.8470874;1" values="1.229;-2.639;1.229;-2.639;1.229;-2.639;1.229;-2.639;1.229" keySplines="0.333 0 0.667 1;0.333 0 0.667 1;0.333 0 0.667 1;0.333 0 0.667 1;0.333 0 0.667 1;0.333 0 0.667 1;0.333 0 0.667 1;0.333 0 0.667 1" calcMode="spline"/><animateTransform repeatCount="indefinite" dur="16.48s" begin="0s" xlink:href="#_R_G_L_0_G_N_4_T_0" fill="freeze" attributeName="transform" from="-12.25 -106.75" to="-12.25 -106.75" type="translate" additive="sum" keyTimes="0;1" values="-12.25 -106.75;-12.25 -106.75" keySplines="0 0 1 1" calcMode="spline"/><animate attributeType="XML" attributeName="opacity" dur="16s" from="0" to="1" xlink:href="#time_group"/></defs><g id="_R_G"><g id="_R_G_L_11_G" transform=" translate(980.006, 533.801) translate(-202.831, -145.128)"><path id="_R_G_L_11_G_D_0_P_0" fill="#8269ff" fill-opacity="1" fill-rule="nonzero" d=" M77.74 278.15 C29.02,268.38 0.25,154.55 55.94,77.4 C111.63,0.25 211.33,18.83 293.27,78.03 C353.96,121.87 405.41,178.86 260.04,197.85 C153.31,211.81 136.92,290.01 77.74,278.15z "/><path id="_R_G_L_11_G_D_1_P_0" fill="#8269ff" fill-opacity="1" fill-rule="nonzero" d=" M47.39 71.86 C47.39,82.37 38.87,90.89 28.37,90.89 C17.86,90.89 9.34,82.37 9.34,71.86 C9.34,61.36 17.86,52.84 28.37,52.84 C38.87,52.84 47.39,61.36 47.39,71.86z "/><path id="_R_G_L_11_G_D_2_P_0" fill="#8269ff" fill-opacity="1" fill-rule="nonzero" d=" M247.75 246.86 C247.75,262.62 234.97,275.39 219.21,275.39 C203.46,275.39 190.68,262.62 190.68,246.86 C190.68,231.1 203.46,218.33 219.21,218.33 C234.97,218.33 247.75,231.1 247.75,246.86z "/></g><g id="_R_G_L_10_G" transform=" translate(963.517, 481.005) translate(-118.023, -55.715)"><path id="_R_G_L_10_G_D_0_P_0" fill="#f8f8ff" fill-opacity="1" fill-rule="nonzero" d=" M113.01 108.93 C113.01,108.93 233.55,108.93 233.55,108.93 C233.55,108.93 233.55,37.18 233.55,37.18 C233.55,37.18 112.91,37.16 112.91,37.16 C112.91,37.16 112.88,103.93 112.88,103.93 C112.88,103.93 113.01,108.93 113.01,108.93z "/><path id="_R_G_L_10_G_D_1_P_0" stroke="#000000" stroke-linecap="round" stroke-linejoin="round" fill="none" stroke-width="1" stroke-opacity="1" d=" M113.01 108.93 C113.01,108.93 233.55,108.93 233.55,108.93 C233.55,108.93 233.55,37.18 233.55,37.18 C233.55,37.18 112.91,37.16 112.91,37.16 C112.91,37.16 112.88,103.93 112.88,103.93 C112.88,103.93 113.01,108.93 113.01,108.93z "/><path id="_R_G_L_10_G_D_2_P_0" fill="#fe675e" fill-opacity="1" fill-rule="nonzero" d=" M118.45 105.57 C118.45,105.57 116.02,105.57 116.02,105.57 C116.02,105.57 116.02,40.32 116.02,40.32 C116.02,40.32 118.45,40.32 118.45,40.32 C118.45,40.32 118.45,105.57 118.45,105.57z "/><path id="_R_G_L_10_G_D_3_P_0" stroke="#2e2b2c" stroke-linecap="round" stroke-linejoin="round" fill="none" stroke-width="1" stroke-opacity="1" d=" M230.41 105.57 C230.41,105.57 116.02,105.57 116.02,105.57 C116.02,105.57 116.02,40.51 116.02,40.51 C116.02,40.51 230.41,40.51 230.41,40.51 C230.41,40.51 230.41,105.57 230.41,105.57z "/></g><g id="_R_G_L_9_G_N_11_T_0" transform=" translate(963.517, 481.005) translate(-118.023, -55.715)"><g id="_R_G_L_9_G"><path id="_R_G_L_9_G_D_0_P_0" fill="#000000" fill-opacity="1" fill-rule="nonzero" d=" M0.25 65.49 C0.25,65.49 0.25,32.41 0.25,32.41 C2.11,30.89 3.87,29.2 5.85,27.87 C19.58,18.62 33.36,9.45 47.12,0.25 C47.12,0.25 50.79,0.25 50.79,0.25 C64.59,9.54 78.33,18.93 92.23,28.07 C95.64,30.32 97.24,32.82 97.19,37.03 C97,54.48 97.22,71.93 96.98,89.37 C96.94,91.77 95.75,95.32 94.01,96.2 C92.2,97.12 88.65,96.12 86.6,94.8 C74.87,87.31 63.32,79.54 51.82,71.7 C49.57,70.18 48.05,70.14 45.77,71.69 C34.4,79.46 22.9,87.03 11.44,94.64 C6.27,98.07 4.86,97.96 0.25,93.98 C0.25,93.98 0.25,89.39 0.25,89.39 C1.77,88.16 3.21,86.82 4.83,85.73 C17.78,77.06 30.82,68.53 43.68,59.74 C47.42,57.18 50.45,57.36 54.07,59.87 C62.47,65.71 71.07,71.28 79.59,76.94 C81.54,78.24 83.53,79.5 86.26,81.27 C86.26,76.89 86.04,73.55 86.32,70.25 C86.6,67.04 85.22,65.29 82.66,63.63 C72.29,56.89 61.99,50.03 51.79,43.04 C49.51,41.47 47.96,41.58 45.73,43.1 C34.36,50.83 22.89,58.4 11.44,66.01 C6.28,69.44 4.84,69.35 0.25,65.49z  M11.38 52.69 C22.68,45.17 33.08,38.46 43.21,31.38 C47.24,28.56 50.47,28.7 54.41,31.44 C63.31,37.66 72.42,43.56 81.47,49.56 C82.77,50.43 84.16,51.17 86.26,52.42 C86.26,47.79 86.53,44.12 86.13,40.53 C85.95,38.86 84.85,36.75 83.5,35.82 C72.93,28.53 62.24,21.39 51.43,14.45 C50.16,13.63 47.52,13.49 46.3,14.28 C35.37,21.3 24.58,28.56 13.84,35.87 C12.74,36.61 11.58,38.11 11.49,39.32 C11.2,43.39 11.38,47.49 11.38,52.69z "/></g></g><g id="_R_G_L_8_G" transform=" translate(939.017, 518.505) translate(-118.023, -55.715)"><path id="_R_G_L_8_G_D_0_P_0" fill="#f8f8ff" fill-opacity="1" fill-rule="nonzero" d=" M113.01 108.93 C113.01,108.93 233.55,108.93 233.55,108.93 C233.55,108.93 233.55,37.18 233.55,37.18 C233.55,37.18 112.91,37.16 112.91,37.16 C112.91,37.16 112.88,103.93 112.88,103.93 C112.88,103.93 113.01,108.93 113.01,108.93z "/><path id="_R_G_L_8_G_D_1_P_0" stroke="#000000" stroke-linecap="round" stroke-linejoin="round" fill="none" stroke-width="1" stroke-opacity="1" d=" M113.01 108.93 C113.01,108.93 233.55,108.93 233.55,108.93 C233.55,108.93 233.55,37.18 233.55,37.18 C233.55,37.18 112.91,37.16 112.91,37.16 C112.91,37.16 112.88,103.93 112.88,103.93 C112.88,103.93 113.01,108.93 113.01,108.93z "/><path id="_R_G_L_8_G_D_2_P_0" fill="#fe675e" fill-opacity="1" fill-rule="nonzero" d=" M118.45 105.57 C118.45,105.57 116.02,105.57 116.02,105.57 C116.02,105.57 116.02,40.32 116.02,40.32 C116.02,40.32 118.45,40.32 118.45,40.32 C118.45,40.32 118.45,105.57 118.45,105.57z "/><path id="_R_G_L_8_G_D_3_P_0" stroke="#2e2b2c" stroke-linecap="round" stroke-linejoin="round" fill="none" stroke-width="1" stroke-opacity="1" d=" M230.41 105.57 C230.41,105.57 116.02,105.57 116.02,105.57 C116.02,105.57 116.02,40.51 116.02,40.51 C116.02,40.51 230.41,40.51 230.41,40.51 C230.41,40.51 230.41,105.57 230.41,105.57z "/></g><g id="_R_G_L_7_G_N_9_T_0" transform=" translate(939.017, 518.505) translate(-118.023, -55.715)"><g id="_R_G_L_7_G"><path id="_R_G_L_7_G_D_0_P_0" fill="#000000" fill-opacity="1" fill-rule="nonzero" d=" M0.25 65.49 C0.25,65.49 0.25,32.41 0.25,32.41 C2.11,30.89 3.87,29.2 5.85,27.87 C19.58,18.62 33.36,9.45 47.12,0.25 C47.12,0.25 50.79,0.25 50.79,0.25 C64.59,9.54 78.33,18.93 92.23,28.07 C95.64,30.32 97.24,32.82 97.19,37.03 C97,54.48 97.22,71.93 96.98,89.37 C96.94,91.77 95.75,95.32 94.01,96.2 C92.2,97.12 88.65,96.12 86.6,94.8 C74.87,87.31 63.32,79.54 51.82,71.7 C49.57,70.18 48.05,70.14 45.77,71.69 C34.4,79.46 22.9,87.03 11.44,94.64 C6.27,98.07 4.86,97.96 0.25,93.98 C0.25,93.98 0.25,89.39 0.25,89.39 C1.77,88.16 3.21,86.82 4.83,85.73 C17.78,77.06 30.82,68.53 43.68,59.74 C47.42,57.18 50.45,57.36 54.07,59.87 C62.47,65.71 71.07,71.28 79.59,76.94 C81.54,78.24 83.53,79.5 86.26,81.27 C86.26,76.89 86.04,73.55 86.32,70.25 C86.6,67.04 85.22,65.29 82.66,63.63 C72.29,56.89 61.99,50.03 51.79,43.04 C49.51,41.47 47.96,41.58 45.73,43.1 C34.36,50.83 22.89,58.4 11.44,66.01 C6.28,69.44 4.84,69.35 0.25,65.49z  M11.38 52.69 C22.68,45.17 33.08,38.46 43.21,31.38 C47.24,28.56 50.47,28.7 54.41,31.44 C63.31,37.66 72.42,43.56 81.47,49.56 C82.77,50.43 84.16,51.17 86.26,52.42 C86.26,47.79 86.53,44.12 86.13,40.53 C85.95,38.86 84.85,36.75 83.5,35.82 C72.93,28.53 62.24,21.39 51.43,14.45 C50.16,13.63 47.52,13.49 46.3,14.28 C35.37,21.3 24.58,28.56 13.84,35.87 C12.74,36.61 11.58,38.11 11.49,39.32 C11.2,43.39 11.38,47.49 11.38,52.69z "/></g></g><g id="_R_G_L_6_G" transform=" translate(912.017, 557.505) translate(-118.023, -55.715)"><path id="_R_G_L_6_G_D_0_P_0" fill="#f8f8ff" fill-opacity="1" fill-rule="nonzero" d=" M113.01 108.93 C113.01,108.93 233.55,108.93 233.55,108.93 C233.55,108.93 233.55,37.18 233.55,37.18 C233.55,37.18 112.91,37.16 112.91,37.16 C112.91,37.16 112.88,103.93 112.88,103.93 C112.88,103.93 113.01,108.93 113.01,108.93z "/><path id="_R_G_L_6_G_D_1_P_0" stroke="#000000" stroke-linecap="round" stroke-linejoin="round" fill="none" stroke-width="1" stroke-opacity="1" d=" M113.01 108.93 C113.01,108.93 233.55,108.93 233.55,108.93 C233.55,108.93 233.55,37.18 233.55,37.18 C233.55,37.18 112.91,37.16 112.91,37.16 C112.91,37.16 112.88,103.93 112.88,103.93 C112.88,103.93 113.01,108.93 113.01,108.93z "/><path id="_R_G_L_6_G_D_2_P_0" fill="#fe675e" fill-opacity="1" fill-rule="nonzero" d=" M118.45 105.57 C118.45,105.57 116.02,105.57 116.02,105.57 C116.02,105.57 116.02,40.32 116.02,40.32 C116.02,40.32 118.45,40.32 118.45,40.32 C118.45,40.32 118.45,105.57 118.45,105.57z "/><path id="_R_G_L_6_G_D_3_P_0" stroke="#2e2b2c" stroke-linecap="round" stroke-linejoin="round" fill="none" stroke-width="1" stroke-opacity="1" d=" M230.41 105.57 C230.41,105.57 116.02,105.57 116.02,105.57 C116.02,105.57 116.02,40.51 116.02,40.51 C116.02,40.51 230.41,40.51 230.41,40.51 C230.41,40.51 230.41,105.57 230.41,105.57z "/></g><g id="_R_G_L_5_G_N_7_T_0" transform=" translate(912.017, 557.505) translate(-118.023, -55.715)"><g id="_R_G_L_5_G"><path id="_R_G_L_5_G_D_0_P_0" fill="#000000" fill-opacity="1" fill-rule="nonzero" d=" M0.25 65.49 C0.25,65.49 0.25,32.41 0.25,32.41 C2.11,30.89 3.87,29.2 5.85,27.87 C19.58,18.62 33.36,9.45 47.12,0.25 C47.12,0.25 50.79,0.25 50.79,0.25 C64.59,9.54 78.33,18.93 92.23,28.07 C95.64,30.32 97.24,32.82 97.19,37.03 C97,54.48 97.22,71.93 96.98,89.37 C96.94,91.77 95.75,95.32 94.01,96.2 C92.2,97.12 88.65,96.12 86.6,94.8 C74.87,87.31 63.32,79.54 51.82,71.7 C49.57,70.18 48.05,70.14 45.77,71.69 C34.4,79.46 22.9,87.03 11.44,94.64 C6.27,98.07 4.86,97.96 0.25,93.98 C0.25,93.98 0.25,89.39 0.25,89.39 C1.77,88.16 3.21,86.82 4.83,85.73 C17.78,77.06 30.82,68.53 43.68,59.74 C47.42,57.18 50.45,57.36 54.07,59.87 C62.47,65.71 71.07,71.28 79.59,76.94 C81.54,78.24 83.53,79.5 86.26,81.27 C86.26,76.89 86.04,73.55 86.32,70.25 C86.6,67.04 85.22,65.29 82.66,63.63 C72.29,56.89 61.99,50.03 51.79,43.04 C49.51,41.47 47.96,41.58 45.73,43.1 C34.36,50.83 22.89,58.4 11.44,66.01 C6.28,69.44 4.84,69.35 0.25,65.49z  M11.38 52.69 C22.68,45.17 33.08,38.46 43.21,31.38 C47.24,28.56 50.47,28.7 54.41,31.44 C63.31,37.66 72.42,43.56 81.47,49.56 C82.77,50.43 84.16,51.17 86.26,52.42 C86.26,47.79 86.53,44.12 86.13,40.53 C85.95,38.86 84.85,36.75 83.5,35.82 C72.93,28.53 62.24,21.39 51.43,14.45 C50.16,13.63 47.52,13.49 46.3,14.28 C35.37,21.3 24.58,28.56 13.84,35.87 C12.74,36.61 11.58,38.11 11.49,39.32 C11.2,43.39 11.38,47.49 11.38,52.69z "/></g></g><g id="_R_G_L_4_G" transform=" translate(885.354, 594.938) translate(-34.534, -48.576)"><path id="_R_G_L_4_G_D_0_P_0" fill="#f8f8ff" fill-opacity="1" fill-rule="nonzero" d=" M66.57 75.27 C66.57,75.27 66.57,87.28 66.57,87.28 C66.57,91.35 52.22,94.65 34.53,94.65 C16.85,94.65 2.5,91.35 2.5,87.28 C2.5,87.28 2.5,75.27 2.5,75.27 "/><path id="_R_G_L_4_G_D_1_P_0" stroke="#000000" stroke-linecap="round" stroke-linejoin="round" fill="none" stroke-width="1" stroke-opacity="1" d=" M66.57 75.27 C66.57,75.27 66.57,87.28 66.57,87.28 C66.57,91.35 52.22,94.65 34.53,94.65 C16.85,94.65 2.5,91.35 2.5,87.28 C2.5,87.28 2.5,75.27 2.5,75.27 "/><path id="_R_G_L_4_G_D_2_P_0" stroke="#000000" stroke-linecap="round" stroke-linejoin="round" fill="none" stroke-width="1" stroke-opacity="1" d=" M66.57 75.27 C66.57,75.27 66.57,87.28 66.57,87.28 C66.57,91.35 52.22,94.65 34.53,94.65 C16.85,94.65 2.5,91.35 2.5,87.28 C2.5,87.28 2.5,75.27 2.5,75.27 "/><path id="_R_G_L_4_G_D_3_P_0" fill="#ffffff" fill-opacity="1" fill-rule="nonzero" d=" M66.57 75.28 C66.57,79.35 52.22,82.64 34.53,82.64 C16.84,82.64 2.5,79.35 2.5,75.28 C2.5,71.21 16.84,67.92 34.53,67.92 C52.22,67.92 66.57,71.21 66.57,75.28z "/><path id="_R_G_L_4_G_D_4_P_0" stroke="#000000" stroke-linecap="round" stroke-linejoin="round" fill="none" stroke-width="1" stroke-opacity="1" d=" M66.57 75.28 C66.57,79.35 52.22,82.64 34.53,82.64 C16.84,82.64 2.5,79.35 2.5,75.28 C2.5,71.21 16.84,67.92 34.53,67.92 C52.22,67.92 66.57,71.21 66.57,75.28z "/><path id="_R_G_L_4_G_D_5_P_0" stroke="#000000" stroke-linecap="round" stroke-linejoin="round" fill="none" stroke-width="1" stroke-opacity="1" d=" M66.57 75.28 C66.57,79.35 52.22,82.64 34.53,82.64 C16.84,82.64 2.5,79.35 2.5,75.28 C2.5,71.21 16.84,67.92 34.53,67.92 C52.22,67.92 66.57,71.21 66.57,75.28z "/><path id="_R_G_L_4_G_D_6_P_0" fill="#ffffff" fill-opacity="1" fill-rule="nonzero" d=" M66.57 54.13 C66.57,58.19 52.22,61.49 34.53,61.49 C16.84,61.49 2.5,58.19 2.5,54.13 C2.5,50.06 16.84,46.76 34.53,46.76 C52.22,46.76 66.57,50.06 66.57,54.13z "/><path id="_R_G_L_4_G_D_7_P_0" stroke="#000000" stroke-linecap="round" stroke-linejoin="round" fill="none" stroke-width="1" stroke-opacity="1" d=" M66.57 54.13 C66.57,58.19 52.22,61.49 34.53,61.49 C16.84,61.49 2.5,58.19 2.5,54.13 C2.5,50.06 16.84,46.76 34.53,46.76 C52.22,46.76 66.57,50.06 66.57,54.13z "/><path id="_R_G_L_4_G_D_8_P_0" fill="#f8f8ff" fill-opacity="1" fill-rule="nonzero" d=" M66.57 54.12 C66.57,54.12 66.57,66.13 66.57,66.13 C66.57,70.19 52.22,73.5 34.53,73.5 C16.85,73.5 2.5,70.19 2.5,66.13 C2.5,66.13 2.5,54.12 2.5,54.12 "/><path id="_R_G_L_4_G_D_9_P_0" stroke="#000000" stroke-linecap="round" stroke-linejoin="round" fill="none" stroke-width="1" stroke-opacity="1" d=" M66.57 54.12 C66.57,54.12 66.57,66.13 66.57,66.13 C66.57,70.19 52.22,73.5 34.53,73.5 C16.85,73.5 2.5,70.19 2.5,66.13 C2.5,66.13 2.5,54.12 2.5,54.12 "/><path id="_R_G_L_4_G_D_10_P_0" stroke="#000000" stroke-linecap="round" stroke-linejoin="round" fill="none" stroke-width="1" stroke-opacity="1" d=" M66.57 54.12 C66.57,54.12 66.57,66.13 66.57,66.13 C66.57,70.19 52.22,73.5 34.53,73.5 C16.85,73.5 2.5,70.19 2.5,66.13 C2.5,66.13 2.5,54.12 2.5,54.12 "/><path id="_R_G_L_4_G_D_11_P_0" stroke="#000000" stroke-linecap="round" stroke-linejoin="round" fill="none" stroke-width="1" stroke-opacity="1" d=" M66.57 54.13 C66.57,58.19 52.22,61.49 34.53,61.49 C16.84,61.49 2.5,58.19 2.5,54.13 C2.5,50.06 16.84,46.76 34.53,46.76 C52.22,46.76 66.57,50.06 66.57,54.13z "/><path id="_R_G_L_4_G_D_12_P_0" fill="#f8f8ff" fill-opacity="1" fill-rule="nonzero" d=" M66.57 32.66 C66.57,32.66 66.57,44.67 66.57,44.67 C66.57,48.74 52.22,52.04 34.53,52.04 C16.85,52.04 2.5,48.74 2.5,44.67 C2.5,44.67 2.5,32.66 2.5,32.66 "/><path id="_R_G_L_4_G_D_13_P_0" stroke="#000000" stroke-linecap="round" stroke-linejoin="round" fill="none" stroke-width="1" stroke-opacity="1" d=" M66.57 32.66 C66.57,32.66 66.57,44.67 66.57,44.67 C66.57,48.74 52.22,52.04 34.53,52.04 C16.85,52.04 2.5,48.74 2.5,44.67 C2.5,44.67 2.5,32.66 2.5,32.66 "/><path id="_R_G_L_4_G_D_14_P_0" stroke="#000000" stroke-linecap="round" stroke-linejoin="round" fill="none" stroke-width="1" stroke-opacity="1" d=" M66.57 32.66 C66.57,32.66 66.57,44.67 66.57,44.67 C66.57,48.74 52.22,52.04 34.53,52.04 C16.85,52.04 2.5,48.74 2.5,44.67 C2.5,44.67 2.5,32.66 2.5,32.66 "/><path id="_R_G_L_4_G_D_15_P_0" fill="#ffffff" fill-opacity="1" fill-rule="nonzero" d=" M66.57 32.67 C66.57,36.74 52.22,40.03 34.53,40.03 C16.84,40.03 2.5,36.74 2.5,32.67 C2.5,28.6 16.84,25.31 34.53,25.31 C52.22,25.31 66.57,28.6 66.57,32.67z "/><path id="_R_G_L_4_G_D_16_P_0" stroke="#000000" stroke-linecap="round" stroke-linejoin="round" fill="none" stroke-width="1" stroke-opacity="1" d=" M66.57 32.67 C66.57,36.74 52.22,40.03 34.53,40.03 C16.84,40.03 2.5,36.74 2.5,32.67 C2.5,28.6 16.84,25.31 34.53,25.31 C52.22,25.31 66.57,28.6 66.57,32.67z "/><path id="_R_G_L_4_G_D_17_P_0" fill="#f8f8ff" fill-opacity="1" fill-rule="nonzero" d=" M66.57 9.86 C66.57,9.86 66.57,21.87 66.57,21.87 C66.57,25.93 52.22,29.24 34.53,29.24 C16.85,29.24 2.5,25.93 2.5,21.87 C2.5,21.87 2.5,9.86 2.5,9.86 "/><path id="_R_G_L_4_G_D_18_P_0" stroke="#000000" stroke-linecap="round" stroke-linejoin="round" fill="none" stroke-width="1" stroke-opacity="1" d=" M66.57 9.86 C66.57,9.86 66.57,21.87 66.57,21.87 C66.57,25.93 52.22,29.24 34.53,29.24 C16.85,29.24 2.5,25.93 2.5,21.87 C2.5,21.87 2.5,9.86 2.5,9.86 "/><path id="_R_G_L_4_G_D_19_P_0" stroke="#000000" stroke-linecap="round" stroke-linejoin="round" fill="none" stroke-width="1" stroke-opacity="1" d=" M66.57 9.86 C66.57,9.86 66.57,21.87 66.57,21.87 C66.57,25.93 52.22,29.24 34.53,29.24 C16.85,29.24 2.5,25.93 2.5,21.87 C2.5,21.87 2.5,9.86 2.5,9.86 "/><path id="_R_G_L_4_G_D_20_P_0" fill="#ffffff" fill-opacity="1" fill-rule="nonzero" d=" M66.57 9.86 C66.57,13.93 52.22,17.23 34.53,17.23 C16.84,17.23 2.5,13.93 2.5,9.86 C2.5,5.8 16.84,2.5 34.53,2.5 C52.22,2.5 66.57,5.8 66.57,9.86z "/><path id="_R_G_L_4_G_D_21_P_0" stroke="#000000" stroke-linecap="round" stroke-linejoin="round" fill="none" stroke-width="1" stroke-opacity="1" d=" M66.57 9.86 C66.57,13.93 52.22,17.23 34.53,17.23 C16.84,17.23 2.5,13.93 2.5,9.86 C2.5,5.8 16.84,2.5 34.53,2.5 C52.22,2.5 66.57,5.8 66.57,9.86z "/></g><g id="_R_G_L_3_G" transform=" translate(886.75, 557)"><path id="_R_G_L_3_G_D_0_P_0" stroke="#000000" stroke-linecap="round" stroke-linejoin="round" fill="none" stroke-width="1" stroke-opacity="1" d=" M12.14 0.5 C12.14,0.5 12.14,106.87 12.14,106.87 "/><path id="_R_G_L_3_G_D_1_P_0" stroke="#000000" stroke-linecap="round" stroke-linejoin="round" fill="none" stroke-width="1" stroke-opacity="1" d=" M23.78 70.14 C17.68,72.96 12.12,79.48 12.06,79.54 "/><path id="_R_G_L_3_G_D_2_P_0" stroke="#000000" stroke-linecap="round" stroke-linejoin="round" fill="none" stroke-width="1" stroke-opacity="1" d=" M2.5 37.43 C7.53,39.67 11.88,44.63 12.06,44.84 "/></g><g id="_R_G_L_2_G_N_4_T_0" transform=" translate(886.75, 557)"><g id="_R_G_L_2_G" transform=" translate(23.065, 70.509)"><path id="_R_G_L_2_G_D_0_P_0" fill="#fe675e" fill-opacity="1" fill-rule="nonzero" d=" M2.5 34.51 C2.5,34.51 18.48,2.5 72.02,11.09 C72.02,11.09 29.27,54.72 2.5,34.51z "/><path id="_R_G_L_2_G_D_1_P_0" stroke="#2e2b2c" stroke-linecap="round" stroke-linejoin="round" fill="none" stroke-width="1" stroke-opacity="1" d=" M2.5 34.51 C2.5,34.51 18.48,2.5 72.02,11.09 C72.02,11.09 29.27,54.72 2.5,34.51z "/></g></g><g id="_R_G_L_1_G_N_4_T_0" transform=" translate(886.75, 557)"><g id="_R_G_L_1_G" transform=" translate(4.572, 38.249)"><path id="_R_G_L_1_G_D_0_P_0" fill="#fe675e" fill-opacity="1" fill-rule="nonzero" d=" M49.94 24.34 C49.94,24.34 39.04,2.5 2.5,8.37 C2.5,8.37 31.67,38.14 49.94,24.34z "/><path id="_R_G_L_1_G_D_1_P_0" stroke="#2e2b2c" stroke-linecap="round" stroke-linejoin="round" fill="none" stroke-width="1" stroke-opacity="1" d=" M49.94 24.34 C49.94,24.34 39.04,2.5 2.5,8.37 C2.5,8.37 31.67,38.14 49.94,24.34z "/></g></g><g id="_R_G_L_0_G_N_4_T_0" transform=" translate(886.75, 557)"><g id="_R_G_L_0_G" transform=" translate(11.984, 0.736)"><path id="_R_G_L_0_G_D_0_P_0" fill="#fe675e" fill-opacity="1" fill-rule="nonzero" d=" M14.74 45.41 C14.74,45.41 34.81,35.86 30.1,2.5 C30.1,2.5 2.5,28.54 14.74,45.41z "/><path id="_R_G_L_0_G_D_1_P_0" stroke="#2e2b2c" stroke-linecap="round" stroke-linejoin="round" fill="none" stroke-width="1" stroke-opacity="1" d=" M14.74 45.41 C14.74,45.41 34.81,35.86 30.1,2.5 C30.1,2.5 2.5,28.54 14.74,45.41z "/></g></g></g><g id="time_group"/></svg>