<svg xmlns="http://www.w3.org/2000/svg" xmlns:xlink="http://www.w3.org/1999/xlink" preserveAspectRatio="xMidYMid meet" width="1920" height="1080" viewBox="0 0 1920 1080" style="width:100%;height:100%"><defs><animateMotion repeatCount="indefinite" dur="16s" begin="0s" xlink:href="#_R_G_L_1_G" fill="freeze" keyTimes="0;0.5;1" path="M959.54 540.07 C958.38,540.16 952.54,540.57 952.54,540.57 C952.54,540.57 958.38,540.16 959.54,540.07 " keyPoints="0;0.5;1" keySplines="0.333 0 0.667 1;0.333 0 0.667 1" calcMode="spline"/><animateTransform repeatCount="indefinite" dur="16s" begin="0s" xlink:href="#_R_G_L_1_G" fill="freeze" attributeName="transform" from="0" to="0" type="rotate" additive="sum" keyTimes="0;0.5;1" values="0;-12;0" keySplines="0.333 0 0.667 1;0.333 0 0.667 1" calcMode="spline"/><animateTransform repeatCount="indefinite" dur="16s" begin="0s" xlink:href="#_R_G_L_1_G" fill="freeze" attributeName="transform" from="1 1" to="1 1" type="scale" additive="sum" keyTimes="0;0.5;1" values="1 1;0.96 0.96;1 1" keySplines="0.333 0 0.667 1;0.333 0 0.667 1" calcMode="spline"/><animateTransform repeatCount="indefinite" dur="16s" begin="0s" xlink:href="#_R_G_L_1_G" fill="freeze" attributeName="transform" from="-226.203 -164.853" to="-226.203 -164.853" type="translate" additive="sum" keyTimes="0;1" values="-226.203 -164.853;-226.203 -164.853" keySplines="0 0 1 1" calcMode="spline"/><animateMotion repeatCount="indefinite" dur="16s" begin="0s" xlink:href="#_R_G_L_0_G" fill="freeze" keyTimes="0;0.0625;0.125;0.1875;0.25;0.3125;0.375;0.4375;0.5;0.5625;0.625;0.6875;0.75;0.8125;0.875;0.9375;1" path="M971.62 664.17 C971.62,660.83 971.62,644.17 971.62,644.17 C971.62,644.17 971.62,664.17 971.62,664.17 C971.62,664.17 971.62,644.17 971.62,644.17 C971.62,644.17 971.62,664.17 971.62,664.17 C971.62,664.17 971.62,644.17 971.62,644.17 C971.62,644.17 971.62,664.17 971.62,664.17 C971.62,664.17 971.62,644.17 971.62,644.17 C971.62,644.17 971.62,664.17 971.62,664.17 C971.62,664.17 971.62,644.17 971.62,644.17 C971.62,644.17 971.62,664.17 971.62,664.17 C971.62,664.17 971.62,644.17 971.62,644.17 C971.62,644.17 971.62,664.17 971.62,664.17 C971.62,664.17 971.62,644.17 971.62,644.17 C971.62,644.17 971.62,664.17 971.62,664.17 C971.62,664.17 971.62,644.17 971.62,644.17 C971.62,644.17 971.62,660.83 971.62,664.17 " keyPoints="0;0.06;0.13;0.19;0.25;0.31;0.38;0.44;0.5;0.56;0.63;0.69;0.75;0.81;0.88;0.94;1" keySplines="0.223 0.491 0.667 1;0.333 0 0.833 0.833;0.223 0.491 0.667 1;0.333 0 0.833 0.833;0.223 0.491 0.667 1;0.333 0 0.833 0.833;0.223 0.491 0.667 1;0.333 0 0.833 0.833;0.223 0.491 0.667 1;0.333 0 0.833 0.833;0.223 0.491 0.667 1;0.333 0 0.833 0.833;0.223 0.491 0.667 1;0.333 0 0.833 0.833;0.223 0.491 0.667 1;0.333 0 0.833 0.833" calcMode="spline"/><animateTransform repeatCount="indefinite" dur="16s" begin="0s" xlink:href="#_R_G_L_0_G" fill="freeze" attributeName="transform" from="1 1" to="1 1" type="scale" additive="sum" keyTimes="0;0.0625;0.125;0.1875;0.25;0.3125;0.375;0.4375;0.5;0.5625;0.625;0.6875;0.75;0.8125;0.875;0.9375;1" values="1 1;1.03 1.03;1 1;1.03 1.03;1 1;1.03 1.03;1 1;1.03 1.03;1 1;1.03 1.03;1 1;1.03 1.03;1 1;1.03 1.03;1 1;1.03 1.03;1 1" keySplines="0.167 0.167 0.667 1;0.333 0 0.833 0.833;0.167 0.167 0.667 1;0.333 0 0.833 0.833;0.167 0.167 0.667 1;0.333 0 0.833 0.833;0.167 0.167 0.667 1;0.333 0 0.833 0.833;0.167 0.167 0.667 1;0.333 0 0.833 0.833;0.167 0.167 0.667 1;0.333 0 0.833 0.833;0.167 0.167 0.667 1;0.333 0 0.833 0.833;0.167 0.167 0.667 1;0.333 0 0.833 0.833" calcMode="spline"/><animateTransform repeatCount="indefinite" dur="16s" begin="0s" xlink:href="#_R_G_L_0_G" fill="freeze" attributeName="transform" from="-111.759 -243.457" to="-111.759 -243.457" type="translate" additive="sum" keyTimes="0;1" values="-111.759 -243.457;-111.759 -243.457" keySplines="0 0 1 1" calcMode="spline"/><animate attributeType="XML" attributeName="opacity" dur="16s" from="0" to="1" xlink:href="#time_group"/></defs><g id="_R_G"><g id="_R_G_L_1_G"><path id="_R_G_L_1_G_D_0_P_0" fill="#8269ff" fill-opacity="1" fill-rule="nonzero" d=" M367.76 290.64 C304.23,308.9 263.87,256.65 141.13,265.36 C0.25,275.36 34.32,132.51 154.6,69.94 C283.98,2.64 411.15,0.25 432.35,148.46 C432.23,148.5 452.16,266.37 367.76,290.64z "/><path id="_R_G_L_1_G_D_1_P_0" fill="#8269ff" fill-opacity="1" fill-rule="nonzero" d=" M200.21 300.92 C200.21,316.68 187.44,329.46 171.68,329.46 C155.92,329.46 143.15,316.68 143.15,300.92 C143.15,285.16 155.92,272.39 171.68,272.39 C187.44,272.39 200.21,285.16 200.21,300.92z "/></g><g id="_R_G_L_0_G"><path id="_R_G_L_0_G_D_0_P_0" fill="#f8f8ff" fill-opacity="1" fill-rule="nonzero" d=" M112.16 244.41 C221.02,205.45 217.62,132.39 217.62,123.4 C217.62,114.42 216.29,64.28 216.29,64.28 C127.31,21.85 111.82,2.5 111.82,2.5 C111.82,2.5 111.36,3.18 111.36,3.18 C111.36,3.18 96.21,21.85 7.22,64.28 C7.22,64.28 5.89,114.42 5.89,123.4 C5.89,132.39 2.5,205.45 111.36,244.41 C111.36,244.41 112.16,244.41 112.16,244.41z "/><path id="_R_G_L_0_G_D_1_P_0" stroke="#000000" stroke-linecap="round" stroke-linejoin="round" fill="none" stroke-width="1" stroke-opacity="1" d=" M112.16 244.41 C221.02,205.45 217.62,132.39 217.62,123.4 C217.62,114.42 216.29,64.28 216.29,64.28 C127.31,21.85 111.82,2.5 111.82,2.5 C111.82,2.5 111.36,3.18 111.36,3.18 C111.36,3.18 96.21,21.85 7.22,64.28 C7.22,64.28 5.89,114.42 5.89,123.4 C5.89,132.39 2.5,205.45 111.36,244.41 C111.36,244.41 112.16,244.41 112.16,244.41z "/><path id="_R_G_L_0_G_D_2_P_0" fill="#000000" fill-opacity="1" fill-rule="nonzero" d=" M112.35 1.93 C112.35,1.93 111.89,2.62 111.89,2.62 C111.89,2.62 96.74,21.35 7.73,63.92 C7.73,63.92 6.4,114.22 6.4,123.24 C6.4,132.25 3,205.56 111.89,244.65 C111.89,244.65 112.35,1.93 112.35,1.93z "/><path id="_R_G_L_0_G_D_3_P_0" fill="#ffffff" fill-opacity="1" fill-rule="nonzero" d=" M112.1 225.82 C204.17,192.86 201.3,131.06 201.3,123.46 C201.3,115.86 200.18,73.46 200.18,73.46 C124.91,37.57 112.1,21.77 112.1,21.77 C112.1,21.77 111.43,21.77 111.43,21.77 C111.43,21.77 98.61,37.57 23.34,73.46 C23.34,73.46 22.22,115.86 22.22,123.46 C22.22,131.06 19.35,192.86 111.43,225.82 C111.43,225.82 112.1,225.82 112.1,225.82z "/><path id="_R_G_L_0_G_D_4_P_0" stroke="#2e2b2c" stroke-linecap="round" stroke-linejoin="round" fill="none" stroke-width="1" stroke-opacity="1" d=" M112.1 225.82 C204.17,192.86 201.3,131.06 201.3,123.46 C201.3,115.86 200.18,73.46 200.18,73.46 C124.91,37.57 112.1,21.77 112.1,21.77 C112.1,21.77 111.43,21.77 111.43,21.77 C111.43,21.77 98.61,37.57 23.34,73.46 C23.34,73.46 22.22,115.86 22.22,123.46 C22.22,131.06 19.35,192.86 111.43,225.82 C111.43,225.82 112.1,225.82 112.1,225.82z "/><path id="_R_G_L_0_G_D_5_P_0" stroke="#2e2b2c" stroke-linecap="round" stroke-linejoin="round" fill="none" stroke-width="1" stroke-opacity="1" d=" M77.73 173.12 C77.73,173.12 77.73,177.43 77.73,177.43 "/><path id="_R_G_L_0_G_D_6_P_0" stroke="#2e2b2c" stroke-linecap="round" stroke-linejoin="round" fill="none" stroke-width="1" stroke-opacity="1" d=" M94.53 173.12 C94.53,173.12 94.53,177.43 94.53,177.43 "/><path id="_R_G_L_0_G_D_7_P_0" stroke="#2e2b2c" stroke-linecap="round" stroke-linejoin="round" fill="none" stroke-width="1" stroke-opacity="1" d=" M111.4 173.12 C111.4,173.12 111.4,177.43 111.4,177.43 "/><path id="_R_G_L_0_G_D_8_P_0" stroke="#2e2b2c" stroke-linecap="round" stroke-linejoin="round" fill="none" stroke-width="1" stroke-opacity="1" d=" M128.11 173.12 C128.11,173.12 128.11,177.43 128.11,177.43 "/><path id="_R_G_L_0_G_D_9_P_0" stroke="#2e2b2c" stroke-linecap="round" stroke-linejoin="round" fill="none" stroke-width="1" stroke-opacity="1" d=" M144.9 173.12 C144.9,173.12 144.9,177.43 144.9,177.43 "/><path id="_R_G_L_0_G_D_10_P_0" stroke="#2e2b2c" stroke-linecap="round" stroke-linejoin="round" fill="none" stroke-width="1" stroke-opacity="1" d=" M161.68 173.12 C161.68,173.12 161.68,177.43 161.68,177.43 "/><path id="_R_G_L_0_G_D_11_P_0" stroke="#2e2b2c" stroke-linecap="round" stroke-linejoin="round" fill="none" stroke-width="1" stroke-opacity="1" d=" M60.55 173.12 C60.55,173.12 60.55,177.43 60.55,177.43 "/><path id="_R_G_L_0_G_D_12_P_0" fill="#ffffff" fill-opacity="1" fill-rule="nonzero" d=" M82.55 100.41 C82.55,111.13 75.54,119.83 66.91,119.83 C58.27,119.83 51.27,111.13 51.27,100.41 C51.27,89.68 58.27,80.99 66.91,80.99 C75.54,80.99 82.55,89.68 82.55,100.41z "/><path id="_R_G_L_0_G_D_13_P_0" fill="#f8f8ff" fill-opacity="1" fill-rule="nonzero" d=" M82.55 100.41 C82.55,111.13 75.54,119.83 66.91,119.83 C58.27,119.83 51.27,111.13 51.27,100.41 C51.27,89.68 58.27,80.99 66.91,80.99 C75.54,80.99 82.55,89.68 82.55,100.41z "/><path id="_R_G_L_0_G_D_14_P_0" stroke="#000000" stroke-linecap="round" stroke-linejoin="round" fill="none" stroke-width="1" stroke-opacity="1" d=" M82.55 100.41 C82.55,111.13 75.54,119.83 66.91,119.83 C58.27,119.83 51.27,111.13 51.27,100.41 C51.27,89.68 58.27,80.99 66.91,80.99 C75.54,80.99 82.55,89.68 82.55,100.41z "/><path id="_R_G_L_0_G_D_15_P_0" fill="#f8f8ff" fill-opacity="1" fill-rule="nonzero" d=" M66.92 128.51 C59.27,128.51 55.09,123.48 55.09,123.48 C28.33,123.48 34.73,152.72 34.73,152.72 C34.73,152.72 98.9,152.72 98.9,152.72 C98.9,152.72 105.3,123.48 78.54,123.48 C78.54,123.48 74.36,128.51 66.71,128.51 "/><path id="_R_G_L_0_G_D_16_P_0" stroke="#000000" stroke-linecap="round" stroke-linejoin="round" fill="none" stroke-width="1" stroke-opacity="1" d=" M66.92 128.51 C59.27,128.51 55.09,123.48 55.09,123.48 C28.33,123.48 34.73,152.72 34.73,152.72 C34.73,152.72 98.9,152.72 98.9,152.72 C98.9,152.72 105.3,123.48 78.54,123.48 C78.54,123.48 74.36,128.51 66.71,128.51 "/><path id="_R_G_L_0_G_D_17_P_0" stroke="#2e2b2c" stroke-linecap="round" stroke-linejoin="round" fill="none" stroke-width="1" stroke-opacity="1" d=" M66.92 128.51 C59.27,128.51 55.09,123.48 55.09,123.48 C28.33,123.48 34.73,152.72 34.73,152.72 C34.73,152.72 98.9,152.72 98.9,152.72 C98.9,152.72 105.3,123.48 78.54,123.48 C78.54,123.48 74.36,128.51 66.71,128.51 "/><path id="_R_G_L_0_G_D_18_P_0" fill="#f8f8ff" fill-opacity="1" fill-rule="nonzero" d=" M172.43 100.41 C172.43,111.13 165.43,119.83 156.79,119.83 C148.16,119.83 141.15,111.13 141.15,100.41 C141.15,89.68 148.16,80.99 156.79,80.99 C165.43,80.99 172.43,89.68 172.43,100.41z "/><path id="_R_G_L_0_G_D_19_P_0" stroke="#000000" stroke-linecap="round" stroke-linejoin="round" fill="none" stroke-width="1" stroke-opacity="1" d=" M172.43 100.41 C172.43,111.13 165.43,119.83 156.79,119.83 C148.16,119.83 141.15,111.13 141.15,100.41 C141.15,89.68 148.16,80.99 156.79,80.99 C165.43,80.99 172.43,89.68 172.43,100.41z "/><path id="_R_G_L_0_G_D_20_P_0" stroke="#2e2b2c" stroke-linecap="round" stroke-linejoin="round" fill="none" stroke-width="1" stroke-opacity="1" d=" M172.43 100.41 C172.43,111.13 165.43,119.83 156.79,119.83 C148.16,119.83 141.15,111.13 141.15,100.41 C141.15,89.68 148.16,80.99 156.79,80.99 C165.43,80.99 172.43,89.68 172.43,100.41z "/><path id="_R_G_L_0_G_D_21_P_0" fill="#f8f8ff" fill-opacity="1" fill-rule="nonzero" d=" M156.81 128.51 C149.16,128.51 144.98,123.48 144.98,123.48 C118.22,123.48 124.62,152.72 124.62,152.72 C124.62,152.72 188.79,152.72 188.79,152.72 C188.79,152.72 195.19,123.48 168.43,123.48 C168.43,123.48 164.25,128.51 156.6,128.51 "/><path id="_R_G_L_0_G_D_22_P_0" stroke="#000000" stroke-linecap="round" stroke-linejoin="round" fill="none" stroke-width="1" stroke-opacity="1" d=" M156.81 128.51 C149.16,128.51 144.98,123.48 144.98,123.48 C118.22,123.48 124.62,152.72 124.62,152.72 C124.62,152.72 188.79,152.72 188.79,152.72 C188.79,152.72 195.19,123.48 168.43,123.48 C168.43,123.48 164.25,128.51 156.6,128.51 "/><path id="_R_G_L_0_G_D_23_P_0" stroke="#2e2b2c" stroke-linecap="round" stroke-linejoin="round" fill="none" stroke-width="1" stroke-opacity="1" d=" M156.81 128.51 C149.16,128.51 144.98,123.48 144.98,123.48 C118.22,123.48 124.62,152.72 124.62,152.72 C124.62,152.72 188.79,152.72 188.79,152.72 C188.79,152.72 195.19,123.48 168.43,123.48 C168.43,123.48 164.25,128.51 156.6,128.51 "/><path id="_R_G_L_0_G_D_24_P_0" fill="#f8f8ff" fill-opacity="1" fill-rule="nonzero" d=" M130.57 94.57 C130.57,107.67 122.02,118.29 111.47,118.29 C100.93,118.29 92.38,107.67 92.38,94.57 C92.38,81.47 100.93,70.86 111.47,70.86 C122.02,70.86 130.57,81.47 130.57,94.57z "/><path id="_R_G_L_0_G_D_25_P_0" stroke="#000000" stroke-linecap="round" stroke-linejoin="round" fill="none" stroke-width="1" stroke-opacity="1" d=" M130.57 94.57 C130.57,107.67 122.02,118.29 111.47,118.29 C100.93,118.29 92.38,107.67 92.38,94.57 C92.38,81.47 100.93,70.86 111.47,70.86 C122.02,70.86 130.57,81.47 130.57,94.57z "/><path id="_R_G_L_0_G_D_26_P_0" fill="#fe675e" fill-opacity="1" fill-rule="nonzero" d=" M115.46 116.12 C104.91,116.12 97.78,105.5 97.78,92.41 C97.78,83.65 100.2,76 105.89,71.89 C98.07,74.86 92.38,83.89 92.38,94.57 C92.38,107.67 100.93,118.29 111.47,118.29 C114.96,118.29 118.23,117.12 121.04,115.09 C119.28,115.76 117.4,116.12 115.46,116.12z "/><path id="_R_G_L_0_G_D_27_P_0" stroke="#2e2b2c" stroke-linecap="round" stroke-linejoin="round" fill="none" stroke-width="1" stroke-opacity="1" d=" M130.57 94.57 C130.57,107.67 122.02,118.29 111.47,118.29 C100.93,118.29 92.38,107.67 92.38,94.57 C92.38,81.47 100.93,70.86 111.47,70.86 C122.02,70.86 130.57,81.47 130.57,94.57z "/><path id="_R_G_L_0_G_D_28_P_0" fill="#f8f8ff" fill-opacity="1" fill-rule="nonzero" d=" M111.49 128.89 C102.15,128.89 97.05,122.75 97.05,122.75 C64.37,122.75 72.19,158.45 72.19,158.45 C72.19,158.45 150.54,158.45 150.54,158.45 C150.54,158.45 158.36,122.75 125.68,122.75 C125.68,122.75 120.58,128.89 111.24,128.89 "/><path id="_R_G_L_0_G_D_29_P_0" stroke="#000000" stroke-linecap="round" stroke-linejoin="round" fill="none" stroke-width="1" stroke-opacity="1" d=" M111.49 128.89 C102.15,128.89 97.05,122.75 97.05,122.75 C64.37,122.75 72.19,158.45 72.19,158.45 C72.19,158.45 150.54,158.45 150.54,158.45 C150.54,158.45 158.36,122.75 125.68,122.75 C125.68,122.75 120.58,128.89 111.24,128.89 "/><path id="_R_G_L_0_G_D_30_P_0" fill="#fe675e" fill-opacity="1" fill-rule="nonzero" d=" M97.18 122.9 C97.1,122.81 97.05,122.75 97.05,122.75 C64.37,122.75 72.19,158.46 72.19,158.46 C72.19,158.46 79.78,158.46 79.78,158.46 C79.78,158.46 74.32,124.81 97.18,122.9z "/><path id="_R_G_L_0_G_D_31_P_0" fill="#fe675e" fill-opacity="1" fill-rule="nonzero" d=" M115.01 128.89 C123.43,128.84 128.37,123.81 129.19,122.9 C128.07,122.81 126.91,122.75 125.68,122.75 C125.68,122.75 121.28,128.03 113.19,128.79 C113.78,128.85 114.38,128.88 115.01,128.89z "/><path id="_R_G_L_0_G_D_32_P_0" stroke="#2e2b2c" stroke-linecap="round" stroke-linejoin="round" fill="none" stroke-width="1" stroke-opacity="1" d=" M111.49 128.89 C102.15,128.89 97.05,122.75 97.05,122.75 C64.37,122.75 72.19,158.45 72.19,158.45 C72.19,158.45 150.54,158.45 150.54,158.45 C150.54,158.45 158.36,122.75 125.68,122.75 C125.68,122.75 120.58,128.89 111.24,128.89 "/><path id="_R_G_L_0_G_D_33_P_0" fill="#fe675e" fill-opacity="1" fill-rule="nonzero" d=" M112.26 21.77 C112.26,21.77 121.98,41.24 196.98,76.54 C196.98,76.54 197.65,116.88 197.65,125.21 C197.65,133.54 199.98,187.86 112.26,225.82 C112.26,225.82 181.31,204.64 197.65,150.09 C197.65,150.09 201.97,139.9 201.22,109.21 C200.48,78.52 200.35,73.46 200.35,73.46 C200.35,73.46 145.88,50.34 112.26,21.77z "/><path id="_R_G_L_0_G_D_34_P_0" stroke="#2e2b2c" stroke-linecap="round" stroke-linejoin="round" fill="none" stroke-width="1" stroke-opacity="1" d=" M112.1 225.82 C204.17,192.86 201.3,131.06 201.3,123.46 C201.3,115.86 200.18,73.46 200.18,73.46 C124.91,37.57 112.1,21.77 112.1,21.77 C112.1,21.77 111.43,21.77 111.43,21.77 C111.43,21.77 98.61,37.57 23.34,73.46 C23.34,73.46 22.22,115.86 22.22,123.46 C22.22,131.06 19.35,192.86 111.43,225.82 C111.43,225.82 112.1,225.82 112.1,225.82z "/></g></g><g id="time_group"/></svg>