<svg version="1.2" baseProfile="tiny-ps" xmlns="http://www.w3.org/2000/svg" viewBox="0 0 588 468" width="588" height="468">
	<title>solona_logo-svg</title>
	<defs>
		<linearGradient id="grd1" gradientUnits="userSpaceOnUse"  x1="382.609" y1="-83.145" x2="94.383" y2="468.923">
			<stop offset="0" stop-color="#00ffa3"  />
			<stop offset="1" stop-color="#dc1fff"  />
		</linearGradient>
		<linearGradient id="grd2" gradientUnits="userSpaceOnUse"  x1="382.609" y1="-83.145" x2="94.383" y2="468.923">
			<stop offset="0" stop-color="#00ffa3"  />
			<stop offset="1" stop-color="#dc1fff"  />
		</linearGradient>
		<linearGradient id="grd3" gradientUnits="userSpaceOnUse"  x1="382.609" y1="-83.145" x2="94.383" y2="468.923">
			<stop offset="0" stop-color="#00ffa3"  />
			<stop offset="1" stop-color="#dc1fff"  />
		</linearGradient>
	</defs>
	<style>
		tspan { white-space:pre }
		.shp0 { fill: #ffffff } 
		.shp1 { fill: url(#grd1) } 
		.shp2 { fill: url(#grd2) } 
		.shp3 { fill: url(#grd3) } 
	</style>
	<path id="Layer" class="shp0" d="M771.35 253L853.8 253C865.38 253 874.77 262.46 874.77 274.13C874.77 285.8 865.38 295.26 853.8 295.26L754.35 295.26C752.8 295.26 751.29 295.82 750.11 296.83L720.09 322.72C715.49 326.68 718.27 334.26 724.32 334.26L848.82 334.26C848.87 334.26 848.91 334.22 848.91 334.17C848.91 334.12 848.96 334.07 849.01 334.08C850.58 334.2 852.16 334.26 853.76 334.26C886.79 334.26 913.56 307.34 913.56 274.13C913.56 242.59 889.42 216.72 858.7 214.2C858.65 214.19 858.61 214.15 858.61 214.1C858.61 214.04 858.57 213.99 858.51 213.99L769.68 213.99C758.1 213.99 748.71 204.53 748.71 192.87C748.71 181.2 758.1 171.74 769.68 171.74L869 171.74C870.63 171.74 872.21 171.12 873.41 170L901.29 144.12C905.66 140.07 902.81 132.73 896.88 132.73L771.35 132.73C771.34 132.73 771.34 132.74 771.34 132.74C771.34 132.75 771.33 132.75 771.33 132.75C770.79 132.74 770.26 132.73 769.72 132.73C736.7 132.73 709.92 159.65 709.92 192.87C709.92 226.08 736.7 253 769.72 253C770.26 253 770.79 252.99 771.33 252.98C771.33 252.98 771.34 252.98 771.34 252.99C771.34 253 771.34 253 771.35 253Z" />
	<path id="Layer" class="shp0" d="M1251.59 132.73C1247.98 132.73 1245.06 135.67 1245.06 139.29L1245.06 327.7C1245.06 331.33 1247.98 334.26 1251.59 334.26L1402.57 334.26C1404.37 334.26 1406.1 333.51 1407.33 332.19L1426.23 311.92C1430.14 307.73 1427.18 300.88 1421.47 300.88L1289.64 300.88C1286.04 300.88 1283.12 297.94 1283.12 294.31L1283.12 139.29C1283.12 135.67 1280.19 132.73 1276.59 132.73L1251.59 132.73Z" />
	<path id="Layer" fill-rule="evenodd" class="shp0" d="M1146.76 132.73C1146.77 132.73 1146.78 132.74 1146.78 132.75C1146.78 132.76 1146.79 132.76 1146.8 132.76C1166.1 133.6 1181.59 149.13 1182.43 168.47C1182.43 168.48 1182.43 168.49 1182.44 168.49C1182.45 168.49 1182.46 168.49 1182.46 168.5L1182.46 295.24C1182.46 295.25 1182.45 295.26 1182.45 295.26C1182.44 295.26 1182.43 295.26 1182.43 295.27C1182.45 295.81 1182.46 296.34 1182.46 296.88C1182.46 316.98 1166.64 333.37 1146.8 334.23L1146.79 334.23L1146.79 334.24L1146.78 334.25C1146.78 334.25 1146.77 334.26 1146.76 334.26L1009.77 334.26C1009.76 334.26 1009.76 334.26 1009.75 334.26L1009.75 334.25C1009.75 334.24 1009.74 334.23 1009.73 334.23C989.89 333.37 974.07 316.98 974.07 296.88C974.07 296.34 974.08 295.81 974.1 295.27C974.1 295.26 974.09 295.26 974.08 295.26C974.08 295.26 974.07 295.25 974.07 295.24C974.07 295.24 974.07 168.5 974.07 168.49C974.08 168.49 974.08 168.49 974.09 168.49C974.09 168.49 974.1 168.48 974.1 168.47C974.94 149.13 990.43 133.6 1009.73 132.76C1009.74 132.76 1009.75 132.76 1009.75 132.75C1009.75 132.74 1009.76 132.73 1009.77 132.73L1146.76 132.73ZM1035.3 168.49L1035.29 168.49L1035.29 168.5C1035.29 168.5 1035.29 168.51 1035.28 168.51C1023.22 169.03 1013.53 178.8 1013.01 190.97C1013.01 190.97 1013.01 190.98 1013 190.98C1013 190.98 1012.99 190.98 1012.99 190.99L1012.99 270.71C1012.99 270.72 1013 270.72 1013 270.72C1013.01 270.72 1013.01 270.73 1013.01 270.73C1013 271.07 1012.99 271.4 1012.99 271.74C1012.99 284.38 1022.88 294.69 1035.28 295.24C1035.29 295.24 1035.29 295.24 1035.29 295.25L1035.29 295.25L1035.3 295.25L1035.3 295.26L1121.23 295.26L1121.23 295.26L1121.24 295.25L1121.24 295.25C1121.24 295.24 1121.24 295.24 1121.25 295.24C1133.65 294.69 1143.54 284.38 1143.54 271.74C1143.54 271.4 1143.53 271.07 1143.52 270.73L1143.52 270.73L1143.53 270.72C1143.53 270.72 1143.54 270.72 1143.54 270.71L1143.54 190.99C1143.54 190.98 1143.53 190.98 1143.53 190.98C1143.52 190.98 1143.52 190.97 1143.52 190.97C1143 178.8 1133.31 169.03 1121.25 168.51C1121.24 168.51 1121.24 168.5 1121.24 168.5L1121.24 168.49L1121.23 168.49L1121.23 168.49L1035.3 168.49Z" />
	<path id="Layer" fill-rule="evenodd" class="shp0" d="M1645.78 262.81C1645.78 259.19 1642.88 256.25 1639.3 256.25L1523.91 256.25C1520.33 256.25 1517.43 259.19 1517.43 262.81L1517.43 327.7C1517.43 331.33 1514.53 334.26 1510.96 334.26L1485.35 334.26C1481.78 334.26 1478.88 331.33 1478.88 327.7L1478.88 171.75C1478.88 171.74 1478.89 171.74 1478.9 171.74C1478.91 171.74 1478.91 171.73 1478.91 171.72C1478.89 171.19 1478.88 170.65 1478.88 170.11C1478.88 149.47 1495.42 132.73 1515.83 132.73C1516.36 132.73 1516.89 132.74 1517.41 132.76C1517.42 132.76 1517.43 132.76 1517.43 132.75C1517.43 132.74 1517.44 132.73 1517.45 132.73L1648.97 132.73C1648.98 132.73 1648.99 132.74 1648.99 132.75C1648.99 132.76 1649 132.76 1649.01 132.76C1668.66 133.63 1684.33 150.02 1684.33 170.11C1684.33 170.65 1684.32 171.19 1684.3 171.72C1684.3 171.72 1684.3 171.73 1684.3 171.73L1684.31 171.73L1684.31 171.74C1684.32 171.74 1684.33 171.74 1684.33 171.75L1684.33 327.7C1684.33 331.33 1681.43 334.26 1677.86 334.26L1652.25 334.26C1648.68 334.26 1645.78 331.33 1645.78 327.7L1645.78 262.81ZM1523.91 227L1639.3 227C1642.88 227 1645.78 224.06 1645.78 220.43L1645.78 187.99C1645.78 175.42 1635.71 165.24 1623.29 165.24L1539.92 165.24C1527.5 165.24 1517.43 175.42 1517.43 187.99L1517.43 220.43C1517.43 224.06 1520.33 227 1523.91 227Z" />
	<path id="Layer" fill-rule="evenodd" class="shp0" d="M2186.29 334.26C2182.68 334.26 2179.75 331.33 2179.75 327.7L2179.75 262.81C2179.75 259.19 2176.83 256.25 2173.22 256.25L2056.54 256.25C2052.93 256.25 2050.01 259.19 2050.01 262.81L2050.01 327.7C2050.01 331.33 2047.08 334.26 2043.47 334.26L2017.62 334.26C2014.01 334.26 2011.08 331.33 2011.08 327.7L2011.08 171.75L2011.09 171.74C2011.09 171.74 2011.1 171.74 2011.1 171.74C2011.11 171.74 2011.12 171.73 2011.12 171.72C2011.1 171.19 2011.08 170.65 2011.08 170.11C2011.08 149.47 2027.78 132.73 2048.39 132.73C2048.92 132.73 2049.46 132.74 2049.99 132.76C2050 132.76 2050.01 132.76 2050.01 132.75C2050.01 132.74 2050.02 132.73 2050.02 132.73L2182.98 132.73C2182.99 132.73 2183 132.74 2183 132.75C2183 132.76 2183 132.76 2183.01 132.76C2202.85 133.63 2218.68 150.02 2218.68 170.11C2218.68 170.65 2218.66 171.19 2218.64 171.72C2218.64 171.73 2218.65 171.74 2218.66 171.74C2218.66 171.74 2218.67 171.74 2218.67 171.74C2218.67 171.75 2218.68 171.75 2218.68 171.75L2218.68 327.7C2218.68 331.33 2215.75 334.26 2212.14 334.26L2186.29 334.26ZM2050.01 187.99L2050.01 220.43C2050.01 224.06 2052.93 227 2056.54 227L2173.22 227C2176.83 227 2179.75 224.06 2179.75 220.43L2179.75 187.99C2179.75 175.42 2169.59 165.24 2157.05 165.24L2072.71 165.24C2060.17 165.24 2050.01 175.42 2050.01 187.99Z" />
	<path id="Layer" class="shp0" d="M1780.71 132.73C1782.61 132.73 1784.41 133.57 1785.64 135.03L1900.48 271.93C1904.38 276.57 1911.88 273.77 1911.88 267.68L1911.88 139.29C1911.88 135.67 1914.77 132.73 1918.35 132.73L1943.96 132.73C1947.53 132.73 1950.43 135.67 1950.43 139.29L1950.43 327.7C1950.43 331.33 1947.53 334.26 1943.96 334.26L1912.12 334.26C1911.98 334.26 1911.88 334.15 1911.88 334.02C1911.88 333.96 1911.85 333.9 1911.82 333.86L1795.05 197.91C1791.11 193.35 1783.7 196.17 1783.7 202.23L1783.7 327.7C1783.7 331.33 1780.8 334.26 1777.23 334.26L1751.45 334.26C1747.88 334.26 1744.98 331.33 1744.98 327.7L1744.98 139.29C1744.98 135.67 1747.88 132.73 1751.45 132.73L1780.71 132.73Z" />
	<path id="Layer" class="shp1" d="M114.63 341.2C117.82 338.01 122.15 336.22 126.66 336.22L543.12 336.22C550.71 336.22 554.5 345.39 549.14 350.76L466.85 432.98C463.65 436.17 459.33 437.97 454.81 437.97L38.35 437.97C30.76 437.97 26.97 428.79 32.33 423.43L114.63 341.2Z" />
	<path id="Layer" class="shp2" d="M114.63 34.01C117.82 30.82 122.15 29.03 126.66 29.03L543.12 29.03C550.71 29.03 554.5 38.2 549.14 43.56L466.85 125.79C463.65 128.98 459.33 130.77 454.81 130.77L38.35 130.77C30.76 130.77 26.97 121.6 32.33 116.24L114.63 34.01Z" />
	<path id="Layer" class="shp3" d="M466.85 186.63C463.65 183.44 459.33 181.65 454.81 181.65L38.35 181.65C30.76 181.65 26.97 190.82 32.33 196.18L114.63 278.41C117.82 281.6 122.15 283.39 126.66 283.39L543.12 283.39C550.71 283.39 554.5 274.22 549.14 268.85L466.85 186.63Z" />
</svg>