<svg xmlns="http://www.w3.org/2000/svg" xmlns:xlink="http://www.w3.org/1999/xlink" preserveAspectRatio="xMidYMid meet" width="1920" height="1080" viewBox="0 0 1920 1080" style="width:100%;height:100%"><defs><animateTransform repeatCount="indefinite" dur="15.04s" begin="0s" xlink:href="#_R_G_L_8_G" fill="freeze" attributeName="transform" from="9.958" to="9.958" type="rotate" additive="sum" keyTimes="0;0.0239362;0.0691489;0.0984043;0.1994681;0.2234043;0.268617;0.2978723;0.3989362;0.4228723;0.4680851;0.4973404;0.5984043;0.6223404;0.6675532;0.6968085;0.7978723;0.8218085;0.8670213;0.8962766;0.9973404;1" values="9.958;8.766;8.766;9.958;9.958;8.766;8.766;9.958;9.958;8.766;8.766;9.958;9.958;8.766;8.766;9.958;9.958;8.766;8.766;9.958;9.958;9.958" keySplines="0.333 0 0.667 1;0.333 0 0.667 1;0.333 0 0.667 1;0.333 0 0.667 1;0.333 0 0.667 1;0.333 0 0.667 1;0.333 0 0.667 1;0.333 0 0.667 1;0.333 0 0.667 1;0.333 0 0.667 1;0.333 0 0.667 1;0.333 0 0.667 1;0.333 0 0.667 1;0.333 0 0.667 1;0.333 0 0.667 1;0.333 0 0.667 1;0.333 0 0.667 1;0.333 0 0.667 1;0.333 0 0.667 1;0.333 0 0.667 1;0 0 0 0" calcMode="spline"/><animateTransform repeatCount="indefinite" dur="15.04s" begin="0s" xlink:href="#_R_G_L_8_G" fill="freeze" attributeName="transform" from="-8.76 -19.29" to="-8.76 -19.29" type="translate" additive="sum" keyTimes="0;1" values="-8.76 -19.29;-8.76 -19.29" keySplines="0 0 1 1" calcMode="spline"/><clipPath id="_R_G_L_6_C_0"><path id="_R_G_L_6_C_0_P_0" fill-rule="nonzero" d="M1028.5 400.5 C1028.5,400.5 897.5,400.5 897.5,400.5 C897.5,400.5 931.5,553 931.5,553 C931.5,553 1028.5,553 1028.5,553 C1028.5,553 1028.5,400.5 1028.5,400.5z "/></clipPath><clipPath id="_R_G_L_6_G_G_0_L_0_C_0"><path id="_R_G_L_6_G_G_0_L_0_C_0_P_0" fill-rule="nonzero" d="M0.5 0.71 C0.5,0.71 0.5,53.03 0.5,53.03 C0.5,53.03 60.45,53.03 60.45,53.03 C60.45,53.03 60.45,0.71 60.45,0.71 C60.45,0.71 0.5,0.71 0.5,0.71z "/></clipPath><animateMotion repeatCount="indefinite" dur="15.04s" begin="0s" xlink:href="#_R_G_L_6_G_G_0_L_0_G" fill="freeze" keyTimes="0;0.0664894;0.1994681;1" path="M962.04 432.17 C962.04,432.17 962.04,432.17 962.04,432.17 C958.97,455.56 946.72,549.1 943.66,572.49 C943.66,572.49 943.66,572.49 943.66,572.49 " keyPoints="0;0;1;1" keySplines="0.333 0 0.667 1;0.333 0 0.667 1;0 0 0 0" calcMode="spline"/><animateTransform repeatCount="indefinite" dur="15.04s" begin="0s" xlink:href="#_R_G_L_6_G_G_0_L_0_G" fill="freeze" attributeName="transform" from="204.948" to="-1.068" type="rotate" additive="sum" keyTimes="0;0.0239362;0.0664894;0.1329787;0.1994681;1" values="204.948;-12.333;-0.884;-12.333;-1.068;-1.068" keySplines="0.167 0.167 0.667 1;0.333 0 0.667 1;0.333 0 0.667 1;0.333 0 0.833 1;0 0 0 0" calcMode="spline"/><animateTransform repeatCount="indefinite" dur="15.04s" begin="0s" xlink:href="#_R_G_L_6_G_G_0_L_0_G" fill="freeze" attributeName="transform" from="0 0" to="1 1" type="scale" additive="sum" keyTimes="0;0.0239362;0.1329787;1" values="0 0;1 1;1 1;1 1" keySplines="0.167 0.167 0.667 1;0.333 0 0.667 1;0 0 0 0" calcMode="spline"/><animateTransform repeatCount="indefinite" dur="15.04s" begin="0s" xlink:href="#_R_G_L_6_G_G_0_L_0_G" fill="freeze" attributeName="transform" from="-9.579 -13.87" to="-9.579 -13.87" type="translate" additive="sum" keyTimes="0;1" values="-9.579 -13.87;-9.579 -13.87" keySplines="0 0 1 1" calcMode="spline"/><animate repeatCount="indefinite" dur="15.04s" begin="0s" xlink:href="#_R_G_L_6_G_M" fill="freeze" attributeName="opacity" from="1" to="0" keyTimes="0;0.1994681;0.1994681;1" values="1;1;0;0" keySplines="0 0 0 0;0 0 0 0;0 0 0 0" calcMode="spline"/><clipPath id="_R_G_L_5_C_0"><path id="_R_G_L_5_C_0_P_0" fill-rule="nonzero" d="M1028.5 400.5 C1028.5,400.5 897.5,400.5 897.5,400.5 C897.5,400.5 931.5,553 931.5,553 C931.5,553 1028.5,553 1028.5,553 C1028.5,553 1028.5,400.5 1028.5,400.5z "/></clipPath><clipPath id="_R_G_L_5_G_G_0_L_0_C_0"><path id="_R_G_L_5_G_G_0_L_0_C_0_P_0" fill-rule="nonzero" d="M0.5 0.71 C0.5,0.71 0.5,53.03 0.5,53.03 C0.5,53.03 60.45,53.03 60.45,53.03 C60.45,53.03 60.45,0.71 60.45,0.71 C60.45,0.71 0.5,0.71 0.5,0.71z "/></clipPath><animateMotion repeatCount="indefinite" dur="15.04s" begin="0s" xlink:href="#_R_G_L_5_G_G_0_L_0_G" fill="freeze" keyTimes="0;0.1994681;0.2659574;0.3989362;1" path="M962.04 432.17 C962.04,432.17 962.04,432.17 962.04,432.17 C962.04,432.17 962.04,432.17 962.04,432.17 C958.97,455.56 946.72,549.1 943.66,572.49 C943.66,572.49 943.66,572.49 943.66,572.49 " keyPoints="0;0;0;1;1" keySplines="0.333 0 0.667 1;0.333 0 0.667 1;0.333 0 0.667 1;0 0 0 0" calcMode="spline"/><animateTransform repeatCount="indefinite" dur="15.04s" begin="0s" xlink:href="#_R_G_L_5_G_G_0_L_0_G" fill="freeze" attributeName="transform" from="204.948" to="-1.068" type="rotate" additive="sum" keyTimes="0;0.1994681;0.2234043;0.2659574;0.3324468;0.3989362;1" values="204.948;204.948;-12.333;-0.884;-12.333;-1.068;-1.068" keySplines="0.167 0.167 0.667 1;0.167 0.167 0.667 1;0.333 0 0.667 1;0.333 0 0.667 1;0.333 0 0.833 1;0 0 0 0" calcMode="spline"/><animateTransform repeatCount="indefinite" dur="15.04s" begin="0s" xlink:href="#_R_G_L_5_G_G_0_L_0_G" fill="freeze" attributeName="transform" from="0 0" to="1 1" type="scale" additive="sum" keyTimes="0;0.1994681;0.2234043;0.3324468;1" values="0 0;0 0;1 1;1 1;1 1" keySplines="0.167 0.167 0.667 1;0.167 0.167 0.667 1;0.333 0 0.667 1;0 0 0 0" calcMode="spline"/><animateTransform repeatCount="indefinite" dur="15.04s" begin="0s" xlink:href="#_R_G_L_5_G_G_0_L_0_G" fill="freeze" attributeName="transform" from="-9.579 -13.87" to="-9.579 -13.87" type="translate" additive="sum" keyTimes="0;0.1994681;1" values="-9.579 -13.87;-9.579 -13.87;-9.579 -13.87" keySplines="0 0 1 1;0 0 0 0" calcMode="spline"/><animate repeatCount="indefinite" dur="15.04s" begin="0s" xlink:href="#_R_G_L_5_G_G_0_L_0_G_M" fill="freeze" attributeName="opacity" from="0" to="1" keyTimes="0;0.1994681;0.1994681;0.1994684;1" values="0;0;0;1;1" keySplines="0 0 0 0;0 0 0 0;0 0 0 0;0 0 0 0" calcMode="spline"/><animate repeatCount="indefinite" dur="15.04s" begin="0s" xlink:href="#_R_G_L_5_G_M" fill="freeze" attributeName="opacity" from="0" to="0" keyTimes="0;0.1994681;0.1994684;0.3989362;0.3989362;1" values="0;0;1;1;0;0" keySplines="0 0 0 0;0 0 0 0;0 0 0 0;0 0 0 0;0 0 0 0" calcMode="spline"/><clipPath id="_R_G_L_4_C_0"><path id="_R_G_L_4_C_0_P_0" fill-rule="nonzero" d="M1028.5 400.5 C1028.5,400.5 897.5,400.5 897.5,400.5 C897.5,400.5 931.5,553 931.5,553 C931.5,553 1028.5,553 1028.5,553 C1028.5,553 1028.5,400.5 1028.5,400.5z "/></clipPath><clipPath id="_R_G_L_4_G_G_0_L_0_C_0"><path id="_R_G_L_4_G_G_0_L_0_C_0_P_0" fill-rule="nonzero" d="M0.5 0.71 C0.5,0.71 0.5,53.03 0.5,53.03 C0.5,53.03 60.45,53.03 60.45,53.03 C60.45,53.03 60.45,0.71 60.45,0.71 C60.45,0.71 0.5,0.71 0.5,0.71z "/></clipPath><animateMotion repeatCount="indefinite" dur="15.04s" begin="0s" xlink:href="#_R_G_L_4_G_G_0_L_0_G" fill="freeze" keyTimes="0;0.3989362;0.4654255;0.5984043;1" path="M962.04 432.17 C962.04,432.17 962.04,432.17 962.04,432.17 C962.04,432.17 962.04,432.17 962.04,432.17 C958.97,455.56 946.72,549.1 943.66,572.49 C943.66,572.49 943.66,572.49 943.66,572.49 " keyPoints="0;0;0;1;1" keySplines="0.333 0 0.667 1;0.333 0 0.667 1;0.333 0 0.667 1;0 0 0 0" calcMode="spline"/><animateTransform repeatCount="indefinite" dur="15.04s" begin="0s" xlink:href="#_R_G_L_4_G_G_0_L_0_G" fill="freeze" attributeName="transform" from="204.948" to="-1.068" type="rotate" additive="sum" keyTimes="0;0.3989362;0.4228723;0.4654255;0.5319149;0.5984043;1" values="204.948;204.948;-12.333;-0.884;-12.333;-1.068;-1.068" keySplines="0.167 0.167 0.667 1;0.167 0.167 0.667 1;0.333 0 0.667 1;0.333 0 0.667 1;0.333 0 0.833 1;0 0 0 0" calcMode="spline"/><animateTransform repeatCount="indefinite" dur="15.04s" begin="0s" xlink:href="#_R_G_L_4_G_G_0_L_0_G" fill="freeze" attributeName="transform" from="0 0" to="1 1" type="scale" additive="sum" keyTimes="0;0.3989362;0.4228723;0.5319149;1" values="0 0;0 0;1 1;1 1;1 1" keySplines="0.167 0.167 0.667 1;0.167 0.167 0.667 1;0.333 0 0.667 1;0 0 0 0" calcMode="spline"/><animateTransform repeatCount="indefinite" dur="15.04s" begin="0s" xlink:href="#_R_G_L_4_G_G_0_L_0_G" fill="freeze" attributeName="transform" from="-9.579 -13.87" to="-9.579 -13.87" type="translate" additive="sum" keyTimes="0;0.3989362;1" values="-9.579 -13.87;-9.579 -13.87;-9.579 -13.87" keySplines="0 0 1 1;0 0 0 0" calcMode="spline"/><animate repeatCount="indefinite" dur="15.04s" begin="0s" xlink:href="#_R_G_L_4_G_G_0_L_0_G_M" fill="freeze" attributeName="opacity" from="0" to="1" keyTimes="0;0.3989362;0.3989362;0.3989364;1" values="0;0;0;1;1" keySplines="0 0 0 0;0 0 0 0;0 0 0 0;0 0 0 0" calcMode="spline"/><animate repeatCount="indefinite" dur="15.04s" begin="0s" xlink:href="#_R_G_L_4_G_M" fill="freeze" attributeName="opacity" from="0" to="0" keyTimes="0;0.3989362;0.3989364;0.5984043;0.5984043;1" values="0;0;1;1;0;0" keySplines="0 0 0 0;0 0 0 0;0 0 0 0;0 0 0 0;0 0 0 0" calcMode="spline"/><clipPath id="_R_G_L_3_C_0"><path id="_R_G_L_3_C_0_P_0" fill-rule="nonzero" d="M1028.5 400.5 C1028.5,400.5 897.5,400.5 897.5,400.5 C897.5,400.5 931.5,553 931.5,553 C931.5,553 1028.5,553 1028.5,553 C1028.5,553 1028.5,400.5 1028.5,400.5z "/></clipPath><clipPath id="_R_G_L_3_G_G_0_L_0_C_0"><path id="_R_G_L_3_G_G_0_L_0_C_0_P_0" fill-rule="nonzero" d="M0.5 0.71 C0.5,0.71 0.5,53.03 0.5,53.03 C0.5,53.03 60.45,53.03 60.45,53.03 C60.45,53.03 60.45,0.71 60.45,0.71 C60.45,0.71 0.5,0.71 0.5,0.71z "/></clipPath><animateMotion repeatCount="indefinite" dur="15.04s" begin="0s" xlink:href="#_R_G_L_3_G_G_0_L_0_G" fill="freeze" keyTimes="0;0.5984043;0.6648936;0.7978723;1" path="M962.04 432.17 C962.04,432.17 962.04,432.17 962.04,432.17 C962.04,432.17 962.04,432.17 962.04,432.17 C958.97,455.56 946.72,549.1 943.66,572.49 C943.66,572.49 943.66,572.49 943.66,572.49 " keyPoints="0;0;0;1;1" keySplines="0.333 0 0.667 1;0.333 0 0.667 1;0.333 0 0.667 1;0 0 0 0" calcMode="spline"/><animateTransform repeatCount="indefinite" dur="15.04s" begin="0s" xlink:href="#_R_G_L_3_G_G_0_L_0_G" fill="freeze" attributeName="transform" from="204.948" to="-1.068" type="rotate" additive="sum" keyTimes="0;0.5984043;0.6223404;0.6648936;0.731383;0.7978723;1" values="204.948;204.948;-12.333;-0.884;-12.333;-1.068;-1.068" keySplines="0.167 0.167 0.667 1;0.167 0.167 0.667 1;0.333 0 0.667 1;0.333 0 0.667 1;0.333 0 0.833 1;0 0 0 0" calcMode="spline"/><animateTransform repeatCount="indefinite" dur="15.04s" begin="0s" xlink:href="#_R_G_L_3_G_G_0_L_0_G" fill="freeze" attributeName="transform" from="0 0" to="1 1" type="scale" additive="sum" keyTimes="0;0.5984043;0.6223404;0.731383;1" values="0 0;0 0;1 1;1 1;1 1" keySplines="0.167 0.167 0.667 1;0.167 0.167 0.667 1;0.333 0 0.667 1;0 0 0 0" calcMode="spline"/><animateTransform repeatCount="indefinite" dur="15.04s" begin="0s" xlink:href="#_R_G_L_3_G_G_0_L_0_G" fill="freeze" attributeName="transform" from="-9.579 -13.87" to="-9.579 -13.87" type="translate" additive="sum" keyTimes="0;0.5984043;1" values="-9.579 -13.87;-9.579 -13.87;-9.579 -13.87" keySplines="0 0 1 1;0 0 0 0" calcMode="spline"/><animate repeatCount="indefinite" dur="15.04s" begin="0s" xlink:href="#_R_G_L_3_G_G_0_L_0_G_M" fill="freeze" attributeName="opacity" from="0" to="1" keyTimes="0;0.5984043;0.5984043;0.5984045;1" values="0;0;0;1;1" keySplines="0 0 0 0;0 0 0 0;0 0 0 0;0 0 0 0" calcMode="spline"/><animate repeatCount="indefinite" dur="15.04s" begin="0s" xlink:href="#_R_G_L_3_G_M" fill="freeze" attributeName="opacity" from="0" to="0" keyTimes="0;0.5984043;0.5984045;0.7978723;0.7978723;1" values="0;0;1;1;0;0" keySplines="0 0 0 0;0 0 0 0;0 0 0 0;0 0 0 0;0 0 0 0" calcMode="spline"/><clipPath id="_R_G_L_2_C_0"><path id="_R_G_L_2_C_0_P_0" fill-rule="nonzero" d="M1028.5 400.5 C1028.5,400.5 897.5,400.5 897.5,400.5 C897.5,400.5 931.5,553 931.5,553 C931.5,553 1028.5,553 1028.5,553 C1028.5,553 1028.5,400.5 1028.5,400.5z "/></clipPath><clipPath id="_R_G_L_2_G_G_0_L_0_C_0"><path id="_R_G_L_2_G_G_0_L_0_C_0_P_0" fill-rule="nonzero" d="M0.5 0.71 C0.5,0.71 0.5,53.03 0.5,53.03 C0.5,53.03 60.45,53.03 60.45,53.03 C60.45,53.03 60.45,0.71 60.45,0.71 C60.45,0.71 0.5,0.71 0.5,0.71z "/></clipPath><animateMotion repeatCount="indefinite" dur="15.04s" begin="0s" xlink:href="#_R_G_L_2_G_G_0_L_0_G" fill="freeze" keyTimes="0;0.7978723;0.8643617;0.9973404;1" path="M962.04 432.17 C962.04,432.17 962.04,432.17 962.04,432.17 C962.04,432.17 962.04,432.17 962.04,432.17 C958.97,455.56 946.72,549.1 943.66,572.49 C943.66,572.49 943.66,572.49 943.66,572.49 " keyPoints="0;0;0;1;1" keySplines="0.333 0 0.667 1;0.333 0 0.667 1;0.333 0 0.667 1;0 0 0 0" calcMode="spline"/><animateTransform repeatCount="indefinite" dur="15.04s" begin="0s" xlink:href="#_R_G_L_2_G_G_0_L_0_G" fill="freeze" attributeName="transform" from="204.948" to="-1.068" type="rotate" additive="sum" keyTimes="0;0.7978723;0.8218085;0.8643617;0.9308511;0.9973404;1" values="204.948;204.948;-12.333;-0.884;-12.333;-1.068;-1.068" keySplines="0.167 0.167 0.667 1;0.167 0.167 0.667 1;0.333 0 0.667 1;0.333 0 0.667 1;0.333 0 0.833 1;0 0 0 0" calcMode="spline"/><animateTransform repeatCount="indefinite" dur="15.04s" begin="0s" xlink:href="#_R_G_L_2_G_G_0_L_0_G" fill="freeze" attributeName="transform" from="0 0" to="1 1" type="scale" additive="sum" keyTimes="0;0.7978723;0.8218085;0.9308511;1" values="0 0;0 0;1 1;1 1;1 1" keySplines="0.167 0.167 0.667 1;0.167 0.167 0.667 1;0.333 0 0.667 1;0 0 0 0" calcMode="spline"/><animateTransform repeatCount="indefinite" dur="15.04s" begin="0s" xlink:href="#_R_G_L_2_G_G_0_L_0_G" fill="freeze" attributeName="transform" from="-9.579 -13.87" to="-9.579 -13.87" type="translate" additive="sum" keyTimes="0;0.7978723;1" values="-9.579 -13.87;-9.579 -13.87;-9.579 -13.87" keySplines="0 0 1 1;0 0 0 0" calcMode="spline"/><animate repeatCount="indefinite" dur="15.04s" begin="0s" xlink:href="#_R_G_L_2_G_G_0_L_0_G_M" fill="freeze" attributeName="opacity" from="0" to="1" keyTimes="0;0.7978723;0.7978723;0.7978726;1" values="0;0;0;1;1" keySplines="0 0 0 0;0 0 0 0;0 0 0 0;0 0 0 0" calcMode="spline"/><animate repeatCount="indefinite" dur="15.04s" begin="0s" xlink:href="#_R_G_L_2_G_M" fill="freeze" attributeName="opacity" from="0" to="0" keyTimes="0;0.7978723;0.7978726;0.9973404;0.9973404;1" values="0;0;1;1;0;0" keySplines="0 0 0 0;0 0 0 0;0 0 0 0;0 0 0 0;0 0 0 0" calcMode="spline"/><animateTransform repeatCount="indefinite" dur="15.04s" begin="0s" xlink:href="#_R_G_L_1_G" fill="freeze" attributeName="transform" from="5.546" to="5.546" type="rotate" additive="sum" keyTimes="0;0.0239362;0.0691489;0.0984043;0.1994681;0.2234043;0.268617;0.2978723;0.3989362;0.4228723;0.4680851;0.4973404;0.5984043;0.6223404;0.6675532;0.6968085;0.7978723;0.8218085;0.8670213;0.8962766;1" values="5.546;0;0;5.546;5.546;0;0;5.546;5.546;0;0;5.546;5.546;0;0;5.546;5.546;0;0;5.546;5.546" keySplines="0.333 0 0.667 1;0.333 0 0.667 1;0.333 0 0.667 1;0.333 0 0.667 1;0.333 0 0.667 1;0.333 0 0.667 1;0.333 0 0.667 1;0.333 0 0.667 1;0.333 0 0.667 1;0.333 0 0.667 1;0.333 0 0.667 1;0.333 0 0.667 1;0.333 0 0.667 1;0.333 0 0.667 1;0.333 0 0.667 1;0.333 0 0.667 1;0.333 0 0.667 1;0.333 0 0.667 1;0.333 0 0.667 1;0 0 0 0" calcMode="spline"/><animateTransform repeatCount="indefinite" dur="15.04s" begin="0s" xlink:href="#_R_G_L_1_G" fill="freeze" attributeName="transform" from="-4.153 -11.412" to="-4.153 -11.412" type="translate" additive="sum" keyTimes="0;1" values="-4.153 -11.412;-4.153 -11.412" keySplines="0 0 1 1" calcMode="spline"/><animate attributeType="XML" attributeName="opacity" dur="15s" from="0" to="1" xlink:href="#time_group"/></defs><g id="_R_G"><g id="_R_G_L_9_G" transform=" translate(932.266, 491.303) translate(-206.941, -143.173)"><path id="_R_G_L_9_G_D_0_P_0" fill="#8269ff" fill-opacity="1" fill-rule="nonzero" d=" M106.57 251.39 C146.73,221.89 182.28,213.82 214.71,233.64 C251.01,255.82 272.47,280.01 316.51,272.87 C371.82,263.9 413.63,199.61 397.28,123.17 C389.21,85.44 366.14,36.35 312.95,15.53 C273.88,0.25 224.38,15.9 196.66,49.27 C176.22,73.87 148.76,102.63 105.48,102.38 C62.2,102.14 22.15,123.55 11.75,168.76 C0.25,218.8 59.32,286.1 106.57,251.39z "/><path id="_R_G_L_9_G_D_1_P_0" fill="#8269ff" fill-opacity="1" fill-rule="nonzero" d=" M92.39 50.89 C92.39,66.65 79.62,79.42 63.86,79.42 C48.1,79.42 35.33,66.65 35.33,50.89 C35.33,35.13 48.1,22.36 63.86,22.36 C79.62,22.36 92.39,35.13 92.39,50.89z "/></g><g id="_R_G_L_8_G_N_1_T_0" transform=" translate(940.553, 478.487) translate(-16.259, -24.064)"><g id="_R_G_L_8_G" transform=" translate(-32.843, -65.574)"><path id="_R_G_L_8_G_D_0_P_0" fill="#ffffff" fill-opacity="1" fill-rule="nonzero" d=" M7.86 17.36 C8.12,17.35 34.17,16.18 61.1,4.54 C61.27,4.46 65.75,2.5 70.88,6.99 C71.66,7.68 73.32,9.09 75.52,10.98 C82.37,16.82 95.1,27.69 103.11,35.08 C106.41,38.13 108.06,41.15 108,44.04 C107.94,47.09 105.97,48.82 105.88,48.89 C105.84,48.93 105.79,48.96 105.75,48.99 C105.75,48.99 95.68,55.44 95.68,55.44 C95.68,55.44 60.88,77.36 60.88,77.36 C60.82,77.4 60.76,77.43 60.69,77.46 C60.45,77.56 59.25,78.03 57.8,78.21 C56.28,78.4 54.48,78.27 53.16,77.08 C51.36,75.46 51.11,72.55 52.41,68.19 C55.61,57.39 76.67,47.71 82.88,45.06 C82.88,45.06 78.33,40.24 78.33,40.24 C75.22,40.84 56.59,42.99 53,42.42 "/><path id="_R_G_L_8_G_D_1_P_0" stroke="#2e2b2c" stroke-linecap="round" stroke-linejoin="round" fill="none" stroke-width="1" stroke-opacity="1" d=" M7.86 17.36 C8.12,17.35 34.17,16.18 61.1,4.54 C61.27,4.46 65.75,2.5 70.88,6.99 C71.66,7.68 73.32,9.09 75.52,10.98 C82.37,16.82 95.1,27.69 103.11,35.08 C106.41,38.13 108.06,41.15 108,44.04 C107.94,47.09 105.97,48.82 105.88,48.89 C105.84,48.93 105.79,48.96 105.75,48.99 C105.75,48.99 95.68,55.44 95.68,55.44 C95.68,55.44 60.88,77.36 60.88,77.36 C60.82,77.4 60.76,77.43 60.69,77.46 C60.45,77.56 59.25,78.03 57.8,78.21 C56.28,78.4 54.48,78.27 53.16,77.08 C51.36,75.46 51.11,72.55 52.41,68.19 C55.61,57.39 76.67,47.71 82.88,45.06 C82.88,45.06 78.33,40.24 78.33,40.24 C75.22,40.84 55.85,43.03 52.26,42.46 "/><path id="_R_G_L_8_G_D_2_P_0" fill="#ffffff" fill-opacity="1" fill-rule="nonzero" d=" M0.25 50.34 C0.25,50.34 7.9,17.7 7.9,17.7 C7.9,17.7 53.64,14.44 53.64,14.44 C53.64,14.44 54.27,34.23 54.27,34.23 C54.55,43.3 47.87,51.1 38.86,52.2 C38.86,52.2 28.29,53.51 28.29,53.51 C23.64,54.08 18.93,53.92 14.33,53.04 C14.33,53.04 0.25,50.34 0.25,50.34z "/></g></g><g id="_R_G_L_7_G" transform=" translate(971.854, 598.774) translate(-99.758, -62.516)"><path id="_R_G_L_7_G_D_0_P_0" fill="#ffffff" fill-opacity="1" fill-rule="nonzero" d=" M196.84 26.6 C196.84,26.6 197.02,122.53 197.02,122.53 C197.02,122.53 2.5,122.53 2.5,122.53 C2.5,122.53 2.5,27.13 2.5,27.13 C2.5,27.13 196.84,26.6 196.84,26.6z "/><path id="_R_G_L_7_G_D_1_P_0" stroke="#2e2b2c" stroke-linecap="round" stroke-linejoin="round" fill="none" stroke-width="1" stroke-opacity="1" d=" M197.02 122.53 C197.02,122.53 2.5,122.53 2.5,122.53 "/><path id="_R_G_L_7_G_D_2_P_0" fill="#fe675e" fill-opacity="1" fill-rule="nonzero" d=" M6.05 122.53 C6.05,122.53 2.5,122.53 2.5,122.53 C2.5,122.53 2.5,27.14 2.5,27.14 C2.5,27.14 6.05,27.14 6.05,27.14 C6.05,27.14 6.05,122.53 6.05,122.53z "/><path id="_R_G_L_7_G_D_3_P_0" stroke="#2e2b2c" stroke-linecap="round" stroke-linejoin="round" fill="none" stroke-width="1" stroke-opacity="1" d=" M196.84 26.6 C196.84,26.6 197.02,122.53 197.02,122.53 C197.02,122.53 2.5,122.53 2.5,122.53 C2.5,122.53 2.5,27.13 2.5,27.13 C2.5,27.13 196.84,26.6 196.84,26.6z "/><path id="_R_G_L_7_G_D_4_P_0" fill="#ffffff" fill-opacity="1" fill-rule="nonzero" d=" M196.84 26.6 C196.84,26.6 2.5,27.13 2.5,27.13 C2.5,27.13 19.28,2.5 19.28,2.5 C19.28,2.5 179.01,2.5 179.01,2.5 C179.01,2.5 196.84,26.6 196.84,26.6z "/><path id="_R_G_L_7_G_D_5_P_0" stroke="#2e2b2c" stroke-linecap="round" stroke-linejoin="round" fill="none" stroke-width="1" stroke-opacity="1" d=" M196.84 26.6 C196.84,26.6 2.5,27.13 2.5,27.13 C2.5,27.13 19.28,2.5 19.28,2.5 C19.28,2.5 179.01,2.5 179.01,2.5 C179.01,2.5 196.84,26.6 196.84,26.6z "/><path id="_R_G_L_7_G_D_6_P_0" fill="#000000" fill-opacity="1" fill-rule="nonzero" d=" M139.03 17.25 C139.03,17.25 60.31,17.37 60.31,17.37 C60.31,17.37 63,11.85 63,11.85 C63,11.85 135.92,11.85 135.92,11.85 C135.92,11.85 139.03,17.25 139.03,17.25z "/><path id="_R_G_L_7_G_D_7_P_0" stroke="#000000" stroke-linecap="round" stroke-linejoin="round" fill="none" stroke-width="1" stroke-opacity="1" d=" M139.03 17.25 C139.03,17.25 60.31,17.37 60.31,17.37 C60.31,17.37 63,11.85 63,11.85 C63,11.85 135.92,11.85 135.92,11.85 C135.92,11.85 139.03,17.25 139.03,17.25z "/><path id="_R_G_L_7_G_D_8_P_0" fill="#000000" fill-opacity="1" fill-rule="nonzero" d=" M73.29 53.26 C73.29,53.26 140.92,96.57 140.92,96.57 C140.92,96.57 130.71,96.57 130.71,96.57 C130.71,96.57 62.11,53.47 62.11,53.47 C62.11,53.47 73.29,53.26 73.29,53.26z "/><path id="_R_G_L_7_G_D_9_P_0" fill="#000000" fill-opacity="1" fill-rule="nonzero" d=" M129.74 53.26 C129.74,53.26 62.11,96.57 62.11,96.57 C62.11,96.57 72.32,96.57 72.32,96.57 C72.32,96.57 140.92,53.47 140.92,53.47 C140.92,53.47 129.74,53.26 129.74,53.26z "/></g><g id="_R_G_L_6_G_M"><g id="_R_G_L_6_G"><g clip-path="url(#_R_G_L_6_C_0)"><g id="_R_G_L_6_G_G_0_L_0_G"><g clip-path="url(#_R_G_L_6_G_G_0_L_0_C_0)"><path id="_R_G_L_6_G_G_0_L_0_G_G_0_D_0_P_0" fill="#ffffff" fill-opacity="1" fill-rule="nonzero" d=" M60.45 53.03 C60.45,53.03 0.71,53.03 0.71,53.03 C0.71,53.03 0.71,0.71 0.71,0.71 C0.71,0.71 60.45,0.71 60.45,0.71 C60.45,0.71 60.45,53.03 60.45,53.03z "/><path id="_R_G_L_6_G_G_0_L_0_G_G_0_D_1_P_0" fill="#fe675e" fill-opacity="1" fill-rule="nonzero" d=" M3.06 52.7 C3.06,52.7 0.5,52.7 0.5,52.7 C0.5,52.7 0.5,0.71 0.5,0.71 C0.5,0.71 3.06,0.71 3.06,0.71 C3.06,0.71 3.06,52.7 3.06,52.7z "/><path id="_R_G_L_6_G_G_0_L_0_G_G_0_D_2_P_0" stroke="#2e2b2c" stroke-linecap="round" stroke-linejoin="round" fill="none" stroke-width="1" stroke-opacity="1" d=" M60.45 53.03 C60.45,53.03 0.71,53.03 0.71,53.03 C0.71,53.03 0.71,0.71 0.71,0.71 C0.71,0.71 60.45,0.71 60.45,0.71 C60.45,0.71 60.45,53.03 60.45,53.03z "/></g></g></g></g></g><g id="_R_G_L_5_G_M"><g id="_R_G_L_5_G"><g clip-path="url(#_R_G_L_5_C_0)"><g id="_R_G_L_5_G_G_0_L_0_G_M"><g id="_R_G_L_5_G_G_0_L_0_G"><g clip-path="url(#_R_G_L_5_G_G_0_L_0_C_0)"><path id="_R_G_L_5_G_G_0_L_0_G_G_0_D_0_P_0" fill="#ffffff" fill-opacity="1" fill-rule="nonzero" d=" M60.45 53.03 C60.45,53.03 0.71,53.03 0.71,53.03 C0.71,53.03 0.71,0.71 0.71,0.71 C0.71,0.71 60.45,0.71 60.45,0.71 C60.45,0.71 60.45,53.03 60.45,53.03z "/><path id="_R_G_L_5_G_G_0_L_0_G_G_0_D_1_P_0" fill="#fe675e" fill-opacity="1" fill-rule="nonzero" d=" M3.06 52.7 C3.06,52.7 0.5,52.7 0.5,52.7 C0.5,52.7 0.5,0.71 0.5,0.71 C0.5,0.71 3.06,0.71 3.06,0.71 C3.06,0.71 3.06,52.7 3.06,52.7z "/><path id="_R_G_L_5_G_G_0_L_0_G_G_0_D_2_P_0" stroke="#2e2b2c" stroke-linecap="round" stroke-linejoin="round" fill="none" stroke-width="1" stroke-opacity="1" d=" M60.45 53.03 C60.45,53.03 0.71,53.03 0.71,53.03 C0.71,53.03 0.71,0.71 0.71,0.71 C0.71,0.71 60.45,0.71 60.45,0.71 C60.45,0.71 60.45,53.03 60.45,53.03z "/></g></g></g></g></g></g><g id="_R_G_L_4_G_M"><g id="_R_G_L_4_G"><g clip-path="url(#_R_G_L_4_C_0)"><g id="_R_G_L_4_G_G_0_L_0_G_M"><g id="_R_G_L_4_G_G_0_L_0_G"><g clip-path="url(#_R_G_L_4_G_G_0_L_0_C_0)"><path id="_R_G_L_4_G_G_0_L_0_G_G_0_D_0_P_0" fill="#ffffff" fill-opacity="1" fill-rule="nonzero" d=" M60.45 53.03 C60.45,53.03 0.71,53.03 0.71,53.03 C0.71,53.03 0.71,0.71 0.71,0.71 C0.71,0.71 60.45,0.71 60.45,0.71 C60.45,0.71 60.45,53.03 60.45,53.03z "/><path id="_R_G_L_4_G_G_0_L_0_G_G_0_D_1_P_0" fill="#fe675e" fill-opacity="1" fill-rule="nonzero" d=" M3.06 52.7 C3.06,52.7 0.5,52.7 0.5,52.7 C0.5,52.7 0.5,0.71 0.5,0.71 C0.5,0.71 3.06,0.71 3.06,0.71 C3.06,0.71 3.06,52.7 3.06,52.7z "/><path id="_R_G_L_4_G_G_0_L_0_G_G_0_D_2_P_0" stroke="#2e2b2c" stroke-linecap="round" stroke-linejoin="round" fill="none" stroke-width="1" stroke-opacity="1" d=" M60.45 53.03 C60.45,53.03 0.71,53.03 0.71,53.03 C0.71,53.03 0.71,0.71 0.71,0.71 C0.71,0.71 60.45,0.71 60.45,0.71 C60.45,0.71 60.45,53.03 60.45,53.03z "/></g></g></g></g></g></g><g id="_R_G_L_3_G_M"><g id="_R_G_L_3_G"><g clip-path="url(#_R_G_L_3_C_0)"><g id="_R_G_L_3_G_G_0_L_0_G_M"><g id="_R_G_L_3_G_G_0_L_0_G"><g clip-path="url(#_R_G_L_3_G_G_0_L_0_C_0)"><path id="_R_G_L_3_G_G_0_L_0_G_G_0_D_0_P_0" fill="#ffffff" fill-opacity="1" fill-rule="nonzero" d=" M60.45 53.03 C60.45,53.03 0.71,53.03 0.71,53.03 C0.71,53.03 0.71,0.71 0.71,0.71 C0.71,0.71 60.45,0.71 60.45,0.71 C60.45,0.71 60.45,53.03 60.45,53.03z "/><path id="_R_G_L_3_G_G_0_L_0_G_G_0_D_1_P_0" fill="#fe675e" fill-opacity="1" fill-rule="nonzero" d=" M3.06 52.7 C3.06,52.7 0.5,52.7 0.5,52.7 C0.5,52.7 0.5,0.71 0.5,0.71 C0.5,0.71 3.06,0.71 3.06,0.71 C3.06,0.71 3.06,52.7 3.06,52.7z "/><path id="_R_G_L_3_G_G_0_L_0_G_G_0_D_2_P_0" stroke="#2e2b2c" stroke-linecap="round" stroke-linejoin="round" fill="none" stroke-width="1" stroke-opacity="1" d=" M60.45 53.03 C60.45,53.03 0.71,53.03 0.71,53.03 C0.71,53.03 0.71,0.71 0.71,0.71 C0.71,0.71 60.45,0.71 60.45,0.71 C60.45,0.71 60.45,53.03 60.45,53.03z "/></g></g></g></g></g></g><g id="_R_G_L_2_G_M"><g id="_R_G_L_2_G"><g clip-path="url(#_R_G_L_2_C_0)"><g id="_R_G_L_2_G_G_0_L_0_G_M"><g id="_R_G_L_2_G_G_0_L_0_G"><g clip-path="url(#_R_G_L_2_G_G_0_L_0_C_0)"><path id="_R_G_L_2_G_G_0_L_0_G_G_0_D_0_P_0" fill="#ffffff" fill-opacity="1" fill-rule="nonzero" d=" M60.45 53.03 C60.45,53.03 0.71,53.03 0.71,53.03 C0.71,53.03 0.71,0.71 0.71,0.71 C0.71,0.71 60.45,0.71 60.45,0.71 C60.45,0.71 60.45,53.03 60.45,53.03z "/><path id="_R_G_L_2_G_G_0_L_0_G_G_0_D_1_P_0" fill="#fe675e" fill-opacity="1" fill-rule="nonzero" d=" M3.06 52.7 C3.06,52.7 0.5,52.7 0.5,52.7 C0.5,52.7 0.5,0.71 0.5,0.71 C0.5,0.71 3.06,0.71 3.06,0.71 C3.06,0.71 3.06,52.7 3.06,52.7z "/><path id="_R_G_L_2_G_G_0_L_0_G_G_0_D_2_P_0" stroke="#2e2b2c" stroke-linecap="round" stroke-linejoin="round" fill="none" stroke-width="1" stroke-opacity="1" d=" M60.45 53.03 C60.45,53.03 0.71,53.03 0.71,53.03 C0.71,53.03 0.71,0.71 0.71,0.71 C0.71,0.71 60.45,0.71 60.45,0.71 C60.45,0.71 60.45,53.03 60.45,53.03z "/></g></g></g></g></g></g><g id="_R_G_L_1_G_N_1_T_0" transform=" translate(940.553, 478.487) translate(-16.259, -24.064)"><g id="_R_G_L_1_G" transform=" translate(-44.76, -36.66)"><path id="_R_G_L_1_G_D_0_P_0" fill="#ffffff" fill-opacity="1" fill-rule="nonzero" d=" M2.7 10.96 C14.86,17.15 45.69,31.93 54.43,29.95 C66.13,27.27 88.17,35.21 89.1,35.54 C89.22,35.59 89.34,35.65 89.44,35.73 C89.48,35.75 93.44,38.63 97.07,37.47 C99.36,36.74 101.14,34.51 102.35,30.84 C103.11,28.55 103.01,26.64 102.05,24.99 C99.27,20.2 89.85,18.31 82.29,16.79 C79.8,16.29 77.44,15.82 75.58,15.29 C65.45,12.39 63.8,3.09 63.74,2.7 "/><path id="_R_G_L_1_G_D_1_P_0" stroke="#2e2b2c" stroke-linecap="round" stroke-linejoin="round" fill="none" stroke-width="1.079" stroke-opacity="1" d=" M63.73 2.7 C63.8,3.09 65.45,12.39 75.58,15.29 C77.44,15.82 79.8,16.29 82.29,16.79 C89.85,18.31 99.27,20.2 102.05,24.99 C103.01,26.64 103.11,28.55 102.35,30.84 C101.14,34.51 99.36,36.74 97.07,37.47 C93.44,38.63 89.48,35.75 89.44,35.73 C89.34,35.65 89.22,35.59 89.1,35.54 C88.17,35.21 66.13,27.27 54.43,29.95 C45.69,31.93 14.86,17.16 2.7,10.96 "/></g></g><g id="_R_G_L_0_G" transform=" translate(940.553, 478.487) translate(-16.259, -24.064)"><path id="_R_G_L_0_G_D_0_P_0" fill="#000000" fill-opacity="1" fill-rule="nonzero" d=" M-57.25 -34.78 C-57.25,-34.78 -41.96,-29.12 -41.96,-29.12 C-41.96,-29.12 -25.73,-72.58 -25.73,-72.58 C-25.73,-72.58 -41.54,-78.25 -41.54,-78.25 C-41.54,-78.25 -57.25,-34.78 -57.25,-34.78z "/></g></g><g id="time_group"/></svg>