<svg xmlns="http://www.w3.org/2000/svg" xmlns:xlink="http://www.w3.org/1999/xlink" preserveAspectRatio="xMidYMid meet" width="1920" height="1080" viewBox="0 0 1920 1080" style="width:100%;height:100%"><defs><animateTransform repeatCount="indefinite" dur="15s" begin="0s" xlink:href="#_R_G_L_10_G" fill="freeze" attributeName="transform" from="0" to="0" type="rotate" additive="sum" keyTimes="0;0.4986667;1" values="0;14;0" keySplines="0.333 0 0.667 1;0.333 0 0.667 1" calcMode="spline"/><animateTransform repeatCount="indefinite" dur="15s" begin="0s" xlink:href="#_R_G_L_10_G" fill="freeze" attributeName="transform" from="1 1" to="1 1" type="scale" additive="sum" keyTimes="0;0.4986667;1" values="1 1;1.08 1.08;1 1" keySplines="0.333 0 0.667 1;0.333 0 0.667 1" calcMode="spline"/><animateTransform repeatCount="indefinite" dur="15s" begin="0s" xlink:href="#_R_G_L_10_G" fill="freeze" attributeName="transform" from="-186.592 -156.603" to="-186.592 -156.603" type="translate" additive="sum" keyTimes="0;1" values="-186.592 -156.603;-186.592 -156.603" keySplines="0 0 1 1" calcMode="spline"/><animateTransform repeatCount="indefinite" dur="15s" begin="0s" xlink:href="#_R_G_L_9_G" fill="freeze" attributeName="transform" from="9.958" to="9.958" type="rotate" additive="sum" keyTimes="0;0.024;0.0693333;0.0986667;0.2;0.224;0.2693333;0.2986667;0.4;0.424;0.4693333;0.4986667;0.6;0.624;0.6693333;0.6986667;0.8;0.824;0.8693333;0.8986667;1" values="9.958;8.766;8.766;9.958;9.958;8.766;8.766;9.958;9.958;8.766;8.766;9.958;9.958;8.766;8.766;9.958;9.958;8.766;8.766;9.958;9.958" keySplines="0.333 0 0.667 1;0.333 0 0.667 1;0.333 0 0.667 1;0.333 0 0.667 1;0.333 0 0.667 1;0.333 0 0.667 1;0.333 0 0.667 1;0.333 0 0.667 1;0.333 0 0.667 1;0.333 0 0.667 1;0.333 0 0.667 1;0.333 0 0.667 1;0.333 0 0.667 1;0.333 0 0.667 1;0.333 0 0.667 1;0.333 0 0.667 1;0.333 0 0.667 1;0.333 0 0.667 1;0.333 0 0.667 1;0.333 0 0.667 1" calcMode="spline"/><animateTransform repeatCount="indefinite" dur="15s" begin="0s" xlink:href="#_R_G_L_9_G" fill="freeze" attributeName="transform" from="-8.76 -19.29" to="-8.76 -19.29" type="translate" additive="sum" keyTimes="0;1" values="-8.76 -19.29;-8.76 -19.29" keySplines="0 0 1 1" calcMode="spline"/><animateMotion repeatCount="indefinite" dur="15s" begin="0s" xlink:href="#_R_G_L_7_G" fill="freeze" keyTimes="0;0.0666667;0.2;1" path="M1016.54 507.67 C1016.54,507.67 1016.54,507.67 1016.54,507.67 C1016.54,530.88 1016.54,623.71 1016.54,646.92 C1016.54,646.92 1016.54,646.92 1016.54,646.92 " keyPoints="0;0;1;1" keySplines="0.333 0 0.667 1;0.333 0 0.667 1;0 0 0 0" calcMode="spline"/><animateTransform repeatCount="indefinite" dur="15s" begin="0s" xlink:href="#_R_G_L_7_G" fill="freeze" attributeName="transform" from="204.948" to="-12.333" type="rotate" additive="sum" keyTimes="0;0.024;0.1333333;1" values="204.948;-12.333;-12.333;-12.333" keySplines="0.167 0.167 0.667 1;0.333 0 0.667 1;0 0 0 0" calcMode="spline"/><animateTransform repeatCount="indefinite" dur="15s" begin="0s" xlink:href="#_R_G_L_7_G" fill="freeze" attributeName="transform" from="0 0" to="1 1" type="scale" additive="sum" keyTimes="0;0.024;0.1333333;1" values="0 0;1 1;1 1;1 1" keySplines="0.167 0.167 0.667 1;0.333 0 0.667 1;0 0 0 0" calcMode="spline"/><animateTransform repeatCount="indefinite" dur="15s" begin="0s" xlink:href="#_R_G_L_7_G" fill="freeze" attributeName="transform" from="-10.22 -17.391" to="-10.22 -17.391" type="translate" additive="sum" keyTimes="0;1" values="-10.22 -17.391;-10.22 -17.391" keySplines="0 0 1 1" calcMode="spline"/><animate repeatCount="indefinite" dur="15s" begin="0s" xlink:href="#_R_G_L_7_G_M" fill="freeze" attributeName="opacity" from="1" to="0" keyTimes="0;0.2;0.2;1" values="1;1;0;0" keySplines="0 0 0 0;0 0 0 0;0 0 0 0" calcMode="spline"/><animateMotion repeatCount="indefinite" dur="15s" begin="0s" xlink:href="#_R_G_L_6_G" fill="freeze" keyTimes="0;0.2666667;0.4;1" path="M1016.54 507.67 C1016.54,507.67 1016.54,507.67 1016.54,507.67 C1016.54,530.88 1016.54,623.71 1016.54,646.92 C1016.54,646.92 1016.54,646.92 1016.54,646.92 " keyPoints="0;0;1;1" keySplines="0.333 0 0.667 1;0.333 0 0.667 1;0 0 0 0" calcMode="spline"/><animateTransform repeatCount="indefinite" dur="15s" begin="0s" xlink:href="#_R_G_L_6_G" fill="freeze" attributeName="transform" from="204.948" to="-12.333" type="rotate" additive="sum" keyTimes="0;0.2;0.224;0.3333333;1" values="204.948;204.948;-12.333;-12.333;-12.333" keySplines="0.167 0.167 0.667 1;0.167 0.167 0.667 1;0.333 0 0.667 1;0 0 0 0" calcMode="spline"/><animateTransform repeatCount="indefinite" dur="15s" begin="0s" xlink:href="#_R_G_L_6_G" fill="freeze" attributeName="transform" from="0 0" to="1 1" type="scale" additive="sum" keyTimes="0;0.2;0.224;0.3333333;1" values="0 0;0 0;1 1;1 1;1 1" keySplines="0.167 0.167 0.667 1;0.167 0.167 0.667 1;0.333 0 0.667 1;0 0 0 0" calcMode="spline"/><animateTransform repeatCount="indefinite" dur="15s" begin="0s" xlink:href="#_R_G_L_6_G" fill="freeze" attributeName="transform" from="-10.22 -17.391" to="-10.22 -17.391" type="translate" additive="sum" keyTimes="0;1" values="-10.22 -17.391;-10.22 -17.391" keySplines="0 0 1 1" calcMode="spline"/><animate repeatCount="indefinite" dur="15s" begin="0s" xlink:href="#_R_G_L_6_G_M" fill="freeze" attributeName="opacity" from="0" to="0" keyTimes="0;0.2;0.2000003;0.4;0.4;1" values="0;0;1;1;0;0" keySplines="0 0 0 0;0 0 0 0;0 0 0 0;0 0 0 0;0 0 0 0" calcMode="spline"/><animateMotion repeatCount="indefinite" dur="15s" begin="0s" xlink:href="#_R_G_L_5_G" fill="freeze" keyTimes="0;0.4666667;0.6;1" path="M1016.54 507.67 C1016.54,507.67 1016.54,507.67 1016.54,507.67 C1016.54,530.88 1016.54,623.71 1016.54,646.92 C1016.54,646.92 1016.54,646.92 1016.54,646.92 " keyPoints="0;0;1;1" keySplines="0.333 0 0.667 1;0.333 0 0.667 1;0 0 0 0" calcMode="spline"/><animateTransform repeatCount="indefinite" dur="15s" begin="0s" xlink:href="#_R_G_L_5_G" fill="freeze" attributeName="transform" from="204.948" to="-12.333" type="rotate" additive="sum" keyTimes="0;0.4;0.424;0.5333333;1" values="204.948;204.948;-12.333;-12.333;-12.333" keySplines="0.167 0.167 0.667 1;0.167 0.167 0.667 1;0.333 0 0.667 1;0 0 0 0" calcMode="spline"/><animateTransform repeatCount="indefinite" dur="15s" begin="0s" xlink:href="#_R_G_L_5_G" fill="freeze" attributeName="transform" from="0 0" to="1 1" type="scale" additive="sum" keyTimes="0;0.4;0.424;0.5333333;1" values="0 0;0 0;1 1;1 1;1 1" keySplines="0.167 0.167 0.667 1;0.167 0.167 0.667 1;0.333 0 0.667 1;0 0 0 0" calcMode="spline"/><animateTransform repeatCount="indefinite" dur="15s" begin="0s" xlink:href="#_R_G_L_5_G" fill="freeze" attributeName="transform" from="-10.22 -17.391" to="-10.22 -17.391" type="translate" additive="sum" keyTimes="0;1" values="-10.22 -17.391;-10.22 -17.391" keySplines="0 0 1 1" calcMode="spline"/><animate repeatCount="indefinite" dur="15s" begin="0s" xlink:href="#_R_G_L_5_G_M" fill="freeze" attributeName="opacity" from="0" to="0" keyTimes="0;0.4;0.4000003;0.6;0.6;1" values="0;0;1;1;0;0" keySplines="0 0 0 0;0 0 0 0;0 0 0 0;0 0 0 0;0 0 0 0" calcMode="spline"/><animateMotion repeatCount="indefinite" dur="15s" begin="0s" xlink:href="#_R_G_L_4_G" fill="freeze" keyTimes="0;0.6666667;0.8;1" path="M1016.54 507.67 C1016.54,507.67 1016.54,507.67 1016.54,507.67 C1016.54,530.88 1016.54,623.71 1016.54,646.92 C1016.54,646.92 1016.54,646.92 1016.54,646.92 " keyPoints="0;0;1;1" keySplines="0.333 0 0.667 1;0.333 0 0.667 1;0 0 0 0" calcMode="spline"/><animateTransform repeatCount="indefinite" dur="15s" begin="0s" xlink:href="#_R_G_L_4_G" fill="freeze" attributeName="transform" from="204.948" to="-12.333" type="rotate" additive="sum" keyTimes="0;0.6;0.624;0.7333333;1" values="204.948;204.948;-12.333;-12.333;-12.333" keySplines="0.167 0.167 0.667 1;0.167 0.167 0.667 1;0.333 0 0.667 1;0 0 0 0" calcMode="spline"/><animateTransform repeatCount="indefinite" dur="15s" begin="0s" xlink:href="#_R_G_L_4_G" fill="freeze" attributeName="transform" from="0 0" to="1 1" type="scale" additive="sum" keyTimes="0;0.6;0.624;0.7333333;1" values="0 0;0 0;1 1;1 1;1 1" keySplines="0.167 0.167 0.667 1;0.167 0.167 0.667 1;0.333 0 0.667 1;0 0 0 0" calcMode="spline"/><animateTransform repeatCount="indefinite" dur="15s" begin="0s" xlink:href="#_R_G_L_4_G" fill="freeze" attributeName="transform" from="-10.22 -17.391" to="-10.22 -17.391" type="translate" additive="sum" keyTimes="0;1" values="-10.22 -17.391;-10.22 -17.391" keySplines="0 0 1 1" calcMode="spline"/><animate repeatCount="indefinite" dur="15s" begin="0s" xlink:href="#_R_G_L_4_G_M" fill="freeze" attributeName="opacity" from="0" to="0" keyTimes="0;0.6;0.6000003;0.8;0.8;1" values="0;0;1;1;0;0" keySplines="0 0 0 0;0 0 0 0;0 0 0 0;0 0 0 0;0 0 0 0" calcMode="spline"/><animateMotion repeatCount="indefinite" dur="15s" begin="0s" xlink:href="#_R_G_L_3_G" fill="freeze" keyTimes="0;0.8666667;1" path="M1016.54 507.67 C1016.54,507.67 1016.54,507.67 1016.54,507.67 C1016.54,530.88 1016.54,623.71 1016.54,646.92 " keyPoints="0;0;1" keySplines="0.333 0 0.667 1;0.333 0 0.667 1" calcMode="spline"/><animateTransform repeatCount="indefinite" dur="15s" begin="0s" xlink:href="#_R_G_L_3_G" fill="freeze" attributeName="transform" from="204.948" to="-12.333" type="rotate" additive="sum" keyTimes="0;0.8;0.824;0.9333333;1" values="204.948;204.948;-12.333;-12.333;-12.333" keySplines="0.167 0.167 0.667 1;0.167 0.167 0.667 1;0.333 0 0.667 1;0 0 0 0" calcMode="spline"/><animateTransform repeatCount="indefinite" dur="15s" begin="0s" xlink:href="#_R_G_L_3_G" fill="freeze" attributeName="transform" from="0 0" to="1 1" type="scale" additive="sum" keyTimes="0;0.8;0.824;0.9333333;1" values="0 0;0 0;1 1;1 1;1 1" keySplines="0.167 0.167 0.667 1;0.167 0.167 0.667 1;0.333 0 0.667 1;0 0 0 0" calcMode="spline"/><animateTransform repeatCount="indefinite" dur="15s" begin="0s" xlink:href="#_R_G_L_3_G" fill="freeze" attributeName="transform" from="-10.22 -17.391" to="-10.22 -17.391" type="translate" additive="sum" keyTimes="0;1" values="-10.22 -17.391;-10.22 -17.391" keySplines="0 0 1 1" calcMode="spline"/><animate repeatCount="indefinite" dur="15s" begin="0s" xlink:href="#_R_G_L_3_G_M" fill="freeze" attributeName="opacity" from="0" to="1" keyTimes="0;0.8;0.8000003;1" values="0;0;1;1" keySplines="0 0 0 0;0 0 0 0;0 0 0 0" calcMode="spline"/><animateTransform repeatCount="indefinite" dur="15s" begin="0s" xlink:href="#_R_G_L_2_G" fill="freeze" attributeName="transform" from="5.546" to="5.546" type="rotate" additive="sum" keyTimes="0;0.024;0.0693333;0.0986667;0.2;0.224;0.2693333;0.2986667;0.4;0.424;0.4693333;0.4986667;0.6;0.624;0.6693333;0.6986667;0.8;0.824;0.8693333;0.8986667;1" values="5.546;0;0;5.546;5.546;0;0;5.546;5.546;0;0;5.546;5.546;0;0;5.546;5.546;0;0;5.546;5.546" keySplines="0.333 0 0.667 1;0.333 0 0.667 1;0.333 0 0.667 1;0.333 0 0.667 1;0.333 0 0.667 1;0.333 0 0.667 1;0.333 0 0.667 1;0.333 0 0.667 1;0.333 0 0.667 1;0.333 0 0.667 1;0.333 0 0.667 1;0.333 0 0.667 1;0.333 0 0.667 1;0.333 0 0.667 1;0.333 0 0.667 1;0.333 0 0.667 1;0.333 0 0.667 1;0.333 0 0.667 1;0.333 0 0.667 1;0 0 0 0" calcMode="spline"/><animateTransform repeatCount="indefinite" dur="15s" begin="0s" xlink:href="#_R_G_L_2_G" fill="freeze" attributeName="transform" from="-4.153 -11.412" to="-4.153 -11.412" type="translate" additive="sum" keyTimes="0;1" values="-4.153 -11.412;-4.153 -11.412" keySplines="0 0 1 1" calcMode="spline"/><animateTransform repeatCount="indefinite" dur="15s" begin="0s" xlink:href="#_R_G_L_0_G" fill="freeze" attributeName="transform" from="1.02 1.02" to="1.02 1.02" type="scale" additive="sum" keyTimes="0;0.0106667;0.176;0.2;0.2106667;0.376;0.4;0.4106667;0.576;0.6;0.6106667;0.776;0.8;0.8106667;0.976;1" values="1.02 1.02;1 1;1 1;1.02 1.02;1 1;1 1;1.02 1.02;1 1;1 1;1.02 1.02;1 1;1 1;1.02 1.02;1 1;1 1;1.02 1.02" keySplines="0.333 0 0.667 1;0.333 0 0.667 1;0.333 0 0.667 1;0.333 0 0.667 1;0.333 0 0.667 1;0.333 0 0.667 1;0.333 0 0.667 1;0.167 0 0.667 1;0.333 0 0.667 1;0.333 0 0.667 1;0.167 0 0.667 1;0.333 0 0.667 1;0.333 0 0.667 1;0.167 0 0.667 1;0.333 0 0.667 1" calcMode="spline"/><animateTransform repeatCount="indefinite" dur="15s" begin="0s" xlink:href="#_R_G_L_0_G" fill="freeze" attributeName="transform" from="-71.302 -83.689" to="-71.302 -83.689" type="translate" additive="sum" keyTimes="0;1" values="-71.302 -83.689;-71.302 -83.689" keySplines="0 0 1 1" calcMode="spline"/><animate attributeType="XML" attributeName="opacity" dur="15s" from="0" to="1" xlink:href="#time_group"/></defs><g id="_R_G"><g id="_R_G_L_10_G" transform=" translate(1036.032, 577.856)"><path id="_R_G_L_10_G_D_0_P_0" fill="#8269ff" fill-opacity="1" fill-rule="nonzero" d=" M22.56 226.26 C51.33,277.83 100.87,296.43 134.75,303.81 C176.76,312.96 240.05,308.16 281.37,283.75 C317.36,262.49 347.32,227.6 361.58,180.81 C372.93,143.53 372.5,113.8 365.15,83.92 C357.81,54.04 328.83,16.29 278.37,24.41 C227.9,32.53 213.76,69.23 199.74,94.02 C179.6,129.62 157.93,136.89 118.57,131.2 C79.22,125.52 50.07,126.62 29.49,141.85 C13.15,153.94 0.25,186.27 22.56,226.26z "/><path id="_R_G_L_10_G_D_1_P_0" fill="#8269ff" fill-opacity="1" fill-rule="nonzero" d=" M204.23 20.57 C204.23,31.8 195.13,40.9 183.9,40.9 C172.68,40.9 163.58,31.8 163.58,20.57 C163.58,9.35 172.68,0.25 183.9,0.25 C195.13,0.25 204.23,9.35 204.23,20.57z "/></g><g id="_R_G_L_9_G_N_2_T_0" transform=" translate(940.553, 478.487) translate(-16.259, -24.064)"><g id="_R_G_L_9_G" transform=" translate(28.657, 11.926)"><path id="_R_G_L_9_G_D_0_P_0" fill="#ffffff" fill-opacity="1" fill-rule="nonzero" d=" M7.86 17.36 C8.12,17.35 34.17,16.18 61.1,4.54 C61.27,4.46 65.75,2.5 70.88,6.99 C71.66,7.68 73.32,9.09 75.52,10.98 C82.37,16.82 95.1,27.69 103.11,35.08 C106.41,38.13 108.06,41.15 108,44.04 C107.94,47.09 105.97,48.82 105.88,48.89 C105.84,48.93 105.79,48.96 105.75,48.99 C105.75,48.99 95.68,55.44 95.68,55.44 C95.68,55.44 60.88,77.36 60.88,77.36 C60.82,77.4 60.76,77.43 60.69,77.46 C60.45,77.56 59.25,78.03 57.8,78.21 C56.28,78.4 54.48,78.27 53.16,77.08 C51.36,75.46 51.11,72.55 52.41,68.19 C55.61,57.39 76.67,47.71 82.88,45.06 C82.88,45.06 78.33,40.24 78.33,40.24 C75.22,40.84 56.59,42.99 53,42.42 "/><path id="_R_G_L_9_G_D_1_P_0" stroke="#2e2b2c" stroke-linecap="round" stroke-linejoin="round" fill="none" stroke-width="1" stroke-opacity="1" d=" M7.86 17.36 C8.12,17.35 34.17,16.18 61.1,4.54 C61.27,4.46 65.75,2.5 70.88,6.99 C71.66,7.68 73.32,9.09 75.52,10.98 C82.37,16.82 95.1,27.69 103.11,35.08 C106.41,38.13 108.06,41.15 108,44.04 C107.94,47.09 105.97,48.82 105.88,48.89 C105.84,48.93 105.79,48.96 105.75,48.99 C105.75,48.99 95.68,55.44 95.68,55.44 C95.68,55.44 60.88,77.36 60.88,77.36 C60.82,77.4 60.76,77.43 60.69,77.46 C60.45,77.56 59.25,78.03 57.8,78.21 C56.28,78.4 54.48,78.27 53.16,77.08 C51.36,75.46 51.11,72.55 52.41,68.19 C55.61,57.39 76.67,47.71 82.88,45.06 C82.88,45.06 78.33,40.24 78.33,40.24 C75.22,40.84 55.85,43.03 52.26,42.46 "/><path id="_R_G_L_9_G_D_2_P_0" fill="#ffffff" fill-opacity="1" fill-rule="nonzero" d=" M0.25 50.34 C0.25,50.34 7.9,17.7 7.9,17.7 C7.9,17.7 53.64,14.44 53.64,14.44 C53.64,14.44 54.27,34.23 54.27,34.23 C54.55,43.3 47.87,51.1 38.86,52.2 C38.86,52.2 28.29,53.51 28.29,53.51 C23.64,54.08 18.93,53.92 14.33,53.04 C14.33,53.04 0.25,50.34 0.25,50.34z "/></g></g><g id="_R_G_L_8_G" transform=" translate(1045.2, 566.202) translate(-41.59, -22.097)"><path id="_R_G_L_8_G_D_0_P_0" stroke="#2e2b2c" stroke-linecap="round" stroke-linejoin="round" fill="none" stroke-width="1.397" stroke-opacity="1" d=" M82.48 21.84 C82.48,21.84 82.48,0.7 82.48,0.7 "/><path id="_R_G_L_8_G_D_1_P_0" stroke="#2e2b2c" stroke-linecap="round" stroke-linejoin="round" fill="none" stroke-width="1.397" stroke-opacity="1" d=" M82.48 37.71 C82.48,37.71 82.48,31.64 82.48,31.64 "/><path id="_R_G_L_8_G_D_2_P_0" stroke="#2e2b2c" stroke-linecap="round" stroke-linejoin="round" fill="none" stroke-width="1.397" stroke-opacity="1" d=" M40.91 43.5 C40.91,43.5 40.91,15.29 40.91,15.29 "/><path id="_R_G_L_8_G_D_3_P_0" stroke="#2e2b2c" stroke-linecap="round" stroke-linejoin="round" fill="none" stroke-width="1.397" stroke-opacity="1" d=" M0.7 34.67 C0.7,34.67 0.7,18.52 0.7,18.52 "/><path id="_R_G_L_8_G_D_4_P_0" stroke="#2e2b2c" stroke-linecap="round" stroke-linejoin="round" fill="none" stroke-width="1.397" stroke-opacity="1" d=" M0.7 40.6 C0.7,40.6 0.7,37.9 0.7,37.9 "/></g><g id="_R_G_L_7_G_M"><g id="_R_G_L_7_G"><path id="_R_G_L_7_G_D_0_P_0" fill="#ffffff" fill-opacity="1" fill-rule="nonzero" d=" M72.44 38.83 C72.44,58.14 56.78,73.8 37.47,73.8 C18.16,73.8 2.5,58.14 2.5,38.83 C2.5,19.52 18.16,3.87 37.47,3.87 C56.78,3.87 72.44,19.52 72.44,38.83z "/><path id="_R_G_L_7_G_D_1_P_0" stroke="#2e2b2c" stroke-linecap="round" stroke-linejoin="round" fill="none" stroke-width="1" stroke-opacity="1" d=" M72.44 38.83 C72.44,58.14 56.78,73.8 37.47,73.8 C18.16,73.8 2.5,58.14 2.5,38.83 C2.5,19.52 18.16,3.87 37.47,3.87 C56.78,3.87 72.44,19.52 72.44,38.83z "/><path id="_R_G_L_7_G_D_2_P_0" fill="#ffffff" fill-opacity="1" fill-rule="nonzero" d=" M72.44 38.83 C72.44,58.14 56.78,73.8 37.47,73.8 C18.16,73.8 2.5,58.14 2.5,38.83 C2.5,19.52 18.16,3.87 37.47,3.87 C56.78,3.87 72.44,19.52 72.44,38.83z "/><path id="_R_G_L_7_G_D_3_P_0" fill="#fe675e" fill-opacity="1" fill-rule="nonzero" d=" M40.05 73.98 C20.74,73.98 5.09,58.33 5.09,39.02 C5.09,19.71 20.74,4.06 40.05,4.06 C40.05,4.06 10.2,0.25 2.7,34.28 C2.7,34.28 0.3,56.52 16.57,67.14 C16.57,67.14 23.01,71.74 28.05,72.73 C33.09,73.72 40.05,73.98 40.05,73.98z "/><path id="_R_G_L_7_G_D_4_P_0" fill="#fe675e" fill-opacity="1" fill-rule="nonzero" d=" M59.89 45.86 C62.54,33.13 54.34,20.61 41.61,17.96 C28.88,15.31 16.36,23.51 13.71,36.24 C13.71,36.24 16.61,16.96 34.7,15.59 C34.7,15.59 52.01,13.92 58.26,28.15 C58.26,28.15 60.3,32.84 60.57,34.94 C60.84,37.03 60.93,41.28 60.93,41.28 C60.93,41.28 59.89,45.86 59.89,45.86z "/><path id="_R_G_L_7_G_D_5_P_0" stroke="#2e2b2c" stroke-linecap="round" stroke-linejoin="round" fill="none" stroke-width="1" stroke-opacity="1" d=" M72.44 38.83 C72.44,58.14 56.78,73.8 37.47,73.8 C18.16,73.8 2.5,58.14 2.5,38.83 C2.5,19.52 18.16,3.87 37.47,3.87 C56.78,3.87 72.44,19.52 72.44,38.83z "/><path id="_R_G_L_7_G_D_6_P_0" stroke="#2e2b2c" stroke-linecap="round" stroke-linejoin="round" fill="none" stroke-width="1" stroke-opacity="1" d=" M37.47 62.42 C24.46,62.42 13.88,51.84 13.88,38.83 C13.88,25.83 24.46,15.25 37.47,15.25 C50.47,15.25 61.05,25.83 61.05,38.83 C61.05,51.84 50.47,62.42 37.47,62.42z "/><path id="_R_G_L_7_G_D_7_P_0" stroke="#2e2b2c" stroke-linecap="round" stroke-linejoin="round" fill="none" stroke-width="1" stroke-opacity="1" d=" M37.46 3.63 C37.46,3.63 37.46,9.79 37.46,9.79 "/><path id="_R_G_L_7_G_D_8_P_0" stroke="#2e2b2c" stroke-linecap="round" stroke-linejoin="round" fill="none" stroke-width="1" stroke-opacity="1" d=" M12.61 14.09 C12.61,14.09 16.81,18.28 16.81,18.28 "/><path id="_R_G_L_7_G_D_9_P_0" stroke="#2e2b2c" stroke-linecap="round" stroke-linejoin="round" fill="none" stroke-width="1" stroke-opacity="1" d=" M2.42 38.7 C2.42,38.7 8.47,38.7 8.47,38.7 "/><path id="_R_G_L_7_G_D_10_P_0" stroke="#2e2b2c" stroke-linecap="round" stroke-linejoin="round" fill="none" stroke-width="1" stroke-opacity="1" d=" M12.7 63.54 C12.7,63.54 16.97,59.28 16.97,59.28 "/><path id="_R_G_L_7_G_D_11_P_0" stroke="#2e2b2c" stroke-linecap="round" stroke-linejoin="round" fill="none" stroke-width="1" stroke-opacity="1" d=" M37.54 73.98 C37.54,73.98 37.54,67.76 37.54,67.76 "/><path id="_R_G_L_7_G_D_12_P_0" stroke="#2e2b2c" stroke-linecap="round" stroke-linejoin="round" fill="none" stroke-width="1" stroke-opacity="1" d=" M62.37 63.58 C62.37,63.58 58.02,59.23 58.02,59.23 "/><path id="_R_G_L_7_G_D_13_P_0" stroke="#2e2b2c" stroke-linecap="round" stroke-linejoin="round" fill="none" stroke-width="1" stroke-opacity="1" d=" M72.39 38.69 C72.39,38.69 66.43,38.69 66.43,38.69 "/><path id="_R_G_L_7_G_D_14_P_0" stroke="#2e2b2c" stroke-linecap="round" stroke-linejoin="round" fill="none" stroke-width="1" stroke-opacity="1" d=" M62.13 14.02 C62.13,14.02 57.9,18.25 57.9,18.25 "/><path id="_R_G_L_7_G_D_15_P_0" fill="#000000" fill-opacity="1" fill-rule="nonzero" d=" M37.61 22.64 C40.58,25.63 43.53,28.64 46.53,31.6 C47.31,32.36 47.46,32.9 46.56,33.64 C45.82,34.26 45.15,34.98 44.49,35.7 C43.95,36.3 43.52,36.23 42.98,35.68 C41.51,34.17 39.96,32.74 38.54,31.18 C37.73,30.3 37.18,30.19 36.32,31.15 C34.94,32.68 33.39,34.07 31.96,35.56 C31.4,36.15 30.98,36.27 30.39,35.61 C29.72,34.85 29,34.13 28.24,33.45 C27.55,32.84 27.64,32.38 28.27,31.77 C31.32,28.74 34.34,25.68 37.37,22.64 C37.37,22.64 37.61,22.64 37.61,22.64z "/><path id="_R_G_L_7_G_D_16_P_0" fill="#000000" fill-opacity="1" fill-rule="nonzero" d=" M47.28 45.18 C47.26,45.62 46.98,45.83 46.76,46.06 C43.92,48.91 41.06,51.73 38.24,54.6 C37.69,55.16 37.32,55.19 36.75,54.61 C33.93,51.75 31.09,48.91 28.23,46.08 C27.63,45.5 27.59,45.06 28.22,44.49 C28.95,43.83 29.65,43.15 30.29,42.41 C30.94,41.66 31.44,41.62 32.15,42.38 C33.63,43.95 35.21,45.41 36.7,46.97 C37.28,47.57 37.68,47.61 38.27,46.98 C39.79,45.4 41.39,43.89 42.9,42.31 C43.53,41.66 43.98,41.63 44.59,42.31 C45.29,43.1 46.08,43.81 46.82,44.57 C47.01,44.77 47.16,45 47.28,45.18z "/><path id="_R_G_L_7_G_D_17_P_0" fill="#000000" fill-opacity="1" fill-rule="nonzero" d=" M50.07 42.56 C49.84,42.4 49.62,42.29 49.45,42.12 C48.59,41.27 47.74,40.4 46.87,39.55 C46.4,39.1 46.5,38.72 46.92,38.32 C47.76,37.49 48.59,36.67 49.41,35.82 C49.88,35.33 50.27,35.33 50.74,35.83 C51.52,36.65 52.32,37.45 53.15,38.23 C53.66,38.72 53.73,39.13 53.18,39.65 C52.32,40.46 51.52,41.31 50.68,42.13 C50.51,42.3 50.29,42.41 50.07,42.56z "/><path id="_R_G_L_7_G_D_18_P_0" fill="#000000" fill-opacity="1" fill-rule="nonzero" d=" M24.81 35.4 C24.93,35.42 25.03,35.42 25.08,35.46 C26.28,36.44 27.36,37.53 28.34,38.71 C28.55,38.97 28.26,39.24 28.06,39.44 C27.18,40.33 26.27,41.21 25.4,42.11 C25.01,42.51 24.67,42.52 24.27,42.12 C23.42,41.24 22.56,40.39 21.7,39.53 C21.38,39.21 21.21,38.86 21.6,38.48 C22.54,37.53 23.48,36.58 24.43,35.64 C24.54,35.53 24.7,35.47 24.81,35.4z "/><path id="_R_G_L_7_G_D_19_P_0" fill="#000000" fill-opacity="1" fill-rule="nonzero" d=" M37.45 35.4 C37.64,35.52 37.83,35.6 37.97,35.73 C38.86,36.6 39.74,37.5 40.63,38.38 C41.09,38.83 40.98,39.21 40.57,39.62 C39.73,40.43 38.89,41.25 38.08,42.1 C37.64,42.56 37.29,42.51 36.87,42.07 C36.09,41.26 35.29,40.45 34.47,39.67 C33.95,39.18 33.92,38.76 34.45,38.26 C35.27,37.49 36.06,36.66 36.86,35.87 C37.03,35.7 37.23,35.57 37.45,35.4z "/></g></g><g id="_R_G_L_6_G_M"><g id="_R_G_L_6_G"><path id="_R_G_L_6_G_D_0_P_0" fill="#ffffff" fill-opacity="1" fill-rule="nonzero" d=" M72.44 38.83 C72.44,58.14 56.78,73.8 37.47,73.8 C18.16,73.8 2.5,58.14 2.5,38.83 C2.5,19.52 18.16,3.87 37.47,3.87 C56.78,3.87 72.44,19.52 72.44,38.83z "/><path id="_R_G_L_6_G_D_1_P_0" stroke="#2e2b2c" stroke-linecap="round" stroke-linejoin="round" fill="none" stroke-width="1" stroke-opacity="1" d=" M72.44 38.83 C72.44,58.14 56.78,73.8 37.47,73.8 C18.16,73.8 2.5,58.14 2.5,38.83 C2.5,19.52 18.16,3.87 37.47,3.87 C56.78,3.87 72.44,19.52 72.44,38.83z "/><path id="_R_G_L_6_G_D_2_P_0" fill="#ffffff" fill-opacity="1" fill-rule="nonzero" d=" M72.44 38.83 C72.44,58.14 56.78,73.8 37.47,73.8 C18.16,73.8 2.5,58.14 2.5,38.83 C2.5,19.52 18.16,3.87 37.47,3.87 C56.78,3.87 72.44,19.52 72.44,38.83z "/><path id="_R_G_L_6_G_D_3_P_0" fill="#fe675e" fill-opacity="1" fill-rule="nonzero" d=" M40.05 73.98 C20.74,73.98 5.09,58.33 5.09,39.02 C5.09,19.71 20.74,4.06 40.05,4.06 C40.05,4.06 10.2,0.25 2.7,34.28 C2.7,34.28 0.3,56.52 16.57,67.14 C16.57,67.14 23.01,71.74 28.05,72.73 C33.09,73.72 40.05,73.98 40.05,73.98z "/><path id="_R_G_L_6_G_D_4_P_0" fill="#fe675e" fill-opacity="1" fill-rule="nonzero" d=" M59.89 45.86 C62.54,33.13 54.34,20.61 41.61,17.96 C28.88,15.31 16.36,23.51 13.71,36.24 C13.71,36.24 16.61,16.96 34.7,15.59 C34.7,15.59 52.01,13.92 58.26,28.15 C58.26,28.15 60.3,32.84 60.57,34.94 C60.84,37.03 60.93,41.28 60.93,41.28 C60.93,41.28 59.89,45.86 59.89,45.86z "/><path id="_R_G_L_6_G_D_5_P_0" stroke="#2e2b2c" stroke-linecap="round" stroke-linejoin="round" fill="none" stroke-width="1" stroke-opacity="1" d=" M72.44 38.83 C72.44,58.14 56.78,73.8 37.47,73.8 C18.16,73.8 2.5,58.14 2.5,38.83 C2.5,19.52 18.16,3.87 37.47,3.87 C56.78,3.87 72.44,19.52 72.44,38.83z "/><path id="_R_G_L_6_G_D_6_P_0" stroke="#2e2b2c" stroke-linecap="round" stroke-linejoin="round" fill="none" stroke-width="1" stroke-opacity="1" d=" M37.47 62.42 C24.46,62.42 13.88,51.84 13.88,38.83 C13.88,25.83 24.46,15.25 37.47,15.25 C50.47,15.25 61.05,25.83 61.05,38.83 C61.05,51.84 50.47,62.42 37.47,62.42z "/><path id="_R_G_L_6_G_D_7_P_0" stroke="#2e2b2c" stroke-linecap="round" stroke-linejoin="round" fill="none" stroke-width="1" stroke-opacity="1" d=" M37.46 3.63 C37.46,3.63 37.46,9.79 37.46,9.79 "/><path id="_R_G_L_6_G_D_8_P_0" stroke="#2e2b2c" stroke-linecap="round" stroke-linejoin="round" fill="none" stroke-width="1" stroke-opacity="1" d=" M12.61 14.09 C12.61,14.09 16.81,18.28 16.81,18.28 "/><path id="_R_G_L_6_G_D_9_P_0" stroke="#2e2b2c" stroke-linecap="round" stroke-linejoin="round" fill="none" stroke-width="1" stroke-opacity="1" d=" M2.42 38.7 C2.42,38.7 8.47,38.7 8.47,38.7 "/><path id="_R_G_L_6_G_D_10_P_0" stroke="#2e2b2c" stroke-linecap="round" stroke-linejoin="round" fill="none" stroke-width="1" stroke-opacity="1" d=" M12.7 63.54 C12.7,63.54 16.97,59.28 16.97,59.28 "/><path id="_R_G_L_6_G_D_11_P_0" stroke="#2e2b2c" stroke-linecap="round" stroke-linejoin="round" fill="none" stroke-width="1" stroke-opacity="1" d=" M37.54 73.98 C37.54,73.98 37.54,67.76 37.54,67.76 "/><path id="_R_G_L_6_G_D_12_P_0" stroke="#2e2b2c" stroke-linecap="round" stroke-linejoin="round" fill="none" stroke-width="1" stroke-opacity="1" d=" M62.37 63.58 C62.37,63.58 58.02,59.23 58.02,59.23 "/><path id="_R_G_L_6_G_D_13_P_0" stroke="#2e2b2c" stroke-linecap="round" stroke-linejoin="round" fill="none" stroke-width="1" stroke-opacity="1" d=" M72.39 38.69 C72.39,38.69 66.43,38.69 66.43,38.69 "/><path id="_R_G_L_6_G_D_14_P_0" stroke="#2e2b2c" stroke-linecap="round" stroke-linejoin="round" fill="none" stroke-width="1" stroke-opacity="1" d=" M62.13 14.02 C62.13,14.02 57.9,18.25 57.9,18.25 "/><path id="_R_G_L_6_G_D_15_P_0" fill="#000000" fill-opacity="1" fill-rule="nonzero" d=" M37.61 22.64 C40.58,25.63 43.53,28.64 46.53,31.6 C47.31,32.36 47.46,32.9 46.56,33.64 C45.82,34.26 45.15,34.98 44.49,35.7 C43.95,36.3 43.52,36.23 42.98,35.68 C41.51,34.17 39.96,32.74 38.54,31.18 C37.73,30.3 37.18,30.19 36.32,31.15 C34.94,32.68 33.39,34.07 31.96,35.56 C31.4,36.15 30.98,36.27 30.39,35.61 C29.72,34.85 29,34.13 28.24,33.45 C27.55,32.84 27.64,32.38 28.27,31.77 C31.32,28.74 34.34,25.68 37.37,22.64 C37.37,22.64 37.61,22.64 37.61,22.64z "/><path id="_R_G_L_6_G_D_16_P_0" fill="#000000" fill-opacity="1" fill-rule="nonzero" d=" M47.28 45.18 C47.26,45.62 46.98,45.83 46.76,46.06 C43.92,48.91 41.06,51.73 38.24,54.6 C37.69,55.16 37.32,55.19 36.75,54.61 C33.93,51.75 31.09,48.91 28.23,46.08 C27.63,45.5 27.59,45.06 28.22,44.49 C28.95,43.83 29.65,43.15 30.29,42.41 C30.94,41.66 31.44,41.62 32.15,42.38 C33.63,43.95 35.21,45.41 36.7,46.97 C37.28,47.57 37.68,47.61 38.27,46.98 C39.79,45.4 41.39,43.89 42.9,42.31 C43.53,41.66 43.98,41.63 44.59,42.31 C45.29,43.1 46.08,43.81 46.82,44.57 C47.01,44.77 47.16,45 47.28,45.18z "/><path id="_R_G_L_6_G_D_17_P_0" fill="#000000" fill-opacity="1" fill-rule="nonzero" d=" M50.07 42.56 C49.84,42.4 49.62,42.29 49.45,42.12 C48.59,41.27 47.74,40.4 46.87,39.55 C46.4,39.1 46.5,38.72 46.92,38.32 C47.76,37.49 48.59,36.67 49.41,35.82 C49.88,35.33 50.27,35.33 50.74,35.83 C51.52,36.65 52.32,37.45 53.15,38.23 C53.66,38.72 53.73,39.13 53.18,39.65 C52.32,40.46 51.52,41.31 50.68,42.13 C50.51,42.3 50.29,42.41 50.07,42.56z "/><path id="_R_G_L_6_G_D_18_P_0" fill="#000000" fill-opacity="1" fill-rule="nonzero" d=" M24.81 35.4 C24.93,35.42 25.03,35.42 25.08,35.46 C26.28,36.44 27.36,37.53 28.34,38.71 C28.55,38.97 28.26,39.24 28.06,39.44 C27.18,40.33 26.27,41.21 25.4,42.11 C25.01,42.51 24.67,42.52 24.27,42.12 C23.42,41.24 22.56,40.39 21.7,39.53 C21.38,39.21 21.21,38.86 21.6,38.48 C22.54,37.53 23.48,36.58 24.43,35.64 C24.54,35.53 24.7,35.47 24.81,35.4z "/><path id="_R_G_L_6_G_D_19_P_0" fill="#000000" fill-opacity="1" fill-rule="nonzero" d=" M37.45 35.4 C37.64,35.52 37.83,35.6 37.97,35.73 C38.86,36.6 39.74,37.5 40.63,38.38 C41.09,38.83 40.98,39.21 40.57,39.62 C39.73,40.43 38.89,41.25 38.08,42.1 C37.64,42.56 37.29,42.51 36.87,42.07 C36.09,41.26 35.29,40.45 34.47,39.67 C33.95,39.18 33.92,38.76 34.45,38.26 C35.27,37.49 36.06,36.66 36.86,35.87 C37.03,35.7 37.23,35.57 37.45,35.4z "/></g></g><g id="_R_G_L_5_G_M"><g id="_R_G_L_5_G"><path id="_R_G_L_5_G_D_0_P_0" fill="#ffffff" fill-opacity="1" fill-rule="nonzero" d=" M72.44 38.83 C72.44,58.14 56.78,73.8 37.47,73.8 C18.16,73.8 2.5,58.14 2.5,38.83 C2.5,19.52 18.16,3.87 37.47,3.87 C56.78,3.87 72.44,19.52 72.44,38.83z "/><path id="_R_G_L_5_G_D_1_P_0" stroke="#2e2b2c" stroke-linecap="round" stroke-linejoin="round" fill="none" stroke-width="1" stroke-opacity="1" d=" M72.44 38.83 C72.44,58.14 56.78,73.8 37.47,73.8 C18.16,73.8 2.5,58.14 2.5,38.83 C2.5,19.52 18.16,3.87 37.47,3.87 C56.78,3.87 72.44,19.52 72.44,38.83z "/><path id="_R_G_L_5_G_D_2_P_0" fill="#ffffff" fill-opacity="1" fill-rule="nonzero" d=" M72.44 38.83 C72.44,58.14 56.78,73.8 37.47,73.8 C18.16,73.8 2.5,58.14 2.5,38.83 C2.5,19.52 18.16,3.87 37.47,3.87 C56.78,3.87 72.44,19.52 72.44,38.83z "/><path id="_R_G_L_5_G_D_3_P_0" fill="#fe675e" fill-opacity="1" fill-rule="nonzero" d=" M40.05 73.98 C20.74,73.98 5.09,58.33 5.09,39.02 C5.09,19.71 20.74,4.06 40.05,4.06 C40.05,4.06 10.2,0.25 2.7,34.28 C2.7,34.28 0.3,56.52 16.57,67.14 C16.57,67.14 23.01,71.74 28.05,72.73 C33.09,73.72 40.05,73.98 40.05,73.98z "/><path id="_R_G_L_5_G_D_4_P_0" fill="#fe675e" fill-opacity="1" fill-rule="nonzero" d=" M59.89 45.86 C62.54,33.13 54.34,20.61 41.61,17.96 C28.88,15.31 16.36,23.51 13.71,36.24 C13.71,36.24 16.61,16.96 34.7,15.59 C34.7,15.59 52.01,13.92 58.26,28.15 C58.26,28.15 60.3,32.84 60.57,34.94 C60.84,37.03 60.93,41.28 60.93,41.28 C60.93,41.28 59.89,45.86 59.89,45.86z "/><path id="_R_G_L_5_G_D_5_P_0" stroke="#2e2b2c" stroke-linecap="round" stroke-linejoin="round" fill="none" stroke-width="1" stroke-opacity="1" d=" M72.44 38.83 C72.44,58.14 56.78,73.8 37.47,73.8 C18.16,73.8 2.5,58.14 2.5,38.83 C2.5,19.52 18.16,3.87 37.47,3.87 C56.78,3.87 72.44,19.52 72.44,38.83z "/><path id="_R_G_L_5_G_D_6_P_0" stroke="#2e2b2c" stroke-linecap="round" stroke-linejoin="round" fill="none" stroke-width="1" stroke-opacity="1" d=" M37.47 62.42 C24.46,62.42 13.88,51.84 13.88,38.83 C13.88,25.83 24.46,15.25 37.47,15.25 C50.47,15.25 61.05,25.83 61.05,38.83 C61.05,51.84 50.47,62.42 37.47,62.42z "/><path id="_R_G_L_5_G_D_7_P_0" stroke="#2e2b2c" stroke-linecap="round" stroke-linejoin="round" fill="none" stroke-width="1" stroke-opacity="1" d=" M37.46 3.63 C37.46,3.63 37.46,9.79 37.46,9.79 "/><path id="_R_G_L_5_G_D_8_P_0" stroke="#2e2b2c" stroke-linecap="round" stroke-linejoin="round" fill="none" stroke-width="1" stroke-opacity="1" d=" M12.61 14.09 C12.61,14.09 16.81,18.28 16.81,18.28 "/><path id="_R_G_L_5_G_D_9_P_0" stroke="#2e2b2c" stroke-linecap="round" stroke-linejoin="round" fill="none" stroke-width="1" stroke-opacity="1" d=" M2.42 38.7 C2.42,38.7 8.47,38.7 8.47,38.7 "/><path id="_R_G_L_5_G_D_10_P_0" stroke="#2e2b2c" stroke-linecap="round" stroke-linejoin="round" fill="none" stroke-width="1" stroke-opacity="1" d=" M12.7 63.54 C12.7,63.54 16.97,59.28 16.97,59.28 "/><path id="_R_G_L_5_G_D_11_P_0" stroke="#2e2b2c" stroke-linecap="round" stroke-linejoin="round" fill="none" stroke-width="1" stroke-opacity="1" d=" M37.54 73.98 C37.54,73.98 37.54,67.76 37.54,67.76 "/><path id="_R_G_L_5_G_D_12_P_0" stroke="#2e2b2c" stroke-linecap="round" stroke-linejoin="round" fill="none" stroke-width="1" stroke-opacity="1" d=" M62.37 63.58 C62.37,63.58 58.02,59.23 58.02,59.23 "/><path id="_R_G_L_5_G_D_13_P_0" stroke="#2e2b2c" stroke-linecap="round" stroke-linejoin="round" fill="none" stroke-width="1" stroke-opacity="1" d=" M72.39 38.69 C72.39,38.69 66.43,38.69 66.43,38.69 "/><path id="_R_G_L_5_G_D_14_P_0" stroke="#2e2b2c" stroke-linecap="round" stroke-linejoin="round" fill="none" stroke-width="1" stroke-opacity="1" d=" M62.13 14.02 C62.13,14.02 57.9,18.25 57.9,18.25 "/><path id="_R_G_L_5_G_D_15_P_0" fill="#000000" fill-opacity="1" fill-rule="nonzero" d=" M37.61 22.64 C40.58,25.63 43.53,28.64 46.53,31.6 C47.31,32.36 47.46,32.9 46.56,33.64 C45.82,34.26 45.15,34.98 44.49,35.7 C43.95,36.3 43.52,36.23 42.98,35.68 C41.51,34.17 39.96,32.74 38.54,31.18 C37.73,30.3 37.18,30.19 36.32,31.15 C34.94,32.68 33.39,34.07 31.96,35.56 C31.4,36.15 30.98,36.27 30.39,35.61 C29.72,34.85 29,34.13 28.24,33.45 C27.55,32.84 27.64,32.38 28.27,31.77 C31.32,28.74 34.34,25.68 37.37,22.64 C37.37,22.64 37.61,22.64 37.61,22.64z "/><path id="_R_G_L_5_G_D_16_P_0" fill="#000000" fill-opacity="1" fill-rule="nonzero" d=" M47.28 45.18 C47.26,45.62 46.98,45.83 46.76,46.06 C43.92,48.91 41.06,51.73 38.24,54.6 C37.69,55.16 37.32,55.19 36.75,54.61 C33.93,51.75 31.09,48.91 28.23,46.08 C27.63,45.5 27.59,45.06 28.22,44.49 C28.95,43.83 29.65,43.15 30.29,42.41 C30.94,41.66 31.44,41.62 32.15,42.38 C33.63,43.95 35.21,45.41 36.7,46.97 C37.28,47.57 37.68,47.61 38.27,46.98 C39.79,45.4 41.39,43.89 42.9,42.31 C43.53,41.66 43.98,41.63 44.59,42.31 C45.29,43.1 46.08,43.81 46.82,44.57 C47.01,44.77 47.16,45 47.28,45.18z "/><path id="_R_G_L_5_G_D_17_P_0" fill="#000000" fill-opacity="1" fill-rule="nonzero" d=" M50.07 42.56 C49.84,42.4 49.62,42.29 49.45,42.12 C48.59,41.27 47.74,40.4 46.87,39.55 C46.4,39.1 46.5,38.72 46.92,38.32 C47.76,37.49 48.59,36.67 49.41,35.82 C49.88,35.33 50.27,35.33 50.74,35.83 C51.52,36.65 52.32,37.45 53.15,38.23 C53.66,38.72 53.73,39.13 53.18,39.65 C52.32,40.46 51.52,41.31 50.68,42.13 C50.51,42.3 50.29,42.41 50.07,42.56z "/><path id="_R_G_L_5_G_D_18_P_0" fill="#000000" fill-opacity="1" fill-rule="nonzero" d=" M24.81 35.4 C24.93,35.42 25.03,35.42 25.08,35.46 C26.28,36.44 27.36,37.53 28.34,38.71 C28.55,38.97 28.26,39.24 28.06,39.44 C27.18,40.33 26.27,41.21 25.4,42.11 C25.01,42.51 24.67,42.52 24.27,42.12 C23.42,41.24 22.56,40.39 21.7,39.53 C21.38,39.21 21.21,38.86 21.6,38.48 C22.54,37.53 23.48,36.58 24.43,35.64 C24.54,35.53 24.7,35.47 24.81,35.4z "/><path id="_R_G_L_5_G_D_19_P_0" fill="#000000" fill-opacity="1" fill-rule="nonzero" d=" M37.45 35.4 C37.64,35.52 37.83,35.6 37.97,35.73 C38.86,36.6 39.74,37.5 40.63,38.38 C41.09,38.83 40.98,39.21 40.57,39.62 C39.73,40.43 38.89,41.25 38.08,42.1 C37.64,42.56 37.29,42.51 36.87,42.07 C36.09,41.26 35.29,40.45 34.47,39.67 C33.95,39.18 33.92,38.76 34.45,38.26 C35.27,37.49 36.06,36.66 36.86,35.87 C37.03,35.7 37.23,35.57 37.45,35.4z "/></g></g><g id="_R_G_L_4_G_M"><g id="_R_G_L_4_G"><path id="_R_G_L_4_G_D_0_P_0" fill="#ffffff" fill-opacity="1" fill-rule="nonzero" d=" M72.44 38.83 C72.44,58.14 56.78,73.8 37.47,73.8 C18.16,73.8 2.5,58.14 2.5,38.83 C2.5,19.52 18.16,3.87 37.47,3.87 C56.78,3.87 72.44,19.52 72.44,38.83z "/><path id="_R_G_L_4_G_D_1_P_0" stroke="#2e2b2c" stroke-linecap="round" stroke-linejoin="round" fill="none" stroke-width="1" stroke-opacity="1" d=" M72.44 38.83 C72.44,58.14 56.78,73.8 37.47,73.8 C18.16,73.8 2.5,58.14 2.5,38.83 C2.5,19.52 18.16,3.87 37.47,3.87 C56.78,3.87 72.44,19.52 72.44,38.83z "/><path id="_R_G_L_4_G_D_2_P_0" fill="#ffffff" fill-opacity="1" fill-rule="nonzero" d=" M72.44 38.83 C72.44,58.14 56.78,73.8 37.47,73.8 C18.16,73.8 2.5,58.14 2.5,38.83 C2.5,19.52 18.16,3.87 37.47,3.87 C56.78,3.87 72.44,19.52 72.44,38.83z "/><path id="_R_G_L_4_G_D_3_P_0" fill="#fe675e" fill-opacity="1" fill-rule="nonzero" d=" M40.05 73.98 C20.74,73.98 5.09,58.33 5.09,39.02 C5.09,19.71 20.74,4.06 40.05,4.06 C40.05,4.06 10.2,0.25 2.7,34.28 C2.7,34.28 0.3,56.52 16.57,67.14 C16.57,67.14 23.01,71.74 28.05,72.73 C33.09,73.72 40.05,73.98 40.05,73.98z "/><path id="_R_G_L_4_G_D_4_P_0" fill="#fe675e" fill-opacity="1" fill-rule="nonzero" d=" M59.89 45.86 C62.54,33.13 54.34,20.61 41.61,17.96 C28.88,15.31 16.36,23.51 13.71,36.24 C13.71,36.24 16.61,16.96 34.7,15.59 C34.7,15.59 52.01,13.92 58.26,28.15 C58.26,28.15 60.3,32.84 60.57,34.94 C60.84,37.03 60.93,41.28 60.93,41.28 C60.93,41.28 59.89,45.86 59.89,45.86z "/><path id="_R_G_L_4_G_D_5_P_0" stroke="#2e2b2c" stroke-linecap="round" stroke-linejoin="round" fill="none" stroke-width="1" stroke-opacity="1" d=" M72.44 38.83 C72.44,58.14 56.78,73.8 37.47,73.8 C18.16,73.8 2.5,58.14 2.5,38.83 C2.5,19.52 18.16,3.87 37.47,3.87 C56.78,3.87 72.44,19.52 72.44,38.83z "/><path id="_R_G_L_4_G_D_6_P_0" stroke="#2e2b2c" stroke-linecap="round" stroke-linejoin="round" fill="none" stroke-width="1" stroke-opacity="1" d=" M37.47 62.42 C24.46,62.42 13.88,51.84 13.88,38.83 C13.88,25.83 24.46,15.25 37.47,15.25 C50.47,15.25 61.05,25.83 61.05,38.83 C61.05,51.84 50.47,62.42 37.47,62.42z "/><path id="_R_G_L_4_G_D_7_P_0" stroke="#2e2b2c" stroke-linecap="round" stroke-linejoin="round" fill="none" stroke-width="1" stroke-opacity="1" d=" M37.46 3.63 C37.46,3.63 37.46,9.79 37.46,9.79 "/><path id="_R_G_L_4_G_D_8_P_0" stroke="#2e2b2c" stroke-linecap="round" stroke-linejoin="round" fill="none" stroke-width="1" stroke-opacity="1" d=" M12.61 14.09 C12.61,14.09 16.81,18.28 16.81,18.28 "/><path id="_R_G_L_4_G_D_9_P_0" stroke="#2e2b2c" stroke-linecap="round" stroke-linejoin="round" fill="none" stroke-width="1" stroke-opacity="1" d=" M2.42 38.7 C2.42,38.7 8.47,38.7 8.47,38.7 "/><path id="_R_G_L_4_G_D_10_P_0" stroke="#2e2b2c" stroke-linecap="round" stroke-linejoin="round" fill="none" stroke-width="1" stroke-opacity="1" d=" M12.7 63.54 C12.7,63.54 16.97,59.28 16.97,59.28 "/><path id="_R_G_L_4_G_D_11_P_0" stroke="#2e2b2c" stroke-linecap="round" stroke-linejoin="round" fill="none" stroke-width="1" stroke-opacity="1" d=" M37.54 73.98 C37.54,73.98 37.54,67.76 37.54,67.76 "/><path id="_R_G_L_4_G_D_12_P_0" stroke="#2e2b2c" stroke-linecap="round" stroke-linejoin="round" fill="none" stroke-width="1" stroke-opacity="1" d=" M62.37 63.58 C62.37,63.58 58.02,59.23 58.02,59.23 "/><path id="_R_G_L_4_G_D_13_P_0" stroke="#2e2b2c" stroke-linecap="round" stroke-linejoin="round" fill="none" stroke-width="1" stroke-opacity="1" d=" M72.39 38.69 C72.39,38.69 66.43,38.69 66.43,38.69 "/><path id="_R_G_L_4_G_D_14_P_0" stroke="#2e2b2c" stroke-linecap="round" stroke-linejoin="round" fill="none" stroke-width="1" stroke-opacity="1" d=" M62.13 14.02 C62.13,14.02 57.9,18.25 57.9,18.25 "/><path id="_R_G_L_4_G_D_15_P_0" fill="#000000" fill-opacity="1" fill-rule="nonzero" d=" M37.61 22.64 C40.58,25.63 43.53,28.64 46.53,31.6 C47.31,32.36 47.46,32.9 46.56,33.64 C45.82,34.26 45.15,34.98 44.49,35.7 C43.95,36.3 43.52,36.23 42.98,35.68 C41.51,34.17 39.96,32.74 38.54,31.18 C37.73,30.3 37.18,30.19 36.32,31.15 C34.94,32.68 33.39,34.07 31.96,35.56 C31.4,36.15 30.98,36.27 30.39,35.61 C29.72,34.85 29,34.13 28.24,33.45 C27.55,32.84 27.64,32.38 28.27,31.77 C31.32,28.74 34.34,25.68 37.37,22.64 C37.37,22.64 37.61,22.64 37.61,22.64z "/><path id="_R_G_L_4_G_D_16_P_0" fill="#000000" fill-opacity="1" fill-rule="nonzero" d=" M47.28 45.18 C47.26,45.62 46.98,45.83 46.76,46.06 C43.92,48.91 41.06,51.73 38.24,54.6 C37.69,55.16 37.32,55.19 36.75,54.61 C33.93,51.75 31.09,48.91 28.23,46.08 C27.63,45.5 27.59,45.06 28.22,44.49 C28.95,43.83 29.65,43.15 30.29,42.41 C30.94,41.66 31.44,41.62 32.15,42.38 C33.63,43.95 35.21,45.41 36.7,46.97 C37.28,47.57 37.68,47.61 38.27,46.98 C39.79,45.4 41.39,43.89 42.9,42.31 C43.53,41.66 43.98,41.63 44.59,42.31 C45.29,43.1 46.08,43.81 46.82,44.57 C47.01,44.77 47.16,45 47.28,45.18z "/><path id="_R_G_L_4_G_D_17_P_0" fill="#000000" fill-opacity="1" fill-rule="nonzero" d=" M50.07 42.56 C49.84,42.4 49.62,42.29 49.45,42.12 C48.59,41.27 47.74,40.4 46.87,39.55 C46.4,39.1 46.5,38.72 46.92,38.32 C47.76,37.49 48.59,36.67 49.41,35.82 C49.88,35.33 50.27,35.33 50.74,35.83 C51.52,36.65 52.32,37.45 53.15,38.23 C53.66,38.72 53.73,39.13 53.18,39.65 C52.32,40.46 51.52,41.31 50.68,42.13 C50.51,42.3 50.29,42.41 50.07,42.56z "/><path id="_R_G_L_4_G_D_18_P_0" fill="#000000" fill-opacity="1" fill-rule="nonzero" d=" M24.81 35.4 C24.93,35.42 25.03,35.42 25.08,35.46 C26.28,36.44 27.36,37.53 28.34,38.71 C28.55,38.97 28.26,39.24 28.06,39.44 C27.18,40.33 26.27,41.21 25.4,42.11 C25.01,42.51 24.67,42.52 24.27,42.12 C23.42,41.24 22.56,40.39 21.7,39.53 C21.38,39.21 21.21,38.86 21.6,38.48 C22.54,37.53 23.48,36.58 24.43,35.64 C24.54,35.53 24.7,35.47 24.81,35.4z "/><path id="_R_G_L_4_G_D_19_P_0" fill="#000000" fill-opacity="1" fill-rule="nonzero" d=" M37.45 35.4 C37.64,35.52 37.83,35.6 37.97,35.73 C38.86,36.6 39.74,37.5 40.63,38.38 C41.09,38.83 40.98,39.21 40.57,39.62 C39.73,40.43 38.89,41.25 38.08,42.1 C37.64,42.56 37.29,42.51 36.87,42.07 C36.09,41.26 35.29,40.45 34.47,39.67 C33.95,39.18 33.92,38.76 34.45,38.26 C35.27,37.49 36.06,36.66 36.86,35.87 C37.03,35.7 37.23,35.57 37.45,35.4z "/></g></g><g id="_R_G_L_3_G_M"><g id="_R_G_L_3_G"><path id="_R_G_L_3_G_D_0_P_0" fill="#ffffff" fill-opacity="1" fill-rule="nonzero" d=" M72.44 38.83 C72.44,58.14 56.78,73.8 37.47,73.8 C18.16,73.8 2.5,58.14 2.5,38.83 C2.5,19.52 18.16,3.87 37.47,3.87 C56.78,3.87 72.44,19.52 72.44,38.83z "/><path id="_R_G_L_3_G_D_1_P_0" stroke="#2e2b2c" stroke-linecap="round" stroke-linejoin="round" fill="none" stroke-width="1" stroke-opacity="1" d=" M72.44 38.83 C72.44,58.14 56.78,73.8 37.47,73.8 C18.16,73.8 2.5,58.14 2.5,38.83 C2.5,19.52 18.16,3.87 37.47,3.87 C56.78,3.87 72.44,19.52 72.44,38.83z "/><path id="_R_G_L_3_G_D_2_P_0" fill="#ffffff" fill-opacity="1" fill-rule="nonzero" d=" M72.44 38.83 C72.44,58.14 56.78,73.8 37.47,73.8 C18.16,73.8 2.5,58.14 2.5,38.83 C2.5,19.52 18.16,3.87 37.47,3.87 C56.78,3.87 72.44,19.52 72.44,38.83z "/><path id="_R_G_L_3_G_D_3_P_0" fill="#fe675e" fill-opacity="1" fill-rule="nonzero" d=" M40.05 73.98 C20.74,73.98 5.09,58.33 5.09,39.02 C5.09,19.71 20.74,4.06 40.05,4.06 C40.05,4.06 10.2,0.25 2.7,34.28 C2.7,34.28 0.3,56.52 16.57,67.14 C16.57,67.14 23.01,71.74 28.05,72.73 C33.09,73.72 40.05,73.98 40.05,73.98z "/><path id="_R_G_L_3_G_D_4_P_0" fill="#fe675e" fill-opacity="1" fill-rule="nonzero" d=" M59.89 45.86 C62.54,33.13 54.34,20.61 41.61,17.96 C28.88,15.31 16.36,23.51 13.71,36.24 C13.71,36.24 16.61,16.96 34.7,15.59 C34.7,15.59 52.01,13.92 58.26,28.15 C58.26,28.15 60.3,32.84 60.57,34.94 C60.84,37.03 60.93,41.28 60.93,41.28 C60.93,41.28 59.89,45.86 59.89,45.86z "/><path id="_R_G_L_3_G_D_5_P_0" stroke="#2e2b2c" stroke-linecap="round" stroke-linejoin="round" fill="none" stroke-width="1" stroke-opacity="1" d=" M72.44 38.83 C72.44,58.14 56.78,73.8 37.47,73.8 C18.16,73.8 2.5,58.14 2.5,38.83 C2.5,19.52 18.16,3.87 37.47,3.87 C56.78,3.87 72.44,19.52 72.44,38.83z "/><path id="_R_G_L_3_G_D_6_P_0" stroke="#2e2b2c" stroke-linecap="round" stroke-linejoin="round" fill="none" stroke-width="1" stroke-opacity="1" d=" M37.47 62.42 C24.46,62.42 13.88,51.84 13.88,38.83 C13.88,25.83 24.46,15.25 37.47,15.25 C50.47,15.25 61.05,25.83 61.05,38.83 C61.05,51.84 50.47,62.42 37.47,62.42z "/><path id="_R_G_L_3_G_D_7_P_0" stroke="#2e2b2c" stroke-linecap="round" stroke-linejoin="round" fill="none" stroke-width="1" stroke-opacity="1" d=" M37.46 3.63 C37.46,3.63 37.46,9.79 37.46,9.79 "/><path id="_R_G_L_3_G_D_8_P_0" stroke="#2e2b2c" stroke-linecap="round" stroke-linejoin="round" fill="none" stroke-width="1" stroke-opacity="1" d=" M12.61 14.09 C12.61,14.09 16.81,18.28 16.81,18.28 "/><path id="_R_G_L_3_G_D_9_P_0" stroke="#2e2b2c" stroke-linecap="round" stroke-linejoin="round" fill="none" stroke-width="1" stroke-opacity="1" d=" M2.42 38.7 C2.42,38.7 8.47,38.7 8.47,38.7 "/><path id="_R_G_L_3_G_D_10_P_0" stroke="#2e2b2c" stroke-linecap="round" stroke-linejoin="round" fill="none" stroke-width="1" stroke-opacity="1" d=" M12.7 63.54 C12.7,63.54 16.97,59.28 16.97,59.28 "/><path id="_R_G_L_3_G_D_11_P_0" stroke="#2e2b2c" stroke-linecap="round" stroke-linejoin="round" fill="none" stroke-width="1" stroke-opacity="1" d=" M37.54 73.98 C37.54,73.98 37.54,67.76 37.54,67.76 "/><path id="_R_G_L_3_G_D_12_P_0" stroke="#2e2b2c" stroke-linecap="round" stroke-linejoin="round" fill="none" stroke-width="1" stroke-opacity="1" d=" M62.37 63.58 C62.37,63.58 58.02,59.23 58.02,59.23 "/><path id="_R_G_L_3_G_D_13_P_0" stroke="#2e2b2c" stroke-linecap="round" stroke-linejoin="round" fill="none" stroke-width="1" stroke-opacity="1" d=" M72.39 38.69 C72.39,38.69 66.43,38.69 66.43,38.69 "/><path id="_R_G_L_3_G_D_14_P_0" stroke="#2e2b2c" stroke-linecap="round" stroke-linejoin="round" fill="none" stroke-width="1" stroke-opacity="1" d=" M62.13 14.02 C62.13,14.02 57.9,18.25 57.9,18.25 "/><path id="_R_G_L_3_G_D_15_P_0" fill="#000000" fill-opacity="1" fill-rule="nonzero" d=" M37.61 22.64 C40.58,25.63 43.53,28.64 46.53,31.6 C47.31,32.36 47.46,32.9 46.56,33.64 C45.82,34.26 45.15,34.98 44.49,35.7 C43.95,36.3 43.52,36.23 42.98,35.68 C41.51,34.17 39.96,32.74 38.54,31.18 C37.73,30.3 37.18,30.19 36.32,31.15 C34.94,32.68 33.39,34.07 31.96,35.56 C31.4,36.15 30.98,36.27 30.39,35.61 C29.72,34.85 29,34.13 28.24,33.45 C27.55,32.84 27.64,32.38 28.27,31.77 C31.32,28.74 34.34,25.68 37.37,22.64 C37.37,22.64 37.61,22.64 37.61,22.64z "/><path id="_R_G_L_3_G_D_16_P_0" fill="#000000" fill-opacity="1" fill-rule="nonzero" d=" M47.28 45.18 C47.26,45.62 46.98,45.83 46.76,46.06 C43.92,48.91 41.06,51.73 38.24,54.6 C37.69,55.16 37.32,55.19 36.75,54.61 C33.93,51.75 31.09,48.91 28.23,46.08 C27.63,45.5 27.59,45.06 28.22,44.49 C28.95,43.83 29.65,43.15 30.29,42.41 C30.94,41.66 31.44,41.62 32.15,42.38 C33.63,43.95 35.21,45.41 36.7,46.97 C37.28,47.57 37.68,47.61 38.27,46.98 C39.79,45.4 41.39,43.89 42.9,42.31 C43.53,41.66 43.98,41.63 44.59,42.31 C45.29,43.1 46.08,43.81 46.82,44.57 C47.01,44.77 47.16,45 47.28,45.18z "/><path id="_R_G_L_3_G_D_17_P_0" fill="#000000" fill-opacity="1" fill-rule="nonzero" d=" M50.07 42.56 C49.84,42.4 49.62,42.29 49.45,42.12 C48.59,41.27 47.74,40.4 46.87,39.55 C46.4,39.1 46.5,38.72 46.92,38.32 C47.76,37.49 48.59,36.67 49.41,35.82 C49.88,35.33 50.27,35.33 50.74,35.83 C51.52,36.65 52.32,37.45 53.15,38.23 C53.66,38.72 53.73,39.13 53.18,39.65 C52.32,40.46 51.52,41.31 50.68,42.13 C50.51,42.3 50.29,42.41 50.07,42.56z "/><path id="_R_G_L_3_G_D_18_P_0" fill="#000000" fill-opacity="1" fill-rule="nonzero" d=" M24.81 35.4 C24.93,35.42 25.03,35.42 25.08,35.46 C26.28,36.44 27.36,37.53 28.34,38.71 C28.55,38.97 28.26,39.24 28.06,39.44 C27.18,40.33 26.27,41.21 25.4,42.11 C25.01,42.51 24.67,42.52 24.27,42.12 C23.42,41.24 22.56,40.39 21.7,39.53 C21.38,39.21 21.21,38.86 21.6,38.48 C22.54,37.53 23.48,36.58 24.43,35.64 C24.54,35.53 24.7,35.47 24.81,35.4z "/><path id="_R_G_L_3_G_D_19_P_0" fill="#000000" fill-opacity="1" fill-rule="nonzero" d=" M37.45 35.4 C37.64,35.52 37.83,35.6 37.97,35.73 C38.86,36.6 39.74,37.5 40.63,38.38 C41.09,38.83 40.98,39.21 40.57,39.62 C39.73,40.43 38.89,41.25 38.08,42.1 C37.64,42.56 37.29,42.51 36.87,42.07 C36.09,41.26 35.29,40.45 34.47,39.67 C33.95,39.18 33.92,38.76 34.45,38.26 C35.27,37.49 36.06,36.66 36.86,35.87 C37.03,35.7 37.23,35.57 37.45,35.4z "/></g></g><g id="_R_G_L_2_G_N_2_T_0" transform=" translate(940.553, 478.487) translate(-16.259, -24.064)"><g id="_R_G_L_2_G" transform=" translate(16.74, 40.84)"><path id="_R_G_L_2_G_D_0_P_0" fill="#ffffff" fill-opacity="1" fill-rule="nonzero" d=" M2.7 10.96 C14.86,17.15 45.69,31.93 54.43,29.95 C66.13,27.27 88.17,35.21 89.1,35.54 C89.22,35.59 89.34,35.65 89.44,35.73 C89.48,35.75 93.44,38.63 97.07,37.47 C99.36,36.74 101.14,34.51 102.35,30.84 C103.11,28.55 103.01,26.64 102.05,24.99 C99.27,20.2 89.85,18.31 82.29,16.79 C79.8,16.29 77.44,15.82 75.58,15.29 C65.45,12.39 63.8,3.09 63.74,2.7 "/><path id="_R_G_L_2_G_D_1_P_0" stroke="#2e2b2c" stroke-linecap="round" stroke-linejoin="round" fill="none" stroke-width="1.079" stroke-opacity="1" d=" M63.73 2.7 C63.8,3.09 65.45,12.39 75.58,15.29 C77.44,15.82 79.8,16.29 82.29,16.79 C89.85,18.31 99.27,20.2 102.05,24.99 C103.01,26.64 103.11,28.55 102.35,30.84 C101.14,34.51 99.36,36.74 97.07,37.47 C93.44,38.63 89.48,35.75 89.44,35.73 C89.34,35.65 89.22,35.59 89.1,35.54 C88.17,35.21 66.13,27.27 54.43,29.95 C45.69,31.93 14.86,17.16 2.7,10.96 "/></g></g><g id="_R_G_L_1_G" transform=" translate(940.553, 478.487) translate(-16.259, -24.064)"><path id="_R_G_L_1_G_D_0_P_0" fill="#000000" fill-opacity="1" fill-rule="nonzero" d=" M0.25 43.73 C0.25,43.73 15.54,49.38 15.54,49.38 C15.54,49.38 31.77,5.92 31.77,5.92 C31.77,5.92 15.96,0.25 15.96,0.25 C15.96,0.25 0.25,43.73 0.25,43.73z "/></g><g id="_R_G_L_0_G" transform=" translate(1049.294, 690.087)"><path id="_R_G_L_0_G_D_0_P_0" fill="#000000" fill-opacity="1" fill-rule="nonzero" d=" M39.73 12.22 C39.73,12.22 82.07,0.25 82.07,0.25 C82.07,0.25 84.6,12.22 84.6,12.22 C84.6,12.22 39.73,12.22 39.73,12.22z "/><path id="_R_G_L_0_G_D_1_P_0" fill="#ffffff" fill-opacity="1" fill-rule="nonzero" d=" M132.16 107.88 C132.16,107.88 8.93,107.88 8.93,107.88 C5.52,107.88 2.74,105.1 2.74,101.69 C2.74,101.69 2.74,18.61 2.74,18.61 C2.74,15.2 5.52,12.42 8.93,12.42 C8.93,12.42 132.16,12.42 132.16,12.42 C135.57,12.42 138.35,15.2 138.35,18.61 C138.35,18.61 138.35,101.69 138.35,101.69 C138.35,105.1 135.57,107.88 132.16,107.88z "/><path id="_R_G_L_0_G_D_2_P_0" fill="#fe675e" fill-opacity="1" fill-rule="nonzero" d=" M8.15 107.88 C8.15,107.88 6.86,106.98 6.86,106.98 C6.86,107.78 2.74,105.1 2.74,101.69 C2.74,101.69 2.74,18.61 2.74,18.61 C2.74,15.2 4.03,14.66 4.17,14.66 C4.17,14.66 8.15,12.42 8.15,12.42 C8.3,12.42 8.41,15.2 8.41,18.61 C8.41,18.61 8.41,101.69 8.41,101.69 C8.41,105.1 8.3,107.88 8.15,107.88z "/><path id="_R_G_L_0_G_D_3_P_0" stroke="#2e2b2c" stroke-linecap="round" stroke-linejoin="round" fill="none" stroke-width="1" stroke-opacity="1" d=" M131.92 107.88 C131.92,107.88 8.69,107.88 8.69,107.88 C5.28,107.88 2.5,105.1 2.5,101.69 C2.5,101.69 2.5,18.61 2.5,18.61 C2.5,15.2 5.28,12.42 8.69,12.42 C8.69,12.42 131.92,12.42 131.92,12.42 C135.33,12.42 138.1,15.2 138.1,18.61 C138.1,18.61 138.1,101.69 138.1,101.69 C138.1,105.1 135.33,107.88 131.92,107.88z "/><path id="_R_G_L_0_G_D_4_P_0" stroke="#2e2b2c" stroke-linecap="round" stroke-linejoin="round" fill="none" stroke-width="1" stroke-opacity="1" d=" M121.84 98.46 C121.84,98.46 118.81,98.46 118.81,98.46 C118.05,98.46 117.44,97.84 117.44,97.08 C117.44,96.32 118.05,95.71 118.81,95.71 C118.81,95.71 121.84,95.71 121.84,95.71 C122.6,95.71 123.21,96.32 123.21,97.08 C123.21,97.84 122.6,98.46 121.84,98.46z "/><path id="_R_G_L_0_G_D_5_P_0" stroke="#2e2b2c" stroke-linecap="round" stroke-linejoin="round" fill="none" stroke-width="1" stroke-opacity="1" d=" M115.78 98.46 C115.78,98.46 112.76,98.46 112.76,98.46 C112,98.46 111.38,97.84 111.38,97.08 C111.38,96.32 112,95.71 112.76,95.71 C112.76,95.71 115.78,95.71 115.78,95.71 C116.54,95.71 117.16,96.32 117.16,97.08 C117.16,97.84 116.54,98.46 115.78,98.46z "/><path id="_R_G_L_0_G_D_6_P_0" stroke="#2e2b2c" stroke-linecap="round" stroke-linejoin="round" fill="none" stroke-width="1" stroke-opacity="1" d=" M109.73 98.46 C109.73,98.46 106.7,98.46 106.7,98.46 C105.94,98.46 105.33,97.84 105.33,97.08 C105.33,96.32 105.94,95.71 106.7,95.71 C106.7,95.71 109.73,95.71 109.73,95.71 C110.49,95.71 111.11,96.32 111.11,97.08 C111.11,97.84 110.49,98.46 109.73,98.46z "/><path id="_R_G_L_0_G_D_7_P_0" stroke="#2e2b2c" stroke-linecap="round" stroke-linejoin="round" fill="none" stroke-width="1" stroke-opacity="1" d=" M103.68 98.46 C103.68,98.46 100.65,98.46 100.65,98.46 C99.89,98.46 99.27,97.84 99.27,97.08 C99.27,96.32 99.89,95.71 100.65,95.71 C100.65,95.71 103.68,95.71 103.68,95.71 C104.44,95.71 105.05,96.32 105.05,97.08 C105.05,97.84 104.44,98.46 103.68,98.46z "/><path id="_R_G_L_0_G_D_8_P_0" stroke="#2e2b2c" stroke-linecap="round" stroke-linejoin="round" fill="none" stroke-width="1" stroke-opacity="1" d=" M97.62 98.46 C97.62,98.46 94.6,98.46 94.6,98.46 C93.84,98.46 93.22,97.84 93.22,97.08 C93.22,96.32 93.84,95.71 94.6,95.71 C94.6,95.71 97.62,95.71 97.62,95.71 C98.38,95.71 99,96.32 99,97.08 C99,97.84 98.38,98.46 97.62,98.46z "/><path id="_R_G_L_0_G_D_9_P_0" stroke="#2e2b2c" stroke-linecap="round" stroke-linejoin="round" fill="none" stroke-width="1" stroke-opacity="1" d=" M91.57 98.46 C91.57,98.46 88.54,98.46 88.54,98.46 C87.78,98.46 87.17,97.84 87.17,97.08 C87.17,96.32 87.78,95.71 88.54,95.71 C88.54,95.71 91.57,95.71 91.57,95.71 C92.33,95.71 92.95,96.32 92.95,97.08 C92.95,97.84 92.33,98.46 91.57,98.46z "/><path id="_R_G_L_0_G_D_10_P_0" stroke="#2e2b2c" stroke-linecap="round" stroke-linejoin="round" fill="none" stroke-width="1" stroke-opacity="1" d=" M85.52 98.46 C85.52,98.46 82.49,98.46 82.49,98.46 C81.73,98.46 81.11,97.84 81.11,97.08 C81.11,96.32 81.73,95.71 82.49,95.71 C82.49,95.71 85.52,95.71 85.52,95.71 C86.28,95.71 86.89,96.32 86.89,97.08 C86.89,97.84 86.28,98.46 85.52,98.46z "/><path id="_R_G_L_0_G_D_11_P_0" stroke="#2e2b2c" stroke-linecap="round" stroke-linejoin="round" fill="none" stroke-width="1" stroke-opacity="1" d=" M79.46 98.46 C79.46,98.46 76.43,98.46 76.43,98.46 C75.67,98.46 75.06,97.84 75.06,97.08 C75.06,96.32 75.67,95.71 76.43,95.71 C76.43,95.71 79.46,95.71 79.46,95.71 C80.22,95.71 80.84,96.32 80.84,97.08 C80.84,97.84 80.22,98.46 79.46,98.46z "/><path id="_R_G_L_0_G_D_12_P_0" stroke="#2e2b2c" stroke-linecap="round" stroke-linejoin="round" fill="none" stroke-width="1" stroke-opacity="1" d=" M73.41 98.46 C73.41,98.46 70.38,98.46 70.38,98.46 C69.62,98.46 69,97.84 69,97.08 C69,96.32 69.62,95.71 70.38,95.71 C70.38,95.71 73.41,95.71 73.41,95.71 C74.17,95.71 74.78,96.32 74.78,97.08 C74.78,97.84 74.17,98.46 73.41,98.46z "/><path id="_R_G_L_0_G_D_13_P_0" stroke="#2e2b2c" stroke-linecap="round" stroke-linejoin="round" fill="none" stroke-width="1" stroke-opacity="1" d=" M67.35 98.46 C67.35,98.46 64.33,98.46 64.33,98.46 C63.57,98.46 62.95,97.84 62.95,97.08 C62.95,96.32 63.57,95.71 64.33,95.71 C64.33,95.71 67.35,95.71 67.35,95.71 C68.11,95.71 68.73,96.32 68.73,97.08 C68.73,97.84 68.11,98.46 67.35,98.46z "/><path id="_R_G_L_0_G_D_14_P_0" stroke="#2e2b2c" stroke-linecap="round" stroke-linejoin="round" fill="none" stroke-width="1" stroke-opacity="1" d=" M61.3 98.46 C61.3,98.46 58.27,98.46 58.27,98.46 C57.51,98.46 56.9,97.84 56.9,97.08 C56.9,96.32 57.51,95.71 58.27,95.71 C58.27,95.71 61.3,95.71 61.3,95.71 C62.06,95.71 62.68,96.32 62.68,97.08 C62.68,97.84 62.06,98.46 61.3,98.46z "/><path id="_R_G_L_0_G_D_15_P_0" stroke="#2e2b2c" stroke-linecap="round" stroke-linejoin="round" fill="none" stroke-width="1" stroke-opacity="1" d=" M55.25 98.46 C55.25,98.46 52.22,98.46 52.22,98.46 C51.46,98.46 50.84,97.84 50.84,97.08 C50.84,96.32 51.46,95.71 52.22,95.71 C52.22,95.71 55.25,95.71 55.25,95.71 C56.01,95.71 56.62,96.32 56.62,97.08 C56.62,97.84 56.01,98.46 55.25,98.46z "/><path id="_R_G_L_0_G_D_16_P_0" stroke="#2e2b2c" stroke-linecap="round" stroke-linejoin="round" fill="none" stroke-width="1" stroke-opacity="1" d=" M49.19 98.46 C49.19,98.46 46.16,98.46 46.16,98.46 C45.4,98.46 44.79,97.84 44.79,97.08 C44.79,96.32 45.4,95.71 46.16,95.71 C46.16,95.71 49.19,95.71 49.19,95.71 C49.95,95.71 50.57,96.32 50.57,97.08 C50.57,97.84 49.95,98.46 49.19,98.46z "/><path id="_R_G_L_0_G_D_17_P_0" stroke="#2e2b2c" stroke-linecap="round" stroke-linejoin="round" fill="none" stroke-width="1" stroke-opacity="1" d=" M43.14 98.46 C43.14,98.46 40.11,98.46 40.11,98.46 C39.35,98.46 38.73,97.84 38.73,97.08 C38.73,96.32 39.35,95.71 40.11,95.71 C40.11,95.71 43.14,95.71 43.14,95.71 C43.9,95.71 44.51,96.32 44.51,97.08 C44.51,97.84 43.9,98.46 43.14,98.46z "/><path id="_R_G_L_0_G_D_18_P_0" stroke="#2e2b2c" stroke-linecap="round" stroke-linejoin="round" fill="none" stroke-width="1" stroke-opacity="1" d=" M37.08 98.46 C37.08,98.46 34.06,98.46 34.06,98.46 C33.3,98.46 32.68,97.84 32.68,97.08 C32.68,96.32 33.3,95.71 34.06,95.71 C34.06,95.71 37.08,95.71 37.08,95.71 C37.84,95.71 38.46,96.32 38.46,97.08 C38.46,97.84 37.84,98.46 37.08,98.46z "/><path id="_R_G_L_0_G_D_19_P_0" stroke="#2e2b2c" stroke-linecap="round" stroke-linejoin="round" fill="none" stroke-width="1" stroke-opacity="1" d=" M31.03 98.46 C31.03,98.46 28,98.46 28,98.46 C27.24,98.46 26.63,97.84 26.63,97.08 C26.63,96.32 27.24,95.71 28,95.71 C28,95.71 31.03,95.71 31.03,95.71 C31.79,95.71 32.41,96.32 32.41,97.08 C32.41,97.84 31.79,98.46 31.03,98.46z "/><path id="_R_G_L_0_G_D_20_P_0" stroke="#2e2b2c" stroke-linecap="round" stroke-linejoin="round" fill="none" stroke-width="1" stroke-opacity="1" d=" M24.98 98.46 C24.98,98.46 21.95,98.46 21.95,98.46 C21.19,98.46 20.57,97.84 20.57,97.08 C20.57,96.32 21.19,95.71 21.95,95.71 C21.95,95.71 24.98,95.71 24.98,95.71 C25.74,95.71 26.35,96.32 26.35,97.08 C26.35,97.84 25.74,98.46 24.98,98.46z "/><path id="_R_G_L_0_G_D_21_P_0" stroke="#2e2b2c" stroke-linecap="round" stroke-linejoin="round" fill="none" stroke-width="1" stroke-opacity="1" d=" M18.92 98.46 C18.92,98.46 15.9,98.46 15.9,98.46 C15.14,98.46 14.52,97.84 14.52,97.08 C14.52,96.32 15.14,95.71 15.9,95.71 C15.9,95.71 18.92,95.71 18.92,95.71 C19.68,95.71 20.3,96.32 20.3,97.08 C20.3,97.84 19.68,98.46 18.92,98.46z "/><path id="_R_G_L_0_G_D_22_P_0" stroke="#2e2b2c" stroke-linecap="round" stroke-linejoin="round" fill="none" stroke-width="1" stroke-opacity="1" d=" M12.87 98.46 C12.87,98.46 9.84,98.46 9.84,98.46 C9.08,98.46 8.47,97.84 8.47,97.08 C8.47,96.32 9.08,95.71 9.84,95.71 C9.84,95.71 12.87,95.71 12.87,95.71 C13.63,95.71 14.24,96.32 14.24,97.08 C14.24,97.84 13.63,98.46 12.87,98.46z "/><path id="_R_G_L_0_G_D_23_P_0" fill="#000000" fill-opacity="1" fill-rule="nonzero" d=" M137.76 74.32 C137.76,74.32 97.09,74.32 97.09,74.32 C94.44,74.32 92.28,72.16 92.28,69.51 C92.28,69.51 92.28,50.8 92.28,50.8 C92.28,48.15 94.44,45.98 97.09,45.98 C97.09,45.98 137.76,45.98 137.76,45.98 C137.76,45.98 137.76,74.32 137.76,74.32z "/><path id="_R_G_L_0_G_D_24_P_0" stroke="#2e2b2c" stroke-linecap="round" stroke-linejoin="round" fill="none" stroke-width="1" stroke-opacity="1" d=" M137.52 74.32 C137.52,74.32 96.85,74.32 96.85,74.32 C94.2,74.32 92.03,72.16 92.03,69.51 C92.03,69.51 92.03,50.8 92.03,50.8 C92.03,48.15 94.2,45.98 96.85,45.98 C96.85,45.98 137.52,45.98 137.52,45.98 C137.52,45.98 137.52,74.32 137.52,74.32z "/><path id="_R_G_L_0_G_D_25_P_0" fill="#ffffff" fill-opacity="1" fill-rule="nonzero" d=" M113.26 60.15 C113.26,63.62 110.45,66.42 106.99,66.42 C103.52,66.42 100.71,63.62 100.71,60.15 C100.71,56.69 103.52,53.88 106.99,53.88 C110.45,53.88 113.26,56.69 113.26,60.15z "/></g></g><g id="time_group"/></svg>